<svg viewBox="0 0 37 36" fill="none" xmlns="http://www.w3.org/2000/svg">
<path d="M9.28983 25.8879C8.6665 26.2131 7.93476 25.915 7.63665 25.2375C7.55535 25.0478 7.50114 24.831 7.50114 24.6413C7.50114 24.1263 7.74505 23.6385 8.17868 23.3946C8.36838 23.2862 12.6775 20.9826 18.9921 23.3404C24.304 25.2917 27.7729 23.4759 27.9355 23.3946C28.5318 23.0694 29.2906 23.3404 29.5887 24.0179C29.8868 24.7226 29.6429 25.5356 29.0196 25.8879C28.857 25.9692 24.5479 28.2999 18.2062 25.9421C12.8943 23.9637 9.42534 25.8066 9.28983 25.8879ZM9.28983 19.492C8.6665 19.8172 7.93476 19.5462 7.63665 18.8687C7.55535 18.6519 7.50114 18.4622 7.50114 18.2453C7.50114 17.7304 7.74505 17.2697 8.17868 17.0258C8.36838 16.9174 12.6775 14.5867 18.9921 16.9445C24.304 18.9229 27.7729 17.08 27.9355 17.0258C28.5318 16.6735 29.2906 16.9716 29.5887 17.6491C29.8868 18.3266 29.6429 19.1397 29.0196 19.492C28.857 19.5733 24.5479 21.9311 18.2062 19.5733C12.8943 17.5678 9.42534 19.4107 9.28983 19.492ZM9.28983 12.9335C8.6665 13.2858 7.93476 12.9877 7.63665 12.3102C7.55535 12.1204 7.50114 11.9036 7.50114 11.7139C7.50114 11.199 7.74505 10.7112 8.17868 10.4673C8.36838 10.386 12.6775 8.02815 18.9921 10.4131C24.304 12.3644 27.7729 10.5486 27.9355 10.4673C28.5318 10.1421 29.2906 10.4131 29.5887 11.0906C29.8868 11.7952 29.6429 12.6083 29.0196 12.9335C28.857 13.0419 24.5479 15.3726 18.2062 13.0148C12.8943 11.0364 9.42534 12.8522 9.28983 12.9335ZM36.2556 18.164C36.2556 8.43467 28.3421 0.521088 18.6127 0.521088C8.85621 0.521088 0.969727 8.43467 0.969727 18.164C0.969727 27.9205 8.85621 35.807 18.6127 35.807C28.3421 35.807 36.2556 27.9205 36.2556 18.164Z" fill="#7D7D7D"/>
</svg>
