<svg viewBox="0 0 37 38" fill="none" xmlns="http://www.w3.org/2000/svg">
<path d="M2.53763 16.1452C2.18817 17.543 2 18.9946 2 20.5C2 30.1774 9.82258 38 19.5 38C29.1505 38 37 30.1774 37 20.5C37 10.8495 29.1505 3 19.5 3C18.1559 3 16.8387 3.16129 15.5753 3.45699C16.5968 4.93548 17.2151 6.76344 17.2151 8.69893C17.2151 13.8065 13.1022 17.9194 7.99462 17.9194C5.95161 17.9194 4.06989 17.2742 2.53763 16.1452Z" fill="#7D7D7D"/>
<path fill-rule="evenodd" clip-rule="evenodd" d="M26.3148 24.9293C25.9695 24.9293 26.0492 25.5617 25.8366 25.7816C25.8101 25.7816 25.7835 25.8091 25.7569 25.8091C25.5975 25.8916 25.4913 25.6717 25.4647 25.5617C25.385 25.3417 25.4647 24.9843 25.3584 24.8468C25.2787 24.7093 24.8802 24.6543 24.9068 25.1492C24.9334 25.3142 25.0131 25.7816 24.9068 25.8916C24.8005 26.0016 24.6677 25.9191 24.588 25.8366C24.4817 25.6992 24.4552 25.5067 24.402 25.3692C24.3755 25.3142 24.3489 25.2592 24.3223 25.2042C24.1895 24.9843 23.8175 25.1492 23.9238 25.4792L24.0566 25.7816C24.1098 25.8641 24.1363 26.0016 24.1629 26.1116C24.1895 26.2491 24.1098 26.3591 23.9769 26.3591C23.5519 26.3041 23.3393 25.4517 22.9674 25.8091C22.9143 25.8641 22.9143 25.9191 22.9143 26.0016C22.9408 26.1666 23.2331 26.3866 23.3659 26.524C23.419 26.579 23.5253 26.7165 23.5253 26.799C23.5519 26.9365 23.3925 26.9915 23.2862 26.9915C23.0205 26.9915 22.7549 26.6065 22.5689 26.854C22.4626 26.964 22.4892 27.1014 22.5689 27.1839C22.6486 27.2664 22.808 27.3214 22.9408 27.3489C23.0471 27.4039 23.1799 27.4864 23.1534 27.6239C23.1268 27.7614 22.994 27.7888 22.8877 27.7888C22.7549 27.7888 22.622 27.7888 22.5158 27.7888C22.3564 27.7614 22.2235 27.7064 22.0907 27.7339C21.825 27.7614 21.7719 28.1738 22.0907 28.2563C22.3298 28.3113 22.6486 28.2838 22.9143 28.3663C23.0205 28.4213 23.1002 28.5312 23.0471 28.6687C22.9408 28.8337 22.5955 28.9162 22.4361 28.9437C22.3032 28.9437 22.1704 28.9437 22.1173 29.0537C22.0376 29.1636 22.0907 29.3286 22.1704 29.3836C22.3298 29.4661 22.622 29.3561 22.7017 29.3286C22.8611 29.2736 23.1002 29.2186 23.2331 29.3286C23.419 29.4936 23.2596 29.7961 23.0205 29.906C22.9408 29.9335 22.7814 29.9885 22.7283 30.0435C22.6486 30.2085 22.7814 30.6484 23.3128 30.236C23.3659 30.2085 23.419 30.181 23.4722 30.1535C23.4987 30.126 23.5519 30.0985 23.605 30.0985C23.6847 30.126 23.7378 30.1535 23.7644 30.2085C23.791 30.3185 23.6847 30.4834 23.6316 30.5934C23.5253 30.7584 23.1799 31.0609 23.3659 31.2258C23.7644 31.6658 24.0301 30.401 24.4286 30.5384C24.6943 30.6484 24.4552 31.1983 24.4286 31.3083C24.3489 31.6658 24.7474 31.7483 24.8802 31.5283C24.9865 31.3358 25.0131 30.7859 25.2256 30.8134C25.385 30.8134 25.4116 30.9509 25.4381 31.0884C25.4647 31.1983 25.4913 31.3083 25.4913 31.4458C25.4913 31.5558 25.4647 31.6933 25.5178 31.8033C25.5444 31.9132 25.6241 32.0232 25.8101 31.9957C26.1289 31.9132 25.8898 31.3358 25.9429 30.9234C25.9695 30.7584 26.1023 30.6759 26.2351 30.7584C26.368 30.8684 26.4477 31.1983 26.5805 31.3633C26.8196 31.5833 27.1384 31.3083 26.9525 31.0884C26.9259 31.0334 26.8462 30.9784 26.7931 30.8959C26.7134 30.7859 26.6602 30.6209 26.7134 30.456C26.7931 30.126 27.1916 30.401 27.2978 30.5384C27.3775 30.6209 27.4307 30.7309 27.5369 30.7859C27.6698 30.8684 27.8026 30.8134 27.8557 30.6759C27.9886 30.401 27.5369 30.2085 27.4307 29.9885C27.4041 29.9335 27.351 29.8785 27.3775 29.8235C27.4572 29.4111 28.2277 29.9885 28.3871 30.0435C28.5465 30.126 28.6527 30.0985 28.7324 29.9885C28.8121 29.851 28.7856 29.7136 28.7059 29.6311C28.5465 29.4936 27.8557 29.2461 27.776 29.0262C27.6963 28.8612 27.8557 28.7787 27.9354 28.7787C28.1745 28.7237 28.5199 28.9162 28.7059 28.8062C28.8387 28.7512 28.8653 28.5587 28.7856 28.4762C28.7059 28.3663 28.5465 28.3388 28.4136 28.3388C28.2808 28.3388 27.7229 28.3388 27.8557 28.0088C27.962 27.7064 29.0513 27.8713 28.9981 27.4039C28.945 27.074 28.6262 27.1839 28.4136 27.2389C28.2808 27.2939 27.8557 27.4039 27.7229 27.3214C27.5901 27.2389 27.6432 27.1014 27.7229 26.9915C27.776 26.8815 27.8823 26.799 27.962 26.744C28.0417 26.689 28.148 26.6615 28.2277 26.5515C28.3074 26.414 28.2277 26.2766 28.148 26.2216C27.962 26.0566 27.7229 26.3316 27.5635 26.469C27.4838 26.524 27.3775 26.634 27.2447 26.579C27.1916 26.5515 27.165 26.469 27.165 26.414C27.1384 26.3591 27.165 26.2766 27.2181 26.2216C27.2447 26.1666 27.2713 26.1116 27.2978 26.0566C27.351 26.0016 27.3775 25.9466 27.4041 25.8916C27.5104 25.7816 27.8292 25.4792 27.5635 25.2867C27.2447 25.0667 27.1119 25.5342 26.7665 25.8916C26.7134 25.9466 26.5805 26.0566 26.4742 25.9741C26.2883 25.8091 26.554 25.3417 26.554 25.1492C26.554 25.0393 26.4477 24.9293 26.3148 24.9293ZM21.9313 8.4042C21.1608 8.4317 21.3202 9.88898 20.842 10.3839C20.8155 10.4389 20.7358 10.4664 20.6826 10.4939C20.2841 10.6589 20.0716 10.1639 19.9653 9.88898C19.8059 9.36656 20.0185 8.56918 19.7528 8.21173C19.5403 7.90927 18.6104 7.77179 18.7167 8.92662C18.7432 9.31157 18.9558 10.3839 18.6635 10.6864C18.4244 10.9338 18.1322 10.7139 17.9462 10.5214C17.7071 10.2189 17.654 9.7515 17.5212 9.42155C17.4946 9.28407 17.4149 9.17409 17.3618 9.0641C17.0429 8.54168 16.1662 8.92662 16.4053 9.66901L16.7241 10.4114C16.8038 10.6039 16.9101 10.9063 16.9632 11.1538C16.9898 11.4837 16.8304 11.7862 16.5116 11.7312C15.5286 11.5937 15.0239 9.64152 14.1737 10.4664C14.0674 10.5764 14.0409 10.7414 14.0409 10.8788C14.094 11.2913 14.7848 11.8412 15.077 12.1162C15.2364 12.2536 15.4755 12.5561 15.5021 12.7486C15.5021 13.106 15.2098 13.216 14.9176 13.216C14.3331 13.1885 13.6689 12.3361 13.2439 12.886C13.0048 13.1885 13.0845 13.4635 13.2704 13.6559C13.4564 13.8484 13.8283 13.9584 14.094 14.0684C14.3862 14.2058 14.6785 14.3433 14.6253 14.6733C14.5722 15.0307 14.2534 15.0582 13.9877 15.0857C13.6955 15.1132 13.4033 15.0857 13.111 15.0582C12.7922 15.0032 12.4734 14.8932 12.1546 14.9482C11.4904 15.0307 11.4373 15.9381 12.128 16.1306C12.7125 16.2955 13.4033 16.1856 14.0409 16.433C14.3331 16.543 14.5191 16.818 14.3331 17.1479C14.1206 17.5329 13.3236 17.6978 12.9251 17.7528C12.6328 17.7528 12.3406 17.7528 12.1812 18.0003C11.9952 18.2478 12.1546 18.6327 12.3406 18.7427C12.686 18.9626 13.3501 18.6877 13.5627 18.6327C13.9346 18.5502 14.4925 18.3852 14.8113 18.6602C15.2364 19.0176 14.891 19.76 14.28 19.98C14.094 20.035 13.7221 20.1725 13.6158 20.3374C13.4298 20.7224 13.7752 21.6847 14.9973 20.7774C15.1036 20.6949 15.2364 20.6399 15.3427 20.5849C15.4489 20.5299 15.5286 20.4474 15.688 20.4749C15.8474 20.4749 15.9803 20.5849 16.0334 20.7224C16.1131 20.9973 15.874 21.3548 15.7412 21.5748C15.4755 21.9872 14.705 22.6471 15.1036 23.087C16.06 24.1044 16.671 21.1623 17.5743 21.4923C18.2119 21.7122 17.6274 23.0046 17.5743 23.252C17.4149 24.0769 18.3182 24.2694 18.637 23.7469C18.9026 23.307 18.9292 22.0697 19.4606 22.0972C19.7794 22.1247 19.8591 22.3996 19.9388 22.7296C19.9919 22.9771 20.045 23.2795 20.045 23.5545C20.045 23.8569 20.0185 24.1869 20.0982 24.4343C20.1779 24.6818 20.3904 24.9293 20.7623 24.8193C21.5328 24.6268 20.9749 23.307 21.1343 22.3446C21.1874 22.0147 21.4796 21.7947 21.7719 22.0147C22.1173 22.2622 22.2501 23.032 22.5689 23.362C23.1268 23.9394 23.8707 23.2795 23.4722 22.7571C23.3659 22.6196 23.2065 22.4821 23.1002 22.2897C22.9143 22.0147 22.7814 21.6572 22.8877 21.2723C23.0737 20.5024 24.0035 21.1623 24.2692 21.4923C24.4286 21.6572 24.5614 21.9322 24.8271 22.0697C25.1459 22.2347 25.4647 22.0697 25.571 21.8222C25.8366 21.1898 24.8005 20.7224 24.5349 20.1725C24.4817 20.0625 24.402 19.9525 24.4286 19.7875C24.6146 18.8527 26.4211 20.1725 26.7931 20.3374C27.165 20.4749 27.4041 20.4199 27.5635 20.1725C27.776 19.87 27.6963 19.5401 27.5104 19.3751C27.165 19.0451 25.5444 18.4952 25.3319 17.9453C25.199 17.5604 25.5444 17.3954 25.7569 17.3404C26.3148 17.2304 27.1119 17.6703 27.5369 17.4504C27.8026 17.3129 27.8823 16.9004 27.7229 16.653C27.5369 16.378 27.1916 16.378 26.8728 16.378C26.5274 16.3505 25.2522 16.378 25.5444 15.6081C25.8101 14.8657 28.3605 15.2232 28.2011 14.2058C28.0948 13.4085 27.3244 13.6559 26.8196 13.8209C26.554 13.9034 25.5444 14.1784 25.2256 13.9859C24.9599 13.7934 25.0396 13.491 25.2256 13.216C25.385 12.9685 25.5975 12.7486 25.7835 12.6386C25.9695 12.5286 26.2351 12.4461 26.3945 12.1986C26.5805 11.8962 26.4477 11.5662 26.2617 11.4288C25.7569 11.0713 25.2522 11.7037 24.8537 11.9787C24.6677 12.1162 24.4552 12.4186 24.1098 12.2261C24.0035 12.1711 23.9238 12.0337 23.9238 11.8962C23.8972 11.7312 23.9769 11.5937 24.0566 11.4288C24.1363 11.2913 24.1895 11.1538 24.2692 11.0438C24.3489 10.9063 24.4286 10.7963 24.5083 10.6864C24.7208 10.4114 25.4913 9.69651 24.8537 9.22908C24.1098 8.70666 23.8175 9.86149 23.0205 10.6314C22.8611 10.7963 22.622 11.0713 22.3032 10.8238C21.8782 10.4664 22.5158 9.39405 22.5158 8.92662C22.4892 8.65166 22.3032 8.4042 21.9313 8.4042ZM10.5606 22.4821C10.3746 22.4821 10.4012 22.8671 10.2949 22.9771C10.2684 22.9771 10.2684 23.0046 10.2418 23.0046C10.1621 23.032 10.0824 22.9221 10.0824 22.8671C10.0292 22.7296 10.0824 22.5371 10.0292 22.4271C9.97612 22.3721 9.73701 22.3172 9.76358 22.6196C9.76358 22.7021 9.81671 22.9771 9.73701 23.0595C9.68388 23.1145 9.60418 23.0595 9.57761 23.0046C9.52448 22.9496 9.49791 22.8121 9.47134 22.7296C9.44477 22.7021 9.44477 22.6746 9.41821 22.6471C9.33851 22.5096 9.12597 22.6196 9.1791 22.8121L9.25881 22.9771C9.28537 23.032 9.31194 23.1145 9.31194 23.1695C9.33851 23.252 9.28537 23.3345 9.20567 23.307C8.96657 23.2795 8.83373 22.7846 8.64776 23.0046C8.59463 23.032 8.59463 23.0595 8.59463 23.1145C8.6212 23.197 8.7806 23.3345 8.8603 23.417C8.88687 23.4445 8.96657 23.527 8.96657 23.5545C8.96657 23.6645 8.88687 23.692 8.80717 23.692C8.67433 23.6645 8.51493 23.472 8.40866 23.6095C8.35553 23.6645 8.35553 23.7469 8.40866 23.8019C8.46179 23.8294 8.5415 23.8569 8.6212 23.8844C8.67433 23.9394 8.75403 23.9669 8.75403 24.0494C8.72746 24.1319 8.64776 24.1319 8.59463 24.1319C8.51493 24.1594 8.43523 24.1594 8.35553 24.1319C8.27582 24.1319 8.22269 24.1044 8.14299 24.1044C7.95702 24.1319 7.95702 24.3519 8.11642 24.4068C8.27582 24.4343 8.43523 24.4343 8.59463 24.4893C8.67433 24.5168 8.72746 24.5718 8.67433 24.6543C8.6212 24.7643 8.43523 24.7918 8.32896 24.7918C8.24926 24.8193 8.16956 24.8193 8.14299 24.8743C8.08986 24.9293 8.14299 25.0393 8.16956 25.0667C8.24926 25.1217 8.43523 25.0393 8.48836 25.0393C8.56806 25.0118 8.7009 24.9568 8.7806 25.0393C8.88687 25.1217 8.80717 25.3142 8.64776 25.3692C8.6212 25.3692 8.51493 25.3967 8.48836 25.4517C8.43523 25.5342 8.5415 25.7816 8.83373 25.5617C8.8603 25.5342 8.88687 25.5342 8.91343 25.5067C8.94 25.5067 8.96657 25.4792 9.0197 25.4792C9.04627 25.4792 9.07284 25.5067 9.0994 25.5342C9.12597 25.6167 9.04627 25.6992 9.0197 25.7541C8.96657 25.8641 8.75403 26.0291 8.8603 26.1391C9.0994 26.3866 9.25881 25.6442 9.47134 25.7267C9.63074 25.7816 9.49791 26.1116 9.47134 26.1666C9.44477 26.3866 9.65731 26.414 9.73701 26.3041C9.81671 26.1941 9.81671 25.8916 9.94955 25.8916C10.0292 25.8916 10.0558 25.9741 10.0558 26.0291C10.0824 26.1116 10.0824 26.1666 10.0824 26.2491C10.0824 26.3316 10.0824 26.414 10.109 26.469C10.1355 26.524 10.1887 26.579 10.2684 26.5515C10.4543 26.524 10.3215 26.1941 10.3481 25.9466C10.3746 25.8641 10.4543 25.8091 10.534 25.8641C10.6137 25.9191 10.6403 26.1116 10.72 26.1941C10.8528 26.3316 11.0388 26.1666 10.9325 26.0566C10.906 26.0291 10.8794 25.9741 10.8528 25.9466C10.7997 25.8641 10.7731 25.7816 10.7997 25.6717C10.8528 25.4792 11.0654 25.6442 11.1451 25.7267C11.1716 25.7816 11.2248 25.8366 11.2779 25.8916C11.3576 25.9191 11.4373 25.8916 11.4639 25.8091C11.517 25.6717 11.2779 25.5342 11.1982 25.3967C11.1982 25.3692 11.1716 25.3692 11.1716 25.3142C11.2248 25.0667 11.6764 25.3967 11.7561 25.4517C11.8624 25.4792 11.9155 25.4792 11.9686 25.3967C12.0218 25.3417 11.9952 25.2592 11.9421 25.2042C11.8624 25.1217 11.4639 24.9843 11.4107 24.8468C11.3842 24.7643 11.4639 24.7093 11.517 24.7093C11.6498 24.6818 11.8358 24.7918 11.9421 24.7368C12.0218 24.7093 12.0218 24.5993 11.9952 24.5443C11.9421 24.4618 11.8624 24.4618 11.7827 24.4618C11.703 24.4618 11.3842 24.4618 11.4639 24.2694C11.517 24.0769 12.1546 24.1869 12.128 23.9119C12.1015 23.7194 11.8889 23.8019 11.7827 23.8294C11.703 23.8569 11.4639 23.9119 11.3842 23.8569C11.3045 23.8294 11.331 23.7469 11.3842 23.692C11.4107 23.6095 11.4639 23.5545 11.517 23.527C11.5701 23.527 11.6233 23.4995 11.6764 23.417C11.7295 23.362 11.6764 23.2795 11.6233 23.2245C11.517 23.142 11.3842 23.307 11.2779 23.3895C11.2513 23.417 11.1716 23.472 11.0919 23.4445C11.0654 23.417 11.0654 23.3895 11.0388 23.362C11.0388 23.307 11.0654 23.2795 11.0919 23.252C11.0919 23.197 11.1185 23.1695 11.1451 23.142C11.1716 23.1145 11.1716 23.087 11.1982 23.0595C11.2513 22.9771 11.4373 22.8121 11.2779 22.7021C11.0919 22.5646 11.0122 22.8396 10.8263 23.032C10.7997 23.087 10.72 23.142 10.6669 23.087C10.534 23.0046 10.6934 22.7296 10.6934 22.6196C10.6934 22.5371 10.6403 22.4821 10.5606 22.4821Z" fill="#FEFEFE"/>
<path d="M8 0C12.4232 0 16 3.57679 16 8C16 12.4232 12.4232 16 8 16C3.57679 16 0 12.4232 0 8C0 3.57679 3.57679 0 8 0ZM3.68601 3.71331C3.35836 4.04096 3.35836 4.61433 3.68601 4.96928L6.71672 8L3.68601 11.0307C3.35836 11.3857 3.35836 11.959 3.68601 12.314C4.04096 12.6689 4.61433 12.6689 4.96928 12.314L8 9.28328L11.0307 12.314C11.3857 12.6689 11.959 12.6689 12.314 12.314C12.6689 11.959 12.6689 11.3857 12.314 11.0307L9.28328 8L12.314 4.96928C12.6689 4.61433 12.6689 4.04096 12.314 3.71331C11.959 3.35836 11.3857 3.35836 11.0307 3.71331L8 6.71672L4.96928 3.71331C4.61433 3.35836 4.04096 3.35836 3.68601 3.71331Z" fill="#7D7D7D"/>
</svg>
