<svg viewBox="0 0 38 38" fill="none" xmlns="http://www.w3.org/2000/svg">
<path fill-rule="evenodd" clip-rule="evenodd" d="M33.1725 7.50318C33.0916 7.34183 32.9297 7.18047 32.7679 7.18047L30.4755 6.75018L29.3698 4.38358C29.2889 4.22222 29.127 4.06086 28.8573 4.06086C28.6955 4.06086 28.4258 4.14154 28.3449 4.38358L27.2392 6.75018L24.8928 7.18047C24.704 7.18047 24.5422 7.34183 24.4613 7.50318C24.4613 7.61076 24.4613 7.61076 24.4613 7.69144C24.4613 7.8528 24.5422 7.93348 24.6231 8.09483L26.3222 9.7891L25.8098 12.2364C25.7289 12.5053 25.8907 12.6667 26.0795 12.828C26.1604 12.9087 26.3222 12.9087 26.4031 12.9087C26.484 12.9087 26.5649 12.9087 26.6728 12.828L28.8573 11.564L31.0688 12.828C31.1498 12.9087 31.2307 12.9087 31.3116 12.9087C31.3925 12.9087 31.5813 12.828 31.6622 12.828C31.824 12.7473 31.9049 12.5053 31.9049 12.2364L31.3925 9.7891L33.0916 8.09483C33.1725 8.01415 33.2534 7.8528 33.2534 7.69144C33.1725 7.61076 33.1725 7.61076 33.1725 7.50318ZM23.3556 3.46921C23.2747 3.28096 23.1128 3.1196 22.9241 3.03892L20.6586 2.71621L19.5529 0.349611C19.472 0.161359 19.2832 0 19.0405 0C18.7977 0 18.6089 0.0806794 18.528 0.349611L17.4223 2.71621L15.049 3.03892C14.8872 3.1196 14.7253 3.20028 14.6444 3.46921C14.6444 3.54989 14.6444 3.54989 14.6444 3.63057C14.6444 3.79193 14.7253 3.87261 14.8062 4.06086L16.5053 5.75513L15.9929 8.20241C15.912 8.44444 16.0738 8.6058 16.2356 8.79405C16.3435 8.87473 16.5053 8.87473 16.5862 8.87473C16.6671 8.87473 16.748 8.87473 16.829 8.79405L19.0405 7.61076L21.252 8.79405C21.3329 8.87473 21.4138 8.87473 21.4947 8.87473C21.5756 8.87473 21.7374 8.87473 21.8453 8.79405C22.0071 8.68648 22.088 8.44444 22.088 8.20241L21.5756 5.75513L23.2747 4.06086C23.3556 3.98018 23.4365 3.79193 23.4365 3.63057C23.3556 3.54989 23.3556 3.54989 23.3556 3.46921ZM13.5926 7.50318C13.5117 7.34183 13.3499 7.18047 13.1881 7.18047L10.8957 6.75018L9.78992 4.38358C9.70901 4.22222 9.5472 4.06086 9.2775 4.06086C9.03478 4.06086 8.87296 4.14154 8.79205 4.38358L7.6863 6.75018L5.31299 7.18047C5.04329 7.18047 4.88148 7.34183 4.88148 7.50318C4.88148 7.61076 4.88148 7.61076 4.88148 7.69144C4.88148 7.8528 4.96238 7.93348 5.04329 8.09483L6.74237 9.7891L6.22995 12.2364C6.14904 12.5053 6.22995 12.6667 6.49964 12.828C6.58055 12.9087 6.66146 12.9087 6.82328 12.9087C6.90419 12.9087 7.01206 12.9087 7.09297 12.828L9.2775 11.564L11.489 12.828C11.5699 12.9087 11.6508 12.9087 11.7317 12.9087C11.8396 12.9087 12.0014 12.828 12.0823 12.828C12.2441 12.7473 12.3251 12.5053 12.3251 12.2364L11.8396 9.7891L13.5117 8.09483C13.5926 8.01415 13.7005 7.8528 13.7005 7.69144C13.5926 7.61076 13.5926 7.61076 13.5926 7.50318ZM8.73811 18.0453C8.63023 17.8839 8.46842 17.7226 8.3066 17.7226L6.01419 17.2923L4.90845 14.9257C4.82754 14.7643 4.66572 14.603 4.423 14.603C4.1533 14.603 3.99148 14.7643 3.91057 14.9257L2.80483 17.2923L0.51242 17.7226C0.269695 17.7226 0.0809084 17.8839 0.0809084 18.0453C0.0809084 18.126 0 18.126 0 18.2067C0 18.3949 0.0809084 18.4756 0.188786 18.6369L1.86089 20.3312L1.37544 22.7785C1.26757 23.0205 1.37544 23.2088 1.61817 23.3701C1.69908 23.4508 1.77999 23.4508 1.96877 23.4508C2.04968 23.4508 2.13059 23.4508 2.2115 23.3701L4.423 22.1062L6.60752 23.3701C6.68843 23.4508 6.76934 23.4508 6.87722 23.4508C6.95813 23.4508 7.11994 23.3701 7.20085 23.3701C7.36267 23.2895 7.47055 23.0205 7.47055 22.7785L6.95813 20.3312L8.63023 18.6369C8.73811 18.5563 8.81902 18.3949 8.81902 18.2067C8.73811 18.126 8.73811 18.126 8.73811 18.0453ZM13.5926 27.0276C13.5117 26.7856 13.3499 26.7049 13.1881 26.6242L10.8957 26.2746L9.78992 23.908C9.70901 23.7466 9.5472 23.5853 9.2775 23.5853C9.03478 23.5853 8.87296 23.666 8.79205 23.908L7.6863 26.2746L5.31299 26.6242C5.04329 26.6242 4.88148 26.7856 4.88148 27.0276C4.88148 27.1083 4.88148 27.1083 4.88148 27.189C4.88148 27.3772 4.96238 27.4579 5.04329 27.6192L6.74237 29.3135L6.22995 31.7608C6.14904 32.0028 6.22995 32.1911 6.49964 32.3524C6.58055 32.4331 6.66146 32.4331 6.82328 32.4331C6.90419 32.4331 7.01206 32.4331 7.09297 32.3524L9.2775 31.1691L11.489 32.3524C11.5699 32.4331 11.6508 32.4331 11.7317 32.4331C11.8396 32.4331 12.0014 32.4331 12.0823 32.3524C12.2441 32.1911 12.3251 32.0028 12.3251 31.7608L11.8396 29.3135L13.5117 27.6192C13.5926 27.5386 13.7005 27.3772 13.7005 27.189C13.5926 27.189 13.5926 27.1083 13.5926 27.0276ZM23.3556 32.6483C23.2747 32.4062 23.1128 32.3256 22.9241 32.2449L20.6586 31.8146L19.5529 29.4749C19.472 29.3135 19.2832 29.1522 19.0405 29.1522C18.7977 29.1522 18.6089 29.2328 18.528 29.4749L17.4223 31.8146L15.049 32.2449C14.8872 32.2449 14.7253 32.4062 14.6444 32.6483C14.6444 32.7289 14.6444 32.7289 14.6444 32.8365C14.6444 32.9979 14.7253 33.0786 14.8062 33.2399L16.5053 34.9073L15.9929 37.3277C15.912 37.5966 16.0738 37.758 16.2356 37.9193C16.3435 38 16.5053 38 16.5862 38C16.6671 38 16.748 38 16.829 37.9193L19.0405 36.6822L21.252 37.9193C21.3329 38 21.4138 38 21.4947 38C21.5756 38 21.7374 37.9193 21.8453 37.9193C22.0071 37.8386 22.088 37.5966 22.088 37.3277L21.5756 34.9073L23.2747 33.2399C23.3556 33.1592 23.4365 32.9979 23.4365 32.8365C23.3556 32.7289 23.3556 32.7289 23.3556 32.6483ZM33.1725 27.0276C33.0916 26.7856 32.9297 26.7049 32.7679 26.6242L30.4755 26.2746L29.3698 23.908C29.2889 23.7466 29.127 23.5853 28.8573 23.5853C28.6955 23.5853 28.4258 23.666 28.3449 23.908L27.2392 26.2746L24.8928 26.6242C24.704 26.6242 24.5422 26.7856 24.4613 27.0276C24.4613 27.1083 24.4613 27.1083 24.4613 27.189C24.4613 27.3772 24.5422 27.4579 24.6231 27.6192L26.3222 29.3135L25.8098 31.7608C25.7289 32.0028 25.8907 32.1911 26.0795 32.3524C26.1604 32.4331 26.3222 32.4331 26.4031 32.4331C26.484 32.4331 26.5649 32.4331 26.6728 32.3524L28.8573 31.1691L31.0688 32.3524C31.1498 32.4331 31.2307 32.4331 31.3116 32.4331C31.3925 32.4331 31.5813 32.4331 31.6622 32.3524C31.824 32.1911 31.9049 32.0028 31.9049 31.7608L31.3925 29.3135L33.0916 27.6192C33.1725 27.5386 33.2534 27.3772 33.2534 27.189C33.1725 27.189 33.1725 27.1083 33.1725 27.0276ZM38 18.0453C37.9191 17.8839 37.7573 17.7226 37.5685 17.7226L35.2221 17.2923L34.1164 14.9257C34.0355 14.7643 33.8467 14.603 33.604 14.603C33.4422 14.603 33.1725 14.7643 33.0916 14.9257L31.9858 17.2923L29.6125 17.7226C29.4507 17.7226 29.2889 17.8839 29.2079 18.0453C29.2079 18.126 29.2079 18.126 29.2079 18.2067C29.2079 18.3949 29.2889 18.4756 29.3698 18.6369L31.0688 20.3312L30.5564 22.7785C30.4755 23.0205 30.6373 23.2088 30.7991 23.3701C30.8801 23.4508 31.0688 23.4508 31.1498 23.4508C31.2307 23.4508 31.3116 23.4508 31.3925 23.3701L33.604 22.1062L35.8155 23.3701C35.8964 23.4508 35.9773 23.4508 36.0582 23.4508C36.1391 23.4508 36.3009 23.3701 36.4088 23.3701C36.5706 23.2895 36.6515 23.0205 36.6515 22.7785L36.1391 20.3312L37.8382 18.6369C37.9191 18.5563 38 18.3949 38 18.2067C38 18.126 38 18.126 38 18.0453Z" fill="#7D7D7D"/>
</svg>
