<svg viewBox="0 0 43 47" fill="none" xmlns="http://www.w3.org/2000/svg">
<path fill-rule="evenodd" clip-rule="evenodd" d="M38.0627 10.5321H39.3094C39.6617 10.5321 39.8243 10.0985 39.5804 9.82749L36.6805 6.95475C36.5721 6.79214 36.3011 6.79214 36.1385 6.95475C36.1385 6.95475 36.3011 6.79214 36.1385 6.95475L33.2658 9.82749C32.9947 10.0985 33.2116 10.5321 33.5368 10.5321H34.7563V13.1067V34.6252V40.3165H33.5368C33.2116 40.3165 32.9947 40.7501 33.2658 41.0211L36.1385 43.8938C36.274 44.0564 36.5721 44.0564 36.6805 43.8938L39.5804 41.0211C39.8243 40.7501 39.6617 40.3165 39.3094 40.3165H38.0627V34.6252V13.1067V10.5321Z" fill="#7D7D7D"/>
<path fill-rule="evenodd" clip-rule="evenodd" d="M3.21037 46.4956H41.6129C42.0736 45.8451 41.2064 45.3302 41.6671 44.5714H2.85805C2.77675 45.1676 3.37297 45.6554 3.21037 46.4956Z" fill="#7D7D7D"/>
<path fill-rule="evenodd" clip-rule="evenodd" d="M42.1549 6.3044H0.988052C1.9637 4.2989 0.608634 2.2663 1.17776 0.233704H42.3447C42.9409 2.99804 41.2064 4.16339 42.1549 6.3044Z" fill="#7D7D7D"/>
<path fill-rule="evenodd" clip-rule="evenodd" d="M10.8801 42.4574C9.28111 42.4574 7.98025 41.9154 6.9775 40.8042C5.97475 39.6931 5.45982 38.2567 5.45982 36.4951C5.45982 34.7335 5.97475 33.2972 6.9775 32.186C7.98025 31.102 9.28111 30.5328 10.8801 30.5328C11.7473 30.5328 12.5333 30.6954 13.1837 30.9936C13.8341 31.2917 14.3491 31.644 14.7014 32.1047L13.0482 34.4083C12.5604 33.8392 11.9641 33.5411 11.2866 33.5411C10.582 33.5411 10.0399 33.8121 9.60632 34.3541C9.1727 34.8961 8.95589 35.6008 8.95589 36.4951C8.95589 37.3624 9.1727 38.0941 9.60632 38.6361C10.0399 39.1782 10.582 39.4492 11.2866 39.4492C11.9912 39.4492 12.5604 39.1511 13.0482 38.5548L14.7014 40.9126C14.3491 41.3463 13.8341 41.7257 13.1837 42.0238C12.5333 42.3219 11.7473 42.4574 10.8801 42.4574ZM28.9567 42.1864H25.5961V35.8989L23.3196 42.1864H21.829L19.6067 35.8989V42.1864H16.219V30.831H20.5282L22.5879 36.5493L24.6476 30.831H28.9567V42.1864Z" fill="#7D7D7D"/>
<path fill-rule="evenodd" clip-rule="evenodd" d="M14.5658 28.0666H9.30819V16.3047L6.57096 19.0419L3.61691 15.9795L10.067 9.63774H14.5658V28.0666ZM27.6558 27.0368C26.5175 27.9311 25.1896 28.3919 23.6177 28.3919C22.0458 28.3919 20.7178 27.9311 19.5796 27.0368C18.4684 26.1424 17.6554 24.9771 17.1405 23.5678C16.6255 22.1586 16.3545 20.5867 16.3545 18.8793C16.3545 16.1692 16.9779 13.9198 18.2516 12.104C19.4983 10.2882 21.287 9.36673 23.6177 9.36673C25.9484 9.36673 27.7371 10.2882 28.9837 12.104C30.2575 13.9198 30.8808 16.1692 30.8808 18.8793C30.8808 20.5867 30.6098 22.1586 30.0949 23.5678C29.58 24.9771 28.7669 26.1424 27.6558 27.0368ZM22.1 22.6464C22.3981 23.4052 22.8859 23.7846 23.6177 23.7846C24.3223 23.7846 24.8372 23.4052 25.1354 22.6464C25.4335 21.8604 25.569 20.6138 25.569 18.8793C25.569 17.0906 25.4335 15.8439 25.1354 15.0851C24.8372 14.3534 24.3223 13.974 23.6177 13.974C22.8859 13.974 22.3981 14.3534 22.1 15.0851C21.8019 15.8439 21.6664 17.0906 21.6664 18.8793C21.6664 20.6138 21.8019 21.8604 22.1 22.6464Z" fill="#7D7D7D"/>
</svg>
