<svg viewBox="0 0 35 32" fill="none" xmlns="http://www.w3.org/2000/svg">
<path d="M2.05238 28.8638H4.05004V32H7.19703V28.8638H9.19468L5.63722 24.4518L2.05238 28.8638ZM17.4863 19.5349C13.6005 19.5349 11.3565 18.3654 11.0008 17.8339C11.3565 17.2757 13.5731 16.1063 17.4863 16.1063C21.3995 16.1063 23.6435 17.2757 23.9992 17.8339C23.6435 18.3654 21.3995 19.5349 17.4863 19.5349ZM25.8874 11.1362C25.8874 9.19601 22.1384 7.62791 17.4863 7.62791C12.8616 7.62791 9.11259 9.19601 9.11259 11.1362V17.8339C9.11259 19.7741 12.8616 21.3688 17.4863 21.3688C22.1384 21.3688 25.8874 19.7741 25.8874 17.8339V11.1362ZM7.22439 11.1362C7.22439 7.62791 12.3964 5.79402 17.4863 5.79402C22.6036 5.79402 27.7756 7.62791 27.7756 11.1362V11.9336H35L31.0594 0H3.94058L0 11.9336H7.22439V11.1362ZM25.8053 28.8638H27.803V32H30.95V28.8638H32.9202L29.3628 24.4518L25.8053 28.8638ZM13.9289 28.8638H15.9265V32H19.0735V28.8638H21.0711L17.4863 24.4518L13.9289 28.8638Z" fill="#7D7D7D"/>
</svg>
