<svg viewBox="0 0 31 40" fill="none" xmlns="http://www.w3.org/2000/svg">
<path d="M11.1515 7.20867H19.8219V0H11.1515V7.20867ZM19.315 33.7127H19.4217C18.6213 34.1463 18.6213 34.9594 18.8881 35.6369C19.4217 36.8293 20.969 37.9404 20.4888 39.1328C20.3554 39.458 20.0886 39.7832 19.6618 40C21.5026 40 23.3434 40 25.1842 40C25.6377 39.7832 25.8778 39.4309 26.0112 39.1057C26.4914 37.9133 24.9441 36.8022 24.4372 35.6098C24.1437 34.9594 24.1437 34.1463 24.9707 33.7127H26.5714L22.0628 28.5637L17.5809 33.7127H19.315ZM6.16265 33.7127H6.29604C5.46902 34.1463 5.46902 34.9594 5.76248 35.6369C6.26936 36.8293 7.8167 37.9404 7.33649 39.1328C7.2031 39.458 6.963 39.7832 6.50947 40C8.35026 40 10.191 40 12.0318 40C12.4854 39.7832 12.7255 39.4309 12.8589 39.1057C13.3391 37.9133 11.7917 36.8022 11.2849 35.6098C10.9914 34.9594 10.9914 34.1463 11.8184 33.7127H13.4191L8.9105 28.5637L4.42857 33.7127H6.16265ZM0 25.935H31V21.6802H0V25.935ZM15.5267 19.9458H29.8262L20.1153 8.94309H10.858L1.17384 19.9458H15.5267Z" fill="#7D7D7D"/>
</svg>
