<svg viewBox="0 0 41 30" fill="none" xmlns="http://www.w3.org/2000/svg">
<path d="M14.0228 11.8442H26.9772V8.67502H14.0228V11.8442ZM35.7114 0.107431C33.9485 0.483438 33.628 1.82632 31.3042 1.82632C28.6065 1.82632 28.6065 0 25.9088 0C23.2111 0 23.2111 1.82632 20.4866 1.82632C17.7889 1.82632 17.7889 0 15.0912 0C12.3935 0 12.3935 1.82632 9.69577 1.82632C7.37199 1.82632 7.02476 0.483438 5.26189 0.107431V7.22471H35.7114V0.107431ZM37.8215 22.453V13.966C37.8215 12.0322 37.0202 10.9311 36.3524 10.3133C34.9101 9.05103 32.9336 9.02417 32.1322 9.07789V11.4145C32.6665 11.3608 34.0287 11.3876 34.8033 12.0859C35.284 12.4888 35.4977 13.1065 35.4977 13.966V22.453H32.3192L36.673 30L41 22.453H37.8215ZM5.50228 13.966C5.50228 13.1065 5.71596 12.4888 6.19674 12.0859C6.97134 11.3876 8.33355 11.3608 8.86775 11.4145V9.07789C8.06645 9.02417 6.0899 9.05103 4.64756 10.3133C3.9798 10.9311 3.1785 12.0322 3.1785 13.966V22.453H0L4.32704 30L8.68078 22.453H5.50228V13.966ZM8.86775 17.3769C8.86775 19.2569 10.3902 20.7878 12.2599 20.7878H28.7401C30.6098 20.7878 32.1322 19.2569 32.1322 17.3769V13.2945H8.86775V17.3769Z" fill="#7D7D7D"/>
</svg>
