<svg viewBox="0 0 30 34" fill="none" xmlns="http://www.w3.org/2000/svg">
<path fill-rule="evenodd" clip-rule="evenodd" d="M23.1993 23.9632C23.1993 25.6496 20.2925 27.0096 16.7002 27.0096C13.2176 27.0096 10.3656 25.704 10.2285 24.072C7.78793 24.0448 5.81353 22.6576 5.81353 20.944C5.81353 19.2032 7.84278 17.7888 10.3108 17.7888H10.4205C11.0238 16.456 13.0256 15.4768 15.3839 15.4768C18.2358 15.4768 20.5393 16.8912 20.5393 18.632C20.5393 18.8768 20.4845 19.0944 20.4022 19.3392C20.8135 19.2848 21.1974 19.2576 21.6362 19.2576C24.1316 19.2576 26.1335 20.2096 26.1335 21.4064C26.1335 22.3312 24.8446 23.12 23.0896 23.4192C23.1444 23.6096 23.1993 23.7728 23.1993 23.9632ZM2.16636 6.3648H27.8611C29.0402 6.3648 30 5.4128 30 4.2432C30 3.0736 29.0402 2.1216 27.8611 2.1216H19.2779C19.2779 0.952 18.3181 0 17.1389 0H12.8611C11.6819 0 10.7221 0.952 10.7221 2.1216H2.16636C0.959781 2.1216 0 3.0736 0 4.2432C0 5.4128 0.959781 6.3648 2.16636 6.3648ZM10.6947 28.2064C10.6947 28.8592 9.59781 29.4032 8.25411 29.4032C6.91042 29.4032 5.81353 28.8592 5.81353 28.2064C5.81353 27.5264 6.91042 27.0096 8.25411 27.0096C9.59781 27.0096 10.6947 27.5264 10.6947 28.2064ZM26.7367 14.1168C26.7367 15.0144 25.2559 15.7488 23.4461 15.7488C21.6362 15.7488 20.1554 15.0144 20.1554 14.1168C20.1554 13.2464 21.6362 12.512 23.4461 12.512C25.2559 12.512 26.7367 13.2464 26.7367 14.1168ZM23.5832 8.4864H6.44424C3.3181 8.4864 0.822669 10.9888 0.822669 14.0624L2.16636 28.3968C2.16636 31.4976 4.66179 34 7.78793 34H22.2395C25.3382 34 27.8611 31.4976 27.8611 28.3968L29.2048 14.0624C29.2048 10.9888 26.6819 8.4864 23.5832 8.4864Z" fill="#7D7D7D"/>
</svg>
