<svg viewBox="0 0 35 36" fill="none" xmlns="http://www.w3.org/2000/svg">
<path fill-rule="evenodd" clip-rule="evenodd" d="M21.7204 29.0896C21.2634 29.8636 20.8871 29.753 20.8871 28.8685V25.1369H17.3118C16.4247 25.1369 16.0753 24.6946 16.5323 23.9483L20.0538 18.1159C20.5108 17.3696 20.8871 17.4525 20.8871 18.337V22.0963L24.4624 22.0686C25.3495 22.0686 25.7258 22.7044 25.2419 23.4507L21.7204 29.0896ZM22.4194 6.03652C23.1183 6.23001 23.7097 5.81538 23.871 5.12434C24.0591 4.4333 23.7634 3.79755 23.0376 3.60406L21.9086 3.3L21.2903 5.73246L22.4194 6.03652ZM28.4409 16.3745C27.7688 15.8493 27.0161 15.407 26.2366 15.02C24.3011 14.0526 22.0699 13.4997 19.6774 13.4997C17.2849 13.4997 15.0538 14.0526 13.1183 15.02C12.3387 15.407 11.586 15.8493 10.914 16.3745V14.0526C11.586 13.5274 12.3387 13.0851 13.1183 12.6981C14.5161 12.0071 16.0484 11.5372 17.7151 11.3161C18.0645 11.5925 18.4677 11.8412 18.8979 12.0347C20.672 12.864 22.6344 12.7534 24.2473 11.8965C24.9462 12.1177 25.5914 12.3664 26.2366 12.6981C27.0161 13.0851 27.7688 13.5274 28.4409 14.0526V16.3745ZM18.1452 8.71775C17.7151 8.60718 17.5269 8.27549 17.6344 7.86086C17.7419 7.44624 18.0914 7.2251 18.4946 7.33567L19.0323 7.50152L20.4032 2.19433C20.5376 1.66914 20.9409 1.39273 21.5054 1.55858L23.4677 2.08377C25.1075 2.55368 26.0484 3.99104 25.6183 5.62189C25.1882 7.30803 23.6559 7.99907 22.1237 7.58444L20.8871 7.2251L20.6989 7.94379L23.2527 8.66247C23.6828 8.77303 23.871 9.13237 23.7634 9.547C23.6559 9.96162 23.3065 10.1551 22.9032 10.0445L20.3226 9.32586V9.38115C20.1613 9.96162 19.7312 10.1828 19.2473 10.0445C18.7634 9.90634 18.4946 9.49171 18.6559 8.91124V8.8836L18.1452 8.71775ZM6.9086 24.3076C6.9086 25.4409 6.39785 26.3531 5.80645 26.3531C5.21505 26.3531 4.7043 25.4409 4.7043 24.3076C4.7043 23.1467 5.21505 22.2345 5.80645 22.2345C6.39785 22.2345 6.9086 23.1467 6.9086 24.3076ZM3.25269 23.6442C3.25269 24.7775 2.76882 25.7173 2.15054 25.7173C1.55914 25.7173 1.07527 24.7775 1.07527 23.6442C1.07527 22.5109 1.55914 21.5987 2.15054 21.5987C2.76882 21.5987 3.25269 22.5109 3.25269 23.6442ZM26.6935 9.51936C26.8011 9.32586 26.9086 9.13237 27.0161 8.91124C28.414 5.73246 27.043 2.00084 23.9516 0.563481C20.8871 -0.873882 17.2581 0.535839 15.8602 3.68698C15.1613 5.26255 15.1344 7.00397 15.6989 8.49662C13.8979 8.93888 12.2312 9.62992 10.7527 10.5421C9.73118 9.18766 8.25269 8.60718 7.31183 9.27058C6.29032 9.96162 6.29032 11.7583 7.31183 13.3339L7.39247 13.4445C6.23656 14.7713 5.34946 16.3192 4.86559 18.0053H4.35484C1.93548 18.0053 0 20.5207 0 23.6166C0 26.7401 1.93548 29.2555 4.35484 29.2555H7.31183C8.33333 30.444 9.56989 31.4944 10.9946 32.3513C11.2634 34.4244 12.6075 36 14.2204 36H16.3979C17.3118 36 18.1183 35.5025 18.7097 34.6732C19.0323 34.7008 19.3548 34.7008 19.6774 34.7008C20.6989 34.7008 21.6935 34.6179 22.6613 34.4521C23.2796 35.3919 24.1667 36 25.1344 36H27.3387C29.1398 36 30.6183 33.9822 30.6183 31.4944C30.6183 31.2456 30.5914 30.9969 30.5645 30.7481C33.3065 28.3433 35 25.0263 35 21.3776C35 16.2086 31.6129 11.7307 26.6935 9.51936Z" fill="#7D7D7D"/>
</svg>
