<svg viewBox="0 0 43 26" fill="none" xmlns="http://www.w3.org/2000/svg">
<path d="M13.915 0.159306L31.1313 16.9129H35.1148L35.0876 14.0454C35.0876 13.8596 35.1967 13.7003 35.3331 13.5941C35.5241 13.5144 35.7151 13.5144 35.8788 13.5941L42.6999 19.3025C42.8909 19.4087 43 19.568 43 19.7539C43 19.9398 42.8909 20.1256 42.6999 20.2318L35.8788 25.9403C35.7151 26.0199 35.5241 26.0199 35.3331 25.9403C35.1967 25.8341 35.0876 25.6482 35.0876 25.4889L35.1148 22.6214H28.703C25.6745 19.7008 14.3242 8.6556 11.323 5.70845H1.09137V5.6819L4.5019 2.84095L1.11865 0H13.533C13.6694 0 13.8058 0.0531019 13.915 0.159306ZM28.8122 0.159306L22.2094 6.58463L26.3566 10.6469L31.4042 5.70845H41.6358V5.6819L38.2253 2.84095L41.6085 0H29.1942C29.0577 0 28.9213 0.0531019 28.8122 0.159306ZM16.3706 12.2665L11.5958 16.9129H7.88515L7.91244 14.0454C7.91244 13.8596 7.8033 13.7003 7.66688 13.5941C7.47589 13.5144 7.2849 13.5144 7.12119 13.5941L0.300127 19.3025C0.109137 19.4087 0 19.568 0 19.7539C0 19.9398 0.109137 20.1256 0.300127 20.2318L7.12119 25.9403C7.2849 26.0199 7.47589 26.0199 7.66688 25.9403C7.8033 25.8341 7.91244 25.6482 7.91244 25.4889L7.88515 22.6214H14.0241L20.5451 16.3023L16.3706 12.2665Z" fill="#7D7D7D"/>
</svg>
