<svg viewBox="0 0 53 34" fill="none" xmlns="http://www.w3.org/2000/svg">
<path fill-rule="evenodd" clip-rule="evenodd" d="M9 34V0H11V34H9Z" fill="#7D7D7D"/>
<path fill-rule="evenodd" clip-rule="evenodd" d="M42 34V0H44V34H42Z" fill="#7D7D7D"/>
<path fill-rule="evenodd" clip-rule="evenodd" d="M19.5363 33C17.9031 33 16.5744 32.5 15.5502 31.475C14.526 30.45 14 29.125 14 27.5C14 25.875 14.526 24.55 15.5502 23.55C16.5744 22.525 17.9031 22 19.5363 22C20.4221 22 21.2249 22.15 21.8893 22.425C22.5536 22.7 23.0796 23.025 23.4118 23.45L21.7509 25.6C21.2526 25.05 20.6436 24.775 19.9516 24.775C19.2318 24.775 18.6782 25.025 18.2353 25.525C17.7924 26.025 17.5709 26.7 17.5709 27.5C17.5709 28.3 17.7924 28.975 18.2353 29.475C18.6782 29.975 19.2318 30.225 19.9516 30.225C20.6713 30.225 21.2526 29.95 21.7509 29.4L23.4118 31.575C23.0796 31.975 22.5536 32.325 21.8893 32.6C21.2249 32.875 20.4221 33 19.5363 33ZM38 32.75H34.5675V26.95L32.2422 32.75H30.7197L28.4498 26.95V32.75H24.9896V22.275H29.391L31.4948 27.575L33.5986 22.275H38V32.75Z" fill="#7D7D7D"/>
<path fill-rule="evenodd" clip-rule="evenodd" d="M19.5972 20C17.4071 20 15.7511 19.1068 14.656 17.3476C13.5342 15.6154 13 13.3148 13 10.5C13 7.57692 13.641 5.24929 14.9765 3.54416C16.312 1.83903 18.0748 1 20.2917 1C22.1079 1 23.6036 1.56838 24.7254 2.75926L22.375 6.33191C21.8408 5.65527 21.1998 5.30342 20.3985 5.30342C19.7041 5.30342 19.1165 5.65527 18.609 6.41311C18.1015 7.14387 17.8344 8.1453 17.8344 9.33618V9.49858C18.1015 8.849 18.5288 8.36182 19.1165 8.00997C19.7041 7.63105 20.3451 7.4416 21.0395 7.4416C22.2682 7.4416 23.3098 7.98291 24.1378 9.06553C24.9925 10.1481 25.3932 11.6368 25.3932 13.5043C25.3932 15.453 24.859 17.0228 23.7372 18.2137C22.6421 19.4046 21.2532 20 19.5972 20ZM19.3034 15.6966C19.7041 15.6966 20.0246 15.4801 20.2382 15.0741C20.4786 14.6681 20.5855 14.208 20.5855 13.6937C20.5855 12.963 20.4519 12.4217 20.1848 12.0969C19.891 11.745 19.5972 11.5826 19.2233 11.5826C18.6624 11.5826 18.1816 11.9886 17.8077 12.7735C17.9145 14.7222 18.422 15.6966 19.3034 15.6966ZM31.7767 20C30.4412 20 29.266 19.5399 28.3045 18.6467C27.3429 17.7536 26.6485 16.6168 26.1944 15.2094C25.7404 13.802 25.5 12.2322 25.5 10.4729C25.5 8.74074 25.7404 7.14387 26.1944 5.73647C26.6485 4.35613 27.3429 3.19231 28.3045 2.32621C29.266 1.43305 30.4412 1 31.7767 1C33.1122 1 34.2607 1.43305 35.2222 2.32621C36.1838 3.19231 36.9049 4.35613 37.3323 5.73647C37.7863 7.14387 38 8.74074 38 10.4729C38 13.1795 37.4658 15.453 36.3707 17.2664C35.2756 19.0798 33.7532 20 31.7767 20ZM31.7767 15.6966C32.3109 15.6966 32.6581 15.3177 32.8451 14.5598C33.0053 13.802 33.1122 12.4487 33.1122 10.4729C33.1122 8.49715 33.0053 7.14387 32.8451 6.38604C32.6581 5.65527 32.3109 5.30342 31.7767 5.30342C31.2158 5.30342 30.8686 5.65527 30.6816 6.38604C30.4947 7.14387 30.4145 8.49715 30.4145 10.4729C30.4145 12.4758 30.4947 13.8291 30.6816 14.5869C30.8686 15.3177 31.2158 15.6966 31.7767 15.6966Z" fill="#7D7D7D"/>
<path fill-rule="evenodd" clip-rule="evenodd" d="M4.44878 18.5163V19.6297C4.44878 19.9761 4.86504 20.1246 5.09919 19.8771L7.88293 17.2297C8.03902 17.1307 8.03902 16.908 7.88293 16.7595C7.88293 16.7595 8.03902 16.908 7.88293 16.7595L5.09919 14.1121C4.86504 13.8646 4.44878 14.0626 4.44878 14.3595V15.4729H1.95122H0V18.5163H1.95122H4.44878Z" fill="#7D7D7D"/>
<path fill-rule="evenodd" clip-rule="evenodd" d="M47.9951 18.5163V19.6297C47.9951 19.9761 47.5561 20.1246 47.2634 19.8771L44.1317 17.2297C43.9561 17.1307 43.9561 16.908 44.1317 16.7595C44.1317 16.7595 43.9561 16.908 44.1317 16.7595L47.2634 14.1121C47.5561 13.8646 47.9951 14.0626 47.9951 14.3595V15.4729H50.8049H53V18.5163H50.8049H47.9951Z" fill="#7D7D7D"/>
</svg>
