<svg width="72" height="72" viewBox="0 0 72 72" fill="none" xmlns="http://www.w3.org/2000/svg"><path d="M56.188 41.938a1.188 1.188 0 0 0 1.187-1.188v-1.188a1.188 1.188 0 0 0-2.375 0v1.188a1.188 1.188 0 0 0 1.188 1.188zm-4.75 0a1.188 1.188 0 0 0 1.187-1.188v-1.188a1.188 1.188 0 0 0-2.375 0v1.188a1.188 1.188 0 0 0 1.188 1.188zm3.91 2.722a2.174 2.174 0 0 1-3.071 0 1.188 1.188 0 0 0-1.68 1.68 4.55 4.55 0 0 0 6.43 0 1.188 1.188 0 0 0-1.68-1.68z" fill="#fff"/><path d="M63.312 53.813H59.75a1.187 1.187 0 0 1-1.188-1.188v-1.496a8.324 8.324 0 0 0 3.563-6.816 3.573 3.573 0 0 0 3.562-3.563v-1.188a3.544 3.544 0 0 0-1.187-2.636V31.25a5.937 5.937 0 0 0-5.938-5.938V23.46l1.865.997a4.116 4.116 0 0 0 4.25.202 4.17 4.17 0 0 0 .238-7.208L34.195.517a1.211 1.211 0 0 0-1.14 0L2.25 17.5a4.174 4.174 0 0 0 2.316 7.66 3.846 3.846 0 0 0 2.16-.642l1.96-1.057v24.415H6.894a3.563 3.563 0 0 0-3.48 4.334L7.12 68.834a3.534 3.534 0 0 0 3.467 2.791h59.85a1.188 1.188 0 0 0 1.188-1.188v-8.312a8.322 8.322 0 0 0-8.313-8.313zm-4.132 2.315a7.135 7.135 0 0 1-10.735 0 3.55 3.55 0 0 0 2.992-3.503v-.344c1.55.459 3.2.459 4.75 0v.344a3.55 3.55 0 0 0 2.993 3.503zm.57-11.816a5.938 5.938 0 0 1-11.875 0L47.97 36a6.044 6.044 0 0 0 2.695-.641l.772-.404.689.368a6.06 6.06 0 0 0 2.755.677h4.869v8.313zm3.562-4.75v1.188a1.188 1.188 0 0 1-1.187 1.188v-3.563a1.188 1.188 0 0 1 1.187 1.188zm-1.187-8.312V36a2.382 2.382 0 0 0-2.375-2.375h-4.87a3.643 3.643 0 0 1-1.65-.404l-1.236-.653a1.188 1.188 0 0 0-1.092 0l-1.318.665a3.597 3.597 0 0 1-1.71.392A2.382 2.382 0 0 0 45.5 36v-4.75a2.382 2.382 0 0 1 2.375-2.375h1.187a1.188 1.188 0 0 1 1.188 1.188 1.188 1.188 0 0 0 2.375 0v-1.188a1.188 1.188 0 0 1 1.187-1.188h4.75a3.573 3.573 0 0 1 3.563 3.563zM5.517 22.486A1.782 1.782 0 0 1 2.75 20.99a1.758 1.758 0 0 1 .724-1.449l30.15-16.625 30.068 16.578a1.794 1.794 0 0 1-.13 3.075 1.86 1.86 0 0 1-1.924-.142L34.183 7.643a1.164 1.164 0 0 0-1.116 0L5.517 22.486zm5.07 46.764a1.17 1.17 0 0 1-1.152-.926L5.742 51.699a1.188 1.188 0 0 1 .226-1.01 1.213 1.213 0 0 1 .926-.439h26.018a1.17 1.17 0 0 1 1.152.926l4.014 18.074h-27.49zm27.206-12.231l-1.413-6.353a3.535 3.535 0 0 0-3.468-2.791h-21.85V22.759a1.237 1.237 0 0 0-.118-.51l22.68-12.208 22.563 12.136v3.136h-2.375a3.563 3.563 0 0 0-3.004 1.65 3.484 3.484 0 0 0-1.746-.463h-1.187a4.75 4.75 0 0 0-4.75 4.75v5.676a3.546 3.546 0 0 0-1.188 2.636v1.188a3.573 3.573 0 0 0 3.563 3.563 8.326 8.326 0 0 0 3.562 6.816v1.496a1.188 1.188 0 0 1-1.187 1.188h-3.563a8.361 8.361 0 0 0-6.52 3.206zM45.5 38.375v3.563a1.187 1.187 0 0 1-1.188-1.188v-1.188a1.188 1.188 0 0 1 1.188-1.187zm4.75 30.875h-9.738l-.522-2.375h12.635a2.382 2.382 0 0 1-2.375 2.375zm19 0H64.5v-5.938a1.188 1.188 0 0 0-2.375 0v5.938h-7.79A4.639 4.639 0 0 0 55 66.875v-1.188a1.188 1.188 0 0 0-1.188-1.187H39.455l-.866-3.907a5.962 5.962 0 0 1 5.723-4.406h1.306a9.443 9.443 0 0 0 16.388 0h1.306a5.937 5.937 0 0 1 5.938 5.938v7.125z" fill="#fff"/><path d="M21.75 63.313a3.562 3.562 0 1 1 0-7.124 3.562 3.562 0 0 1 0 7.123zm0-4.75a1.188 1.188 0 1 0 0 2.376 1.188 1.188 0 0 0 0-2.377zM17 40.75h6.706l5.581 4.488c.21.168.47.26.74.262a1.188 1.188 0 0 0 1.187-1.178l.027-3.572H36a3.563 3.563 0 0 0 3.563-3.563V25.313A3.563 3.563 0 0 0 36 21.75H17a3.563 3.563 0 0 0-3.563 3.563v11.875A3.563 3.563 0 0 0 17 40.75zm-1.188-15.438A1.188 1.188 0 0 1 17 24.125h19a1.188 1.188 0 0 1 1.188 1.188v11.875A1.188 1.188 0 0 1 36 38.374h-5.938a1.188 1.188 0 0 0-1.187 1.178l-.018 2.294-3.987-3.206a1.188 1.188 0 0 0-.745-.266H17a1.188 1.188 0 0 1-1.188-1.188V25.313z" fill="#fff"/><path d="M19.375 28.875h1.188a1.188 1.188 0 0 0 0-2.375h-1.188a1.188 1.188 0 0 0 0 2.375zm4.75 0h9.5a1.188 1.188 0 0 0 0-2.375h-9.5a1.188 1.188 0 0 0 0 2.375zm0 3.563h9.5a1.188 1.188 0 0 0 0-2.376h-9.5a1.188 1.188 0 0 0 0 2.375zm-4.75 0h1.188a1.188 1.188 0 0 0 0-2.376h-1.188a1.188 1.188 0 0 0 0 2.375zm0 3.562h1.188a1.188 1.188 0 0 0 0-2.375h-1.188a1.188 1.188 0 0 0 0 2.375zm4.75 0h9.5a1.188 1.188 0 0 0 0-2.375h-9.5a1.188 1.188 0 0 0 0 2.375z" fill="#fff"/></svg>