<svg width="76" height="76" viewBox="0 0 76 76" fill="none" xmlns="http://www.w3.org/2000/svg"><path d="M16.893 36.665a1.484 1.484 0 0 0-1.032 2.552c1.941 1.875 5.1 1.875 7.04 0a1.484 1.484 0 1 0-2.063-2.135 2.115 2.115 0 0 1-2.914 0 1.478 1.478 0 0 0-1.031-.417z" fill="#fff"/><path d="M75.956 44.739a1.484 1.484 0 0 0-.975-1.767c-3.516-1.161-7.708-3.78-7.708-9.66v-3.114c0-4.802-1.1-8.56-3.27-11.17-2.099-2.524-5.15-3.86-8.826-3.86-3.52 0-6.516 1.33-8.664 3.846-2.245 2.63-3.431 6.497-3.431 11.184v3.113c0 3.257-1.28 5.845-3.804 7.701a9.482 9.482 0 0 0-1.861-.184c-4.06 0-7.534 2.56-8.889 6.15-.396-.11-2.473-.67-3.086-.85v-.987c3.966-2.157 6.664-6.362 6.664-11.186V28.06c0-7.018-5.707-12.727-12.723-12.727-7.017 0-12.727 5.71-12.727 12.727v5.895c0 4.823 2.698 9.027 6.665 11.185v.988c-.613.18-1.25.352-1.91.53C6.385 48.014.127 49.7 0 57.373v13.009c0 .819.665 1.484 1.484 1.484h20.072v2.121c0 .82.664 1.485 1.484 1.485h7.704a1.484 1.484 0 1 0 0-2.969h-6.22v-.89c.018-1.086.162-1.976.42-2.716.934-2.675 3.35-3.387 6.642-4.358l.467-.138a5.592 5.592 0 0 0 5.246 3.674c2.608 0 4.71-1.487 5.489-3.67l.456.134c4.2 1.24 6.977 2.057 7.061 7.075v.889h-6.231a1.484 1.484 0 1 0 0 2.969h7.716c.82 0 1.485-.665 1.485-1.485l-.001-.01v-2.111h19.802c.82 0 1.485-.665 1.485-1.485V57.372c-.052-3.109-1.11-5.235-2.684-6.754 2.137-1.002 3.314-2.79 4.08-5.88zM55.177 18.138c2.804 0 5.005.938 6.544 2.789 1.544 1.857 2.4 4.574 2.555 8.083-2.749.477-5.985.092-7.774-3.446-.538-1.062-2.111-1.064-2.65 0-1.788 3.537-5.022 3.923-7.77 3.447.343-6.834 3.687-10.873 9.095-10.873zm-9.127 13.87a13.37 13.37 0 0 0 1.842.133c2.993 0 5.504-1.105 7.285-3.218 1.782 2.114 4.293 3.218 7.286 3.218.595 0 1.21-.045 1.842-.133v1.303c0 5.032-4.095 9.127-9.128 9.127-5.032 0-9.127-4.095-9.127-9.127v-1.303zm12.22 12.996v2.217a3.095 3.095 0 0 1-3.093 3.09 3.093 3.093 0 0 1-3.089-3.09v-2.216a12.057 12.057 0 0 0 6.183-.001zm-13.617-5.742a12.192 12.192 0 0 0 4.466 4.512v2.353c-.617.181-1.257.354-1.92.532l-.926.252a9.571 9.571 0 0 0-3.87-4.662 11.79 11.79 0 0 0 2.25-2.987zM31.366 47.87a6.54 6.54 0 0 1 6.05-4.075c3.175 0 5.826 2.285 6.41 5.302a14.891 14.891 0 0 0-6.41-1.453c-2.233 0-4.434.506-6.412 1.454.081-.425.203-.836.362-1.228zM9.626 28.06c0-5.382 4.377-9.76 9.757-9.76 5.379 0 9.755 4.378 9.755 9.76v1.535c-3.903.13-8.82-.334-12.446-2.815a1.485 1.485 0 0 0-2.02.325c-1.255 1.65-2.831 2.059-5.047 2.322V28.06zm0 5.894v-1.539c2.387-.267 4.635-.703 6.502-2.492 4.062 2.3 9.024 2.764 13.01 2.642v1.39c0 5.378-4.376 9.754-9.755 9.754-5.38 0-9.758-4.376-9.758-9.755zm12.847 12.342v.925a3.093 3.093 0 0 1-3.09 3.09 3.095 3.095 0 0 1-3.093-3.09v-.926a12.709 12.709 0 0 0 6.183 0zm9.244 15.106c-.326.099-.65.195-.971.289-3.664 1.08-7.749 2.284-8.884 7.205h-10.95V62.89a1.484 1.484 0 0 0-2.968 0v6.006H2.969V57.41c.089-5.061 3.541-6.356 9.215-7.884.478-.13.963-.261 1.446-.398a6.071 6.071 0 0 0 5.753 4.153 6.067 6.067 0 0 0 5.75-4.153c.483.137 2.362.647 2.795.77-.007.143-.01.287-.01.43v2.1c0 3.1 1.493 5.86 3.799 7.593v1.383zm8.428 1.084v.005c0 1.796-1.475 2.614-2.846 2.614a2.617 2.617 0 0 1-2.614-2.614v-.966c.36.108.73.197 1.11.26a9.414 9.414 0 0 0 2.968.044 9.131 9.131 0 0 0 1.382-.303v.96zm.79-4.56c-1.996 1.33-4.99 1.397-6.985.032a6.53 6.53 0 0 1-3.059-5.388c3.887-2.59 9.162-2.59 13.052 0a6.532 6.532 0 0 1-3.008 5.357zm30.657 10.97h-4.975V62.89a1.484 1.484 0 1 0-2.969 0v6.006h-10.68c-1.137-4.92-5.22-6.125-8.884-7.205-.32-.094-.645-.19-.97-.29v-1.377a9.493 9.493 0 0 0 3.803-7.599v-2.073c0-.18-.006-.358-.016-.535.358-.099.717-.196 1.07-.291.482-.13.97-.262 1.457-.4a6.067 6.067 0 0 0 5.75 4.153 6.071 6.071 0 0 0 5.752-4.152c.483.136.969.267 1.447.396 5.673 1.53 9.126 2.824 9.215 7.885v11.488zm-2.924-20.404c-1.773-.826-3.724-1.352-5.519-1.835-.66-.178-1.296-.35-1.91-.53v-2.355a12.19 12.19 0 0 0 4.455-4.497c1.687 3.198 4.606 5.013 7.015 6.016-.711 2.066-1.712 2.808-4.04 3.2z" fill="#fff"/><path d="M37.072 19.35a1.48 1.48 0 0 0 2.062 0l7.855-7.582a6.548 6.548 0 0 0 .168-9.25A6.499 6.499 0 0 0 42.567.53a6.484 6.484 0 0 0-4.464 1.647A6.487 6.487 0 0 0 33.64.53a6.502 6.502 0 0 0-4.593 1.992c-2.499 2.598-2.423 6.746.17 9.246l7.855 7.582zM31.185 4.581a3.55 3.55 0 0 1 2.508-1.084h.066c.934 0 1.81.35 2.476.994l.837.808a1.484 1.484 0 0 0 2.062 0l.838-.808a3.536 3.536 0 0 1 2.542-.994A3.549 3.549 0 0 1 45.02 4.58a3.576 3.576 0 0 1-.093 5.05l-6.825 6.587-6.825-6.587a3.578 3.578 0 0 1-.093-5.05zm6.224 67.922a1.484 1.484 0 0 0 0 2.969h.008c.82 0 1.48-.665 1.48-1.485 0-.82-.668-1.484-1.488-1.484z" fill="#fff"/></svg>