<svg width="48" height="76" viewBox="0 0 48 76" fill="none" xmlns="http://www.w3.org/2000/svg"><path d="M39.883 69.32a1.484 1.484 0 1 0 0-2.969 1.484 1.484 0 0 0 0 2.97z" fill="#fff"/><path d="M43.12 63.747c.727.377 1.623.09 2-.638a23.776 23.776 0 0 0 2.63-10.859c0-11.49-8.175-21.059-18.982-23.269a23.813 23.813 0 0 0-3.284-.433v-9.251a2.972 2.972 0 0 1 2.97-2.969c8.184 0 14.843-6.659 14.843-14.844 0-.82-.665-1.484-1.484-1.484h-4.454C31.491 0 26.408 3.423 24 8.377 21.592 3.423 16.509 0 10.64 0H6.188c-.82 0-1.484.665-1.484 1.484 0 8.185 6.659 14.844 14.844 14.844a2.972 2.972 0 0 1 2.969 2.969v9.251C9.888 29.334.25 39.842.25 52.25.25 65.346 10.904 76 24 76a23.75 23.75 0 0 0 11.255-2.84 1.485 1.485 0 0 0-1.41-2.612 20.766 20.766 0 0 1-8.94 2.46 1.48 1.48 0 0 0 .78-1.095c.35-2.363 1.348-3.232 2.857-4.547 1.008-.878 2.15-1.873 3.274-3.456a7.852 7.852 0 0 0 1.34-5.952l-.559-3.165a1.484 1.484 0 0 0-1.719-1.204l-2.792.492a4.305 4.305 0 0 1-4.227-1.684c-2.007-2.707-5.512-3.655-8.594-2.42l-.026-.018c-1.109-.732-1.74-1.78-1.778-2.949a3.782 3.782 0 0 1 .633-2.183c.149.27.393.527.809.667.52.174 1.088.046 1.482-.32.636-.59.484-1.31.369-1.768-.047-.609-.461-1.37.124-2.205a1.72 1.72 0 0 1 1.116-.712l1.91-.336c2.039-.36 6.677-5.136 9.132-8.065 2.926.73 5.648 2.09 8 3.99-3.805 2.233-3.69 2.104-3.929 2.342a4.734 4.734 0 0 0-1.389 3.322v1.882c0 2.591 2.12 4.698 4.71 4.698.954 0 1.73.776 1.73 1.728 0 .717.51 1.33 1.215 1.46l5.404.994a20.496 20.496 0 0 1-2.297 9.244 1.485 1.485 0 0 0 .64 2zM19.546 13.36c-6.045 0-11.05-4.54-11.783-10.39h2.877c6.313 0 11.491 4.951 11.854 11.176a5.902 5.902 0 0 0-2.948-.786zM37.359 2.967h2.877c-.733 5.85-5.738 10.392-11.783 10.392-1.072 0-2.08.286-2.948.786.363-6.225 5.541-11.178 11.854-11.178zm-15.884 51.2a7.258 7.258 0 0 0 7.127 2.837l1.33-.234.3 1.703a4.905 4.905 0 0 1-.837 3.718c-.92 1.296-1.877 2.13-2.803 2.937-1.008.878-2.037 1.775-2.799 3.137-1.012-1.338-1.69-1.633-2.127-1.945-.039-.075-.147-.34-.292-1.16a5.862 5.862 0 0 0-2.43-3.815l-1.006-.704a5.904 5.904 0 0 0-.168-6.805l-.934-1.26a4.315 4.315 0 0 1 4.64 1.59zm-6.089 1.438a2.939 2.939 0 0 1 .048 3.439l-.777 1.109a1.485 1.485 0 0 0 .363 2.068l2.222 1.556a2.914 2.914 0 0 1 1.208 1.898c.365 2.064.83 2.653 1.802 3.266.315.199.641.404 1.196 1.144l1.513 2.402c.15.238.362.42.604.539-11.26-.233-20.346-9.463-20.346-20.776 0-1.48.16-2.957.472-4.398a4.694 4.694 0 0 0 1.88 1.496l7.67 3.365 2.145 2.892zm3.955-18.367l-1.862.327a4.669 4.669 0 0 0-3.032 1.933 4.69 4.69 0 0 0-.732 1.642 2.092 2.092 0 0 0-.408.243c-1.833 1.388-2.884 3.528-2.813 5.723.014.419.069.83.162 1.23L6.764 46.63c-.804-.352-1.226-1.24-.961-2.02.29-.856.336-1.769.14-2.636C9.653 35.48 16.516 31.47 24 31.47c.533 0 1.067.02 1.598.061-2.603 2.904-5.426 5.39-6.257 5.708zm17.088 8.116a1.742 1.742 0 0 1-1.742-1.73v-1.882c0-.4.155-.793.408-1.1l4.202-2.444a20.692 20.692 0 0 1 5.294 11.253l-3.638-.67a4.706 4.706 0 0 0-4.524-3.427z" fill="#fff"/></svg>