<svg width="28" height="28" viewBox="0 0 28 28" fill="none" xmlns="http://www.w3.org/2000/svg"><g clip-path="url(#a)"><path d="M26.33 2.579A5.672 5.672 0 0 0 22.293.906a5.672 5.672 0 0 0-4.037 1.673L1.294 19.54a4.431 4.431 0 0 0 0 6.26 4.412 4.412 0 0 0 3.13 1.294 4.412 4.412 0 0 0 3.13-1.295l13.358-13.358a3.143 3.143 0 0 0 0-4.44 3.143 3.143 0 0 0-4.44 0L7.89 16.583a.67.67 0 0 0 .949.95L17.42 8.95a1.8 1.8 0 0 1 2.542 0 1.8 1.8 0 0 1 0 2.542L6.605 24.851a3.088 3.088 0 0 1-4.362 0 3.064 3.064 0 0 1-.904-2.181c0-.824.321-1.599.904-2.181L19.204 3.527a4.34 4.34 0 0 1 3.089-1.28 4.34 4.34 0 0 1 3.088 1.28 4.373 4.373 0 0 1 0 6.178L13.196 21.89a.67.67 0 1 0 .95.948L26.33 10.653a5.716 5.716 0 0 0 0-8.074z" fill="#555"/></g><defs><clipPath id="a"><path fill="#fff" d="M0 0h28v28H0z"/></clipPath></defs></svg>