<svg width="42" height="42" viewBox="0 0 42 42" fill="none" xmlns="http://www.w3.org/2000/svg"><path d="M39.032 30.844l2.265-5.662-1.22-.488-2.459 6.15h-.212v-7.875h-1.312v-10.5h-2.625V9.844h-1.313v2.625h-1.312V8.53H29.53v3.938h-1.31V9.844h-1.313v2.625h-2.625v7.875h-2.625v3.366a11.659 11.659 0 0 0-6.054-3.917l-.298-.893a3.284 3.284 0 0 0 2.136-1.837h.279a2.628 2.628 0 0 0 2.625-2.625v-3.282c.724 0 1.312-.588 1.312-1.312V8.53c0-.724-.588-1.312-1.312-1.312h-.114A7.825 7.825 0 0 0 12.469.656 7.825 7.825 0 0 0 4.708 7.22h-.114c-.724 0-1.313.588-1.313 1.312v1.313c0 .724.589 1.312 1.313 1.312v3.281a2.628 2.628 0 0 0 2.625 2.626h.278A3.284 3.284 0 0 0 9.633 18.9l-.298.893A11.608 11.608 0 0 0 .656 31.068v.432c0 2.798 1.604 5.224 3.938 6.422v3.422H24.28v-5.25h2.035a3.287 3.287 0 0 0 3.215 2.625c1.585 0 2.91-1.13 3.215-2.625h3.294a5.352 5.352 0 0 0 5.295-4.486l.127-.764h-2.43zm-8.188 0V24.28h5.25v6.563h-5.25zm-5.25-17.063h9.187v9.188h-3.937v-2.625h-5.25V13.78zm3.937 7.875v9.188H22.97v-9.188h6.562zm-7.875 4.381v4.807h-.212l-2.46-6.15-1.219.487 2.266 5.663H17.6l.127.764a5.356 5.356 0 0 0 1.303 2.707v5.716h-3.28V38.72a1.971 1.971 0 0 0 1.969-1.969 1.971 1.971 0 0 0-1.969-1.969V21.215a10.344 10.344 0 0 1 5.906 4.822zm-7.692-7.006l.405 1.216-1.9 2.851-1.901-2.851.405-1.216h2.991zm.473 6.66l-1.156-1.445 1.156-1.735v3.18zm-3.937 0v-3.18l1.156 1.735-1.156 1.446zm0 2.101l1.969-2.46 1.969 2.46v5.792a1.964 1.964 0 0 0-.657-.115h-.768c-.526 0-1.02.204-1.393.577l-.673.673-.447-.1v-6.827zm1.313 7.917l.735-.736a.653.653 0 0 1 .465-.192h.768c.362 0 .656.295.656.657v.656h1.313a.657.657 0 0 1 0 1.312h-3.938V35.71zm2.624 3.01v1.312H10.5V38.72h3.938zM17.72 15.75v-2.625a1.314 1.314 0 0 1 0 2.625zm1.312-3.573a2.597 2.597 0 0 0-1.312-.364v-.657h1.312v1.021zm-.134-4.958h-4.46v-4.95a6.506 6.506 0 0 1 4.46 4.95zm-5.772-5.217v5.217h-1.313V2.002a6.77 6.77 0 0 1 1.313 0zm-2.625.267v4.95H6.04a6.506 6.506 0 0 1 4.46-4.95zM4.593 8.531h15.75v1.313H4.594V8.53zm2.626 2.625v.656c-.48 0-.925.14-1.313.365v-1.02H7.22zm-1.313 3.281c0-.723.589-1.312 1.313-1.312v2.625a1.314 1.314 0 0 1-1.313-1.313zm2.625 1.313v-4.594h7.875v4.594a1.971 1.971 0 0 1-1.968 1.969H10.5a1.971 1.971 0 0 1-1.969-1.969zM1.97 31.5v-.432c0-4.567 2.93-8.51 7.218-9.863v13.123l-.712-.158a3.263 3.263 0 0 1-2.569-3.204V28.22H4.594v2.747a4.567 4.567 0 0 0 3.597 4.485l2.309.513v1.442H7.875A5.913 5.913 0 0 1 1.969 31.5zm3.937 6.94a7.233 7.233 0 0 0 1.969.279h1.313v1.312H5.905V38.44zm14.438 1.591v-4.65c.776.446 1.673.7 2.625.71v3.94h-2.625zm9.187-2.625a1.971 1.971 0 0 1-1.968-1.968c0-.362.294-.657.656-.657h2.625c.361 0 .656.295.656.657a1.971 1.971 0 0 1-1.969 1.968zm6.508-2.625h-3.348a1.966 1.966 0 0 0-1.848-1.312h-2.625c-.854 0-1.576.55-1.848 1.312h-3.348a4.042 4.042 0 0 1-3.796-2.625h20.608a4.038 4.038 0 0 1-3.795 2.625z" fill="#0088CE"/><path d="M32.156 15.094h1.313v1.312h-1.313v-1.312zm-2.625 0h1.313v1.312H29.53v-1.312zm-2.625 0h1.313v1.312h-1.313v-1.312zm5.25 2.625h1.313v1.312h-1.313V17.72zm-5.25 0h1.313v1.312h-1.313V17.72zm2.625 0h1.313v1.312H29.53V17.72zm2.625 2.625h1.313v1.312h-1.313v-1.312zm-7.875 2.625h1.313v6.562H24.28V22.97zm2.625 0h1.313v6.562h-1.313V22.97zm5.25 2.625h2.625v1.312h-2.625v-1.312zm0 2.625h2.625v1.312h-2.625V28.22z" fill="#0088CE"/></svg>