<svg width="42" height="42" viewBox="0 0 42 42" fill="none" xmlns="http://www.w3.org/2000/svg"><path d="M39.483 34.761L7.54 34.748c-.629-.008-.968.04-1.805.42l-5.17 2.341a.941.941 0 0 0-.562.87c0 .377.22.719.559.87 1.696.77 5.173 2.345 5.173 2.345.783.355 1.122.394 1.678.394l12.52.012a.62.62 0 0 0 .615-.624.62.62 0 0 0-.615-.624H8.173v-1.747h27.184v1.746h-12.37a.62.62 0 0 0-.615.625.62.62 0 0 0 .615.624h16.496C40.871 42 42 40.856 42 39.45v-2.14c0-1.405-1.13-2.549-2.517-2.549zm-35.91 2.753v1.733L1.66 38.38l1.912-.866zm1.23 2.29v-2.847s1.957-.874 2.14-.916v4.68c-.183-.043-1.69-.713-2.14-.917zm3.37-2.047v-1.748l.159.001h27.025v1.747H8.174zM40.77 39.45c0 .717-.576 1.3-1.286 1.3h-2.895v-4.74h2.895c.71 0 1.287.584 1.287 1.3v2.14zM1.057 32.7l18.785-.002a.62.62 0 0 0 .615-.624.62.62 0 0 0-.615-.625l-18.612.003V5.976h2.46v20.87c0 .566.455 1.027 1.014 1.027h25.511c.422 0 .788-.23.934-.588.145-.357.05-.755-.258-1.065L10.9 5.976h22.628V25.77c0 .584.468 1.058 1.044 1.058h2.712c1.258 0 2.283 1.036 2.283 2.31s-1.025 2.31-2.284 2.31H22.667a.62.62 0 0 0-.616.625.62.62 0 0 0 .616.624h14.615c1.938 0 3.514-1.596 3.514-3.559V5.734c0-1.964-1.576-3.561-3.514-3.561h-2.711a1.05 1.05 0 0 0-1.044 1.055v1.499H9.665L5.32.327C5.013.016 4.62-.08 4.266.07c-.353.15-.579.523-.576.945v3.713H1.057A1.065 1.065 0 0 0 0 5.801v25.825c0 .592.474 1.074 1.057 1.074zm33.7-29.279h2.525c1.26 0 2.284 1.037 2.284 2.313v20.702a3.472 3.472 0 0 0-2.284-.856h-2.524V3.421zM4.922 1.687L29.55 26.625h-5.275v-.877a.62.62 0 0 0-.615-.624.62.62 0 0 0-.615.624v.877h-2.64v-1.702a.62.62 0 0 0-.615-.624.62.62 0 0 0-.615.624v1.702h-2.642v-.877a.62.62 0 0 0-.615-.624.62.62 0 0 0-.615.624v.877h-2.64v-1.702a.62.62 0 0 0-.615-.624.62.62 0 0 0-.615.624v1.702H8.79v-.877a.62.62 0 0 0-.615-.624.62.62 0 0 0-.615.624v.877H4.92V1.687z" fill="#0088CE"/><path d="M10.21 22.081h6.817c.256 0 .735 0 .918-.449.18-.441-.135-.76-.364-.992l-6.748-6.832c-.23-.234-.543-.554-.98-.372-.442.186-.442.67-.442.931v6.904c0 .492.314.81.8.81zm.431-6.703l5.388 5.455h-5.388v-5.455z" fill="#0088CE"/></svg>