<svg width="42" height="42" viewBox="0 0 42 42" fill="none" xmlns="http://www.w3.org/2000/svg"><g clip-path="url(#a)" fill="#0088CE"><path d="M30.61 1.65L6.374.03a1.437 1.437 0 0 0-1.528 1.336l-.19 2.835h-3.22A1.437 1.437 0 0 0 0 5.636v34.902c0 .791.644 1.435 1.436 1.435h18.55c.161 0 .32-.065.434-.179l2.8-2.788a.61.61 0 0 0 .088.013l4.781.32c.763.05 1.477-.57 1.528-1.337l2.33-34.823A1.448 1.448 0 0 0 30.61 1.65zM20.6 39.87v-4.275c0-.113.092-.205.206-.205h4.257L20.6 39.87zm7.788-1.95c-.02.124-.092.188-.218.191l-3.796-.254 2.604-2.593a.615.615 0 0 0 .182-.436V5.636c0-.791-.644-1.435-1.436-1.435h-6.398c-.795 0-.795 1.23 0 1.23h6.398c.113 0 .205.092.205.205V34.16h-5.123c-.792 0-1.436.644-1.436 1.435v5.148H1.436a.205.205 0 0 1-.206-.205V5.636c0-.113.093-.205.206-.205H16.05c.795 0 .795-1.23 0-1.23H5.89l.184-2.753c.02-.124.093-.187.218-.19l24.235 1.62c.124.02.188.093.191.219L28.39 37.92z"/><path d="M21.97 19.445H5.19a.615.615 0 0 0 0 1.23h16.78a.615.615 0 0 0 0-1.23zm0 4.289H5.19a.615.615 0 1 0 0 1.23h16.78a.615.615 0 1 0 0-1.23zM4.575 15.771c0 .34.276.616.615.616h16.78a.615.615 0 1 0 0-1.23H5.19a.615.615 0 0 0-.615.614zm2.956-4.289c0 .34.276.616.615.616h10.869a.615.615 0 0 0 0-1.23H8.146a.615.615 0 0 0-.615.614zm8.445 24.512l-3.32.007-1.115.002c-.674 0-1.128-.135-1.28-.877-.127-.626-1.013-.542-1.186 0-.425 1.34-1.13.816-1.524-.086-.393-.9-.494-1.906-.666-2.863-.127-.703-1.19-.506-1.209.164-.024.882-.106 1.75-.33 2.605-.231.882-.577 1.73-.92 2.574-.3.735.89 1.051 1.186.327.304-.747.609-1.498.836-2.274.421 1.014 1.294 2.161 2.537 1.485a2.48 2.48 0 0 0 .637-.513c.646.747 1.608.688 2.508.687 1.282-.001 2.564-.004 3.846-.007.792-.003.793-1.233 0-1.23zm25.526-15.778a1.77 1.77 0 0 0-1.205-.494l-.465.003v-.88c0-.535-.318-1.101-.774-1.383v-1.238c0-2.549-3.968-2.538-3.968.012v1.238a1.626 1.626 0 0 0-.776 1.383v.9c-2.047.14-2.053 3.26.003 3.383.013 2.754.012 5.463-.002 8.264-.005.772 1.226.817 1.23.006.015-2.803.015-5.514.002-8.27l3.053-.016s-.004 9.093-.004 13.19c0 1.996-3.053 2.01-3.053-.021V35.17c.049-.794-1.18-.868-1.227-.074v1.052c0 .903.279 1.667.819 2.204a5.145 5.145 0 0 0 1.507 3.442c.263.261.627.181.881-.015a5.073 5.073 0 0 0 1.49-3.479c.407-.404.813-.812.813-2.206v-5.607c1.065.302 2.174-.52 2.174-1.636v-7.438c0-.453-.177-.879-.498-1.198zm-5.957-.47v-.89c0-.181.125-.334.293-.38l2.463-.012a.389.389 0 0 1 .3.381v.886l-3.056.015zm1.532-4.266c.377 0 .75.37.75.744v.998l-1.506.007v-.993a.76.76 0 0 1 .756-.756zm-.001 24.93a3.924 3.924 0 0 1-.609-1.346 2.72 2.72 0 0 0 1.22-.016c-.113.49-.32.95-.611 1.362zm3.694-11.558c0 .582-.94.628-.94.01l.002-6.355a.62.62 0 0 0-.62-.616l-4.79.023c-.594 0-.58-.93.006-.932l5.875-.03c.284.025.44.179.467.462v7.438z"/></g><defs><clipPath id="a"><path fill="#fff" d="M0 0h42v42H0z"/></clipPath></defs></svg>