<svg width="42" height="42" viewBox="0 0 42 42" fill="none" xmlns="http://www.w3.org/2000/svg"><g clip-path="url(#a)" fill="#0088CE"><path d="M41.829 17.912l-7.03-9.131a.824.824 0 0 0-1.094-.193l-4.539 2.887h-5.92a.815.815 0 0 0-.226.038l-4.59 1.32-4.762-1.302-4.627-2.943a.823.823 0 0 0-1.083.178l-7.775 9.63a.823.823 0 0 0 .104 1.142l4.075 3.507 3.656 4.927a2.914 2.914 0 0 0 .064 4.049c.493.493 1.12.771 1.765.836a2.891 2.891 0 0 0 .818 2.503c.55.55 1.281.853 2.059.853l.03-.001v.059c0 .777.303 1.508.852 2.058a2.893 2.893 0 0 0 2.513.817 2.9 2.9 0 0 0 2.895 2.623c.745 0 1.49-.284 2.058-.851l.445-.445.186.15a2.9 2.9 0 0 0 2.024.818 2.903 2.903 0 0 0 2.909-2.955 2.905 2.905 0 0 0 2.954-2.953 2.894 2.894 0 0 0 2.104-.852 2.9 2.9 0 0 0 .85-2.103 2.903 2.903 0 0 0 2.104-.851 2.915 2.915 0 0 0 .383-3.643l2.67-5.591 4.013-3.454a.823.823 0 0 0 .115-1.127zm-33.052-7.54l3.328 2.117-7.239 8.818-2.9-2.496 6.811-8.438zm.47 18.697l1.004-1.004a1.26 1.26 0 0 1 .781-.365h.022a1.256 1.256 0 0 1 1.009.391c.465.492.44 1.295-.056 1.791l-.974.974a1.265 1.265 0 0 1-1.786 0 1.265 1.265 0 0 1 0-1.787zm2.584 5.126a1.254 1.254 0 0 1-.37-.893c0-.337.13-.654.37-.893l1.947-1.947c.373-.373.96-.476 1.436-.249.492.235.768.768.696 1.305a1.333 1.333 0 0 1-.376.761l-1.917 1.916c-.239.239-.556.37-.893.37a1.25 1.25 0 0 1-.893-.37zm2.94 2.969a1.254 1.254 0 0 1-.37-.893c0-.337.131-.655.37-.893l1.947-1.948a1.277 1.277 0 0 1 1.527-.2c.446.26.68.77.603 1.277a1.334 1.334 0 0 1-.374.74l-1.916 1.917c-.24.239-.556.37-.894.37-.337 0-.655-.131-.893-.37zm3.349 2.59a1.265 1.265 0 0 1 0-1.787l1.004-1.005a1.34 1.34 0 0 1 .097-.087 1.26 1.26 0 0 1 .56-.26l.015-.003a1.25 1.25 0 0 1 .107-.014c.014-.002.029-.002.044-.002.029-.002.058-.004.088-.004a1.255 1.255 0 0 1 .982.492c.38.495.328 1.23-.142 1.7l-.969.97a1.265 1.265 0 0 1-1.786 0zm15.363-9.192a1.264 1.264 0 0 1-1.786 0 .734.734 0 0 0-.056-.05l-5.296-5.352a.824.824 0 0 0-1.17 1.16l5.352 5.408.002.002a1.265 1.265 0 0 1-.893 2.157c-.338 0-.655-.132-.894-.37l-3.58-3.619a.823.823 0 1 0-1.171 1.16l3.526 3.562a.78.78 0 0 0 .058.064 1.265 1.265 0 0 1 0 1.787 1.265 1.265 0 0 1-1.787 0l-1.955-1.975a.823.823 0 1 0-1.17 1.158l1.9 1.92a.751.751 0 0 0 .057.064 1.264 1.264 0 0 1-1.786 1.787c-.057-.057-.123-.1-.187-.149-.054-.041-.068-.07-.04-.135.026-.066.067-.126.094-.193.03-.074.055-.15.078-.228.127-.407.164-.844.107-1.267a2.898 2.898 0 0 0-1.23-2.004 2.892 2.892 0 0 0-1.225-.475c.212-.935-.043-1.95-.705-2.65a2.89 2.89 0 0 0-2.162-.91 2.908 2.908 0 0 0-.778-2.059 2.89 2.89 0 0 0-2.075-.91 2.96 2.96 0 0 0-.703.074 2.887 2.887 0 0 0-2.824-2.471 2.917 2.917 0 0 0-1.988.748l-3.183-4.29 7.616-9.278 2.427.664-3.17 5.594a2.891 2.891 0 0 0-.273 2.21 2.89 2.89 0 0 0 1.499 1.825l.01.005a2.892 2.892 0 0 0 2.073.2 2.892 2.892 0 0 0 1.756-1.37l2.06-3.636 3.678.26 9.794 9.795a1.265 1.265 0 0 1 0 1.787zm.342-3.775l-9.189-9.188a.824.824 0 0 0-.524-.24l-4.504-.319a.837.837 0 0 0-.774.416l-2.317 4.087a1.255 1.255 0 0 1-.762.595c-.325.09-.666.048-.96-.118a1.256 1.256 0 0 1-.594-.763 1.254 1.254 0 0 1 .118-.96l3.092-5.456 1.253-.36.025-.009 4.676-1.35h5.65l7.053 8.966-2.243 4.699zm3.322-5.991l-6.523-8.297 3.33-2.117 6.094 7.917-2.9 2.497z"/><path d="M25.445 9.929c.21 0 .421-.08.582-.242l5.626-5.625a.823.823 0 1 0-1.165-1.165l-5.625 5.626a.824.824 0 0 0 .582 1.406zm-9.472-.242a.821.821 0 0 0 1.164 0 .824.824 0 0 0 0-1.164l-5.625-5.626a.824.824 0 1 0-1.165 1.165l5.626 5.625zM21 9.929a.824.824 0 0 0 .824-.824V4.45a.824.824 0 0 0-1.648 0v4.656c0 .455.37.824.824.824zm-.76-8.465c.13.317.456.525.8.507a.831.831 0 0 0 .743-.57.83.83 0 0 0-.282-.905.832.832 0 0 0-.958-.031.83.83 0 0 0-.303 1z"/></g><defs><clipPath id="a"><path fill="#fff" d="M0 0h42v42H0z"/></clipPath></defs></svg>