<svg width="42" height="42" viewBox="0 0 42 42" fill="none" xmlns="http://www.w3.org/2000/svg"><path d="M12.469 38.063a1.971 1.971 0 0 0-1.969-1.97 1.971 1.971 0 0 0-1.969 1.97c0 1.085.884 1.968 1.969 1.968a1.971 1.971 0 0 0 1.969-1.968zm-1.969.656a.657.657 0 1 1 .001-1.314.657.657 0 0 1-.001 1.314zm8.531-.656a1.971 1.971 0 0 0-1.968-1.97 1.971 1.971 0 0 0-1.97 1.97c0 1.085.884 1.968 1.97 1.968a1.971 1.971 0 0 0 1.968-1.968zm-1.968.656a.657.657 0 1 1 0-1.314.657.657 0 0 1 0 1.314zm9.843-26.25h5.25V8.53h-5.25v3.938zm1.313-2.625h2.625v1.312h-2.625V9.844z" fill="#0088CE"/><path d="M34.66 13.781h6.684V7.22h-1.746L31.067.656h-2.959L9.078 7.22H6.254l-3.253 3.904a1.62 1.62 0 0 0 1.243 2.658H7.22v3.938H.656v6.562H7.22c0 .724.588 1.313 1.312 1.313h1.313c.724 0 1.312-.589 1.312-1.313h6.563V17.72h-6.563v-3.94h13.246c.198.556.636.994 1.192 1.192v9.2l-4.857 3.27a4.585 4.585 0 0 0-3.674-1.85h-3.938a3.285 3.285 0 0 0-3.281 3.282v.656H3.938a3.285 3.285 0 0 0-3.282 3.282v3.28H6.58a3.247 3.247 0 0 0-.674 1.97 3.285 3.285 0 0 0 3.282 3.28H36.75a4.6 4.6 0 0 0 4.594-4.593V31.86l-7.875-6.949v-9.938a1.967 1.967 0 0 0 1.191-1.192zm-5.129 7.875a3.27 3.27 0 0 0-2.625 1.333v-7.895h5.25v7.895a3.27 3.27 0 0 0-2.625-1.333zM17.72 34.781h-3.94v-5.25h3.281c.363 0 .657.295.657.657v4.593zm3.937 1.313v-3.07l3.938-2.663v8.358c0 .456.097.902.276 1.312h-4.886a3.25 3.25 0 0 0 .672-1.968c0-.742-.256-1.42-.673-1.97h.673zm5.25 2.625c0-1.086.884-1.969 1.969-1.969.403 0 .793.124 1.127.359l.639.45.333-.707a1.306 1.306 0 0 1 2.45.229l-1.028 1.712a1.646 1.646 0 0 0-.196 1.238h-4.777a1.96 1.96 0 0 1-.517-1.312zm7.304-2.948a2.605 2.605 0 0 0-.741-.634v-4.162l2.427 1.986-1.686 2.81zm-2.054-.99a2.63 2.63 0 0 0-1.99.923 3.247 3.247 0 0 0-1.291-.267c-.742 0-1.419.257-1.969.674v-6.637l1.959-1.324c.215.045.438.069.666.069.174 0 .34-.025.506-.051l2.12 1.733v4.88zm-2.625-7.875a1.971 1.971 0 0 1-1.968-1.968c0-1.086.883-1.97 1.968-1.97 1.086 0 1.969.884 1.969 1.97a1.971 1.971 0 0 1-1.969 1.968zm3.938-13.781a.657.657 0 0 1-.657.656H26.25a.657.657 0 0 1-.656-.656v-5.25c0-.362.294-.656.656-.656h6.563c.362 0 .656.294.656.656v5.25zM28.673 1.969h1.716l1.477 3.937h-4.669l1.477-3.937zm11.358 10.5h-5.25V8.53h5.25v3.938zm-5.37-5.25a1.965 1.965 0 0 0-1.369-1.246l-1.027-2.739 5.18 3.985H34.66zm-7.546-4.832L25.77 5.972a1.967 1.967 0 0 0-1.368 1.246H13.104l14.01-4.83zM15.094 8.97l2.625 3.5h-5.25l2.625-3.5zm-3.938 3.062l-2.625-3.5h5.25l-2.625 3.5zm5.25-3.5h5.25l-2.625 3.5-2.625-3.5zm6.89 0h.985v3.938h-3.937l2.953-3.938zm-19.358 3.63c0-.07.024-.14.071-.196L6.87 8.53h.02l2.954 3.938H4.245a.308.308 0 0 1-.308-.307zm3.28 6.87v1.313h-5.25V19.03h5.25zm-5.25 3.938v-1.313h5.25v1.313h-5.25zm9.188 0v-1.313h5.25v1.313h-5.25zm5.25-3.938v1.313h-5.25V19.03h5.25zm-6.562 5.25H8.53v-10.5h1.313v10.5zm16.441 1.008a3.26 3.26 0 0 0 1.21 2.201l-5.839 3.948v-1.25c0-.559-.105-1.092-.288-1.589l4.917-3.31zM1.97 32.812a1.97 1.97 0 0 1 1.968-1.968h7.22v-1.969c0-1.085.883-1.969 1.968-1.969h3.938a3.285 3.285 0 0 1 3.28 3.282v4.593h-1.312v-4.593a1.971 1.971 0 0 0-1.968-1.97H13.78c-.724 0-1.312.59-1.312 1.313v5.25h-10.5v-1.968zm15.75 7.22H9.187a1.971 1.971 0 0 1-1.968-1.97 1.97 1.97 0 0 1 1.968-1.968h9.188c1.085 0 1.969.883 1.969 1.968a1.971 1.971 0 0 1-1.969 1.97h-.656zm22.31-3.282a3.285 3.285 0 0 1-3.281 3.281h-2.91a.372.372 0 0 1-.318-.562l3.6-6h2.91v3.281zm-3.047-4.594l-5.559-4.548a3.28 3.28 0 0 0 1.217-1.676l7.054 6.224h-2.712z" fill="#0088CE"/><path d="M3.281 32.156h1.313v1.313H3.28v-1.313zm2.625 0H7.22v1.313H5.906v-1.313zm2.625 0h1.313v1.313H8.53v-1.313z" fill="#0088CE"/></svg>