<svg width="233" height="57" viewBox="0 0 233 57" fill="none" xmlns="http://www.w3.org/2000/svg"><path d="M15.65 31.094c-.312.799-.922 1.295-1.802 1.295H9.173c-.84 0-1.545-.496-1.775-1.295L0 10.415h5.637l4.498 14.493c.352 1.254.759 2.549 1.057 3.802h.582c.393-1.253.746-2.548 1.139-3.802l4.457-14.493h5.691L15.65 31.094zm144.261-8.115h-.61l-5.419 9.41h-5.651l6.829-11.297-6.3-10.677h5.596l4.905 8.61h.704l4.892-8.61h5.596l-6.301 10.677 6.829 11.297h-5.637l-5.433-9.41zm-14.064-5.524v14.934h-4.228l-.569-3.32c-1.544 1.708-4.376 3.816-8.251 3.816-3.97 0-6.829-2.246-6.829-6.365v-2.246c0-3.499 2.33-5.51 6.395-5.51h8.103v-1.35c-.041-2.508-.881-3.141-3.97-3.141-1.979 0-5.637.179-9.038.454l-.528-3.857c3.089-.579 7.94-1.075 10.812-1.075 5.325 0 8.103 1.791 8.103 7.66zM134.126 28.49c1.667 0 4.092-.716 6.342-2.604v-3.402h-6.87c-1.775.082-2.303.978-2.303 2.465v.855c0 1.873.894 2.686 2.831 2.686zm-11.815-12.605v16.504h-5.257V17.55c-.041-2.245-.65-3.14-2.683-3.14-1.802 0-2.994.674-5.826 2.644V32.39h-5.149V17.55c.041-2.383-.84-3.14-2.696-3.14-1.68 0-2.86.633-5.772 2.603V32.39h-5.339V10.415h4.363l.353 3.238c2.777-2.521 5.42-3.858 8.427-3.858 2.913 0 4.756 1.254 5.515 3.679 2.683-2.466 5.325-3.679 8.197-3.679 3.835 0 5.867 2.15 5.867 6.09zm-42.07-1.516v11.16c0 1.928.663 2.561 2.6 2.561h2.954l.583 4.023c-1.504.496-4.241.772-5.569.772-3.78 0-5.853-2.328-5.853-6.42l-.054-12.096h-3.876v-3.72l3.876-.234v-6.31h5.338v6.31h6.355v3.954H80.24zm-11.952 1.515V32.39H62.91V17.55c0-2.466-.569-3.14-2.29-3.14-2.154 0-4.105.991-7.14 2.686l.04 15.292h-5.379V10.415h4.499l.352 3.279c3.09-2.425 6.179-3.899 9.35-3.899 3.834 0 5.947 2.15 5.947 6.09zM43.345 27.953l.474 3.499c-2.29 1.116-6.165 1.474-8.902 1.474-7.845 0-10.799-3.224-10.799-11.572 0-8.693 3.13-11.559 10.447-11.559 7.005 0 9.837 2.645 9.837 7.619 0 3.94-1.775 6.282-5.786 6.282h-8.82c.447 3.981 2.072 4.794 5.785 4.794 2.073 0 5.162-.22 7.764-.537zM29.673 19.88h7.453c1.72 0 1.937-1.392 1.937-2.549 0-2.342-.975-3.237-4.282-3.237-3.74 0-4.931 1.17-5.108 5.786z" fill="#0088CE"/><path fill-rule="evenodd" clip-rule="evenodd" d="M125.109 46.014v8.197h-1.91v-7.646c0-1.46-.42-1.943-1.518-1.943-1.287 0-2.425.607-4.159 1.709v7.88h-1.87V38.506h1.87l.027 4.325c0 .813-.041 1.557-.136 2.136 1.613-1.185 3.184-1.956 4.77-1.956 1.91 0 2.926 1.033 2.926 3.003zm81.292-42.347c14.227 0 25.758 11.723 25.758 26.203 0 14.465-11.531 26.19-25.758 26.19-14.24 0-25.771-11.725-25.771-26.19 0-14.48 11.531-26.203 25.771-26.203zm-2.235 9.299c1.409-1.309 3.482-1.323 4.81-.124l3.861 3.527v-1.42c0-1.005.637-1.143 1.396-1.143.745 0 1.138.427 1.138 1.144v3.747l4.959 4.546c1.667 1.543 1.789 2.866 1.789 4.85l-.014 8.61v.207c0 1.308.082 2.548-.623 3.802-1.138 1.997-3.713 2.686-5.799 2.3-2.466-.44-4.499-1.97-6.423-3.457-1.815-1.405-3.265-1.888-5.636-1.791l-3.415.193c2.222-.772 4.106-2.067 6.87-1.764 1.734.193 2.994.882 4.295 1.874 1.911 1.46 4.878 3.375 7.208 2.066 1.206-.675 1.003-2.025 1.003-3.43v-9.051c-.013-1.722-.366-1.943-1.599-3.073l-10.717-9.767c-.366-.33-.935-.317-1.382.096l-10.732 9.768c-1.504 1.35-1.477 1.763-1.477 3.596l-.027 9.478c0 .62.055 1.391.353 1.874.447.73.962.785 1.883.84 4.146.248 4.729-1.171 8.401-.703 1.815.235 3.753.95 5.013 2.397.84.965 1.314 2.274 1.111 3.458-.935-2.851-3.74-3.499-6.328-3.637-3.184-.165-3.644 1.378-8.712.992-1.463-.11-2.75-.702-3.509-2.107-.8-1.42-.651-2.935-.678-3.982l-.013-9.478c0-2.122.88-3.334 2.303-4.63l10.691-9.808zm4.363 11.724c1.612 0 1.395 1.419 1.395 2.548h-2.506V24.69h1.111zm-2.683 0v2.548h-2.493c0-1.13-.217-2.548 1.395-2.548h1.098zm1.572 4.146h2.506c0 1.116.217 2.535-1.395 2.535h-1.111v-2.534zm-4.065 0h2.493v2.535c-1.111 0-2.493.22-2.493-1.419v-1.116zm27.437 1.034c0-13.708-10.92-24.812-24.389-24.812-13.481 0-24.402 11.104-24.402 24.812 0 13.694 10.921 24.798 24.402 24.798 13.469 0 24.389-11.104 24.389-24.798zM168.414 52.6l.203 1.28c-1.016.427-2.94.606-4.173.606-3.713 0-5.149-1.57-5.149-5.772 0-4.285 1.477-5.703 4.945-5.703 3.252 0 4.621 1.212 4.621 3.568.013 1.956-.773 3.1-2.561 3.1h-5c.176 2.603 1.179 3.196 3.387 3.196 1.139 0 2.629-.124 3.727-.276zm-7.155-4.396h4.553c.962 0 1.165-.813 1.165-1.625-.027-1.392-.731-1.957-2.642-1.957-2.236 0-3.008.813-3.076 3.582zm-4.661-2.19v8.197h-1.842v-7.646c-.027-1.35-.488-1.943-1.68-1.943-1.112 0-1.911.496-3.537 1.695v7.894h-1.816v-7.646c0-1.42-.555-1.943-1.68-1.943-1.084 0-1.869.483-3.523 1.695v7.894h-1.883V43.286h1.545l.108 1.722c1.504-1.322 2.9-1.998 4.404-1.998 1.477 0 2.398.648 2.71 1.957 1.477-1.309 2.899-1.956 4.335-1.956 1.843 0 2.859 1.033 2.859 3.003zM137.9 48.755c0 4.202-1.355 5.759-5.067 5.759-3.686 0-5.054-1.557-5.054-5.759 0-4.174 1.368-5.745 5.054-5.745 3.712 0 5.067 1.571 5.067 5.745zm-8.157 0c0 3.197.759 4.133 3.09 4.133 2.344 0 3.116-.936 3.116-4.133 0-3.182-.772-4.133-3.116-4.133-2.331 0-3.09.951-3.09 4.133z" fill="url(#a)"/><defs><linearGradient id="a" x1="239.961" y1="52.328" x2="239.961" y2="2.18" gradientUnits="userSpaceOnUse"><stop stop-color="#21A73F"/><stop offset="1" stop-color="#98C22A"/></linearGradient></defs></svg>