<svg viewBox="0 0 38 32" fill="none" xmlns="http://www.w3.org/2000/svg">
<path d="M10.0771 25.9271C8.95804 25.9271 8.0846 26.8277 8.0846 27.9193C8.0846 29.0383 8.95804 29.9389 10.0771 29.9389C11.1689 29.9389 12.0697 29.0383 12.0697 27.9193C12.0697 26.8277 11.1689 25.9271 10.0771 25.9271ZM38 11.8446C38 18.3946 32.7048 23.6891 26.1539 23.6891C24.3525 23.6891 22.6329 23.2798 21.0771 22.5702L12.6429 31.0033C11.2235 32.4225 8.79427 32.3133 7.23845 30.7577C5.68263 29.2021 5.57345 26.7731 7.02009 25.3539L13.7347 18.6129C14.3625 18.1216 14.9357 17.5485 15.4543 16.9208C16.7371 15.256 17.5287 13.1546 17.5287 10.8621C17.5287 8.95166 16.9828 7.1777 16.0548 5.67666C18.1292 2.26521 21.8686 0 26.1539 0C27.2457 0 28.3102 0.16375 29.3202 0.436666L24.2706 5.48562C22.1689 7.58708 22.3326 11.135 24.5981 13.4002C26.8909 15.6927 30.412 15.8292 32.5137 13.7277L37.5633 8.67874C37.8362 9.68853 38 10.7529 38 11.8446Z" fill="#7D7D7D"/>
<path d="M4.01365 9.98976L7.45392 10.0171L9.85666 6.24915C10.157 5.75768 10.8669 5.64846 11.3311 6.00341C11.7133 6.30375 11.8225 6.90444 11.5495 7.31399L8.84642 11.5461C8.68259 11.8191 8.38225 12.0102 8.0273 12.0102H4.01365C3.46758 12.0102 3.00341 11.5461 3.00341 11C3.00341 10.4539 3.46758 9.98976 4.01365 9.98976ZM0 11C0 15.4232 3.6041 19 8 19C12.4232 19 16 15.4232 16 11C16 6.57679 12.4232 3 8 3C3.6041 3 0 6.57679 0 11Z" fill="#7D7D7D"/>
</svg>
