<svg viewBox="0 0 36 43" fill="none" xmlns="http://www.w3.org/2000/svg">
<path fill-rule="evenodd" clip-rule="evenodd" d="M16.8442 15.042C17.7656 14.6625 18.7413 14.7438 19.5814 15.1775L25.3811 14.3644C25.9502 14.1476 26.5464 14.3373 26.7361 14.798C26.8988 15.2317 26.6006 15.8008 26.0315 16.0176L21.2075 19.3511C20.8823 20.2183 20.2047 20.95 19.2833 21.3024C17.5488 21.9799 15.5975 21.1126 14.92 19.3782C14.2424 17.6437 15.1097 15.6924 16.8442 15.042ZM19.3917 17.6437C19.1749 17.0746 18.6328 16.7222 18.0366 16.7493C17.874 16.7493 17.7114 16.7764 17.5488 16.8306C16.79 17.1288 16.4376 17.9418 16.7087 18.7006C17.0068 19.4324 17.8198 19.7847 18.5786 19.5137C18.7413 19.4324 18.8768 19.3511 19.0123 19.2427C19.4459 18.8361 19.6085 18.2128 19.3917 17.6437ZM0.718882 15.855H3.83553C5.32611 15.855 5.32611 18.2128 3.83553 18.2128H0.556274C0.583376 18.4296 0.583376 18.6464 0.583376 18.8632V19.1072C0.800186 22.8742 2.20945 26.3432 4.43176 29.1075L7.11479 26.4245C8.17174 25.3676 9.82492 26.9936 8.76797 28.0506L6.00364 30.842C6.76248 31.5738 7.60262 32.2242 8.49696 32.8204C8.90348 32.9017 9.2829 32.7391 9.55391 32.4681C14.8658 28.8094 21.614 28.8365 26.8988 32.5494C27.1698 32.7391 27.6305 32.8204 27.9828 32.712C28.8229 32.17 29.6089 31.5196 30.3406 30.842L27.5763 28.0506C26.4922 26.9936 28.1454 25.3676 29.2295 26.4245L31.9125 29.1075C32.1835 28.7823 32.4274 28.4571 32.6713 28.1048L32.8881 27.7525L32.9694 27.6712C34.5955 25.1236 35.5441 22.2238 35.7609 19.1885V19.1614C35.7609 19.0258 35.7609 18.8903 35.7609 18.7548L35.788 18.267V18.2128H32.4816C30.9639 18.2128 30.9639 15.855 32.4816 15.855H33.5657H33.6199H33.647H33.7012H33.7554H33.8096H33.8638H33.8909H33.9451H33.9993H34.0535H34.1077H34.1619H34.189H34.2432H34.2974H34.3516H34.4058H34.4329H34.4871H34.5413H34.5955H34.6497H34.7039H34.731H34.7852H34.8394H34.8936H34.9478H34.9749H35.0291H35.0833H35.1375H35.6525C35.2189 12.6028 33.918 9.62169 31.9667 7.18258C31.6415 6.74896 31.2621 6.31533 30.8826 5.93592L29.8257 6.99287L28.9584 7.83301C27.9015 8.91706 26.2483 7.23678 27.3053 6.17983L27.6034 5.90881L27.6305 5.88171L27.6576 5.85461L27.6847 5.82751L27.7118 5.80041L27.7389 5.77331L27.766 5.74621V5.71911L27.7931 5.692L27.8202 5.6649L27.8473 5.6378H27.8744L28.3351 5.14998H28.3622L28.4435 5.06867L28.4706 5.04157L29.1482 4.36404C27.1969 2.81927 24.9204 1.68101 22.4812 1.03058C22.156 0.949275 21.8308 0.867971 21.4785 0.813768L20.8823 0.705363H20.801C20.3402 0.624059 19.8253 0.569856 19.3375 0.542755V2.65666C19.3375 4.17433 17.0068 4.17433 17.0068 2.65666V0.542755C13.4294 0.786667 9.98753 2.14173 7.16899 4.36404L7.79232 5.01447L7.81943 5.04157L7.84653 5.06867L7.87363 5.09578L7.90073 5.12288L7.92783 5.14998L7.95493 5.17708L7.98203 5.20418L8.00914 5.23128L8.03624 5.25838L8.06334 5.28548L8.09044 5.31259L8.11754 5.33969L8.14464 5.36679L8.17174 5.39389L8.19884 5.42099L8.22595 5.44809L8.25305 5.47519L8.28015 5.5023H8.30725L8.33435 5.5294L8.36145 5.5565V5.5836L8.38855 5.6107L8.41565 5.6378L8.44276 5.6649L8.46986 5.692L8.49696 5.71911L8.52406 5.74621L8.55116 5.77331L8.95768 6.17983C10.0146 7.23678 8.36145 8.88996 7.3045 7.83301L6.43726 6.93866H6.41016L6.38306 6.91156L5.75973 6.28823L5.43451 5.96302C2.88699 8.59184 1.1796 12.0337 0.718882 15.855Z" fill="#7D7D7D"/>
<path fill-rule="evenodd" clip-rule="evenodd" d="M19.0394 37.1025V42.1433H12.7519V24.6901H20.0421C21.7766 24.6901 23.4027 25.205 24.5952 26.533C25.7063 27.7796 26.1941 29.2702 26.1941 30.9234C26.1941 32.5495 25.6792 34.04 24.5952 35.2596C23.4027 36.5876 21.7766 37.1025 20.0421 37.1025H19.0394ZM19.0394 30.5169V31.2757H19.5814C19.6356 31.2757 19.744 31.2757 19.7711 31.2215C19.8524 31.1673 19.8524 30.9776 19.8524 30.8963C19.8524 30.815 19.8524 30.6253 19.7711 30.5711C19.744 30.5169 19.6356 30.5169 19.5814 30.5169H19.0394Z" fill="#FEFEFE"/>
<path fill-rule="evenodd" clip-rule="evenodd" d="M17.6843 40.7882H14.1069V26.045H20.0421C21.5598 26.045 22.7523 26.5058 23.5924 27.4543C24.4054 28.3758 24.8391 29.5411 24.8391 30.9233C24.8391 32.2783 24.4054 33.4437 23.5924 34.3651C22.7523 35.2866 21.5598 35.7473 20.0421 35.7473H17.6843V40.7882ZM19.5814 32.6307C20.0692 32.6307 20.4757 32.4681 20.7739 32.1428C21.072 31.8447 21.2075 31.4111 21.2075 30.8962C21.2075 30.3542 21.072 29.9476 20.7739 29.6224C20.4757 29.3243 20.0692 29.1617 19.5814 29.1617H17.6843V32.6307H19.5814Z" fill="#7D7D7D"/>
</svg>
