<svg viewBox="0 0 29 37" fill="none" xmlns="http://www.w3.org/2000/svg">
<path d="M7.79704 18.3504C6.10745 17.6728 4.55635 17.8625 3.36533 18.242C1.50955 18.8654 0.263133 20.0581 0.207736 20.1123C-0.0692455 20.3833 -0.0692455 20.8441 0.207736 21.1423C0.512416 21.4134 0.983286 21.4134 1.26027 21.1423C1.39876 21.0068 4.36246 18.2149 7.71394 19.8955C7.71394 19.787 7.68625 19.6786 7.68625 19.5431C7.68625 19.1365 7.74164 18.7299 7.79704 18.3504ZM28.7923 20.1123C26.1609 17.5102 23.4742 17.6728 21.7292 18.242C21.5353 18.3233 21.3415 18.3775 21.1476 18.4589C21.2307 18.8112 21.2584 19.1907 21.2584 19.5702C21.2584 19.7057 21.2584 19.8683 21.2307 20.031C21.5353 19.8683 21.84 19.7328 22.2001 19.6244C24.1944 18.9739 26.0501 19.4889 27.7397 21.1423C28.0167 21.4134 28.4876 21.4134 28.7923 21.1423C29.0692 20.8441 29.0692 20.3833 28.7923 20.1123ZM14.4446 21.9826C13.0597 21.9826 11.9518 20.8984 11.9518 19.5431C11.9518 18.7841 12.3118 18.0794 12.8935 17.6457V11.4114C12.8935 10.5169 13.586 9.78509 14.4446 9.78509C15.3032 9.78509 15.9957 10.5169 15.9957 11.4114V17.6457C16.5774 18.1065 16.9374 18.7841 16.9374 19.5431C16.9374 20.8984 15.8018 21.9826 14.4446 21.9826ZM17.6022 15.7483V3.25266C17.6022 1.4637 16.2173 0 14.5 0C12.8935 0 11.5917 1.24685 11.3978 2.84608H12.5888C12.9212 2.84608 13.1982 3.11713 13.1982 3.4424C13.1982 3.79477 12.9212 4.06583 12.5888 4.06583H11.3701V6.50532H13.8352C14.1676 6.50532 14.4446 6.77638 14.4446 7.10165C14.4446 7.45402 14.1676 7.72507 13.8352 7.72507H11.3701V15.7483C10.2068 16.6428 9.48663 18.0252 9.48663 19.5431C9.48663 22.2536 11.7025 24.4492 14.4723 24.4492C17.2421 24.4492 19.4857 22.2536 19.4857 19.5702C19.4857 18.0252 18.7378 16.6428 17.6022 15.7483ZM14.3338 28C12.8381 28 11.1208 27.485 9.40353 25.8045C5.3873 21.8742 1.42646 25.6418 1.26027 25.8045C0.983286 26.0755 0.512416 26.0755 0.207736 25.8045C-0.0692455 25.5063 -0.0692455 25.0455 0.207736 24.7744C0.263133 24.7202 1.50955 23.5005 3.36533 22.9042C5.13801 22.3349 7.79704 22.1723 10.4284 24.7744C14.4446 28.6776 18.4054 24.9371 18.5716 24.7744C18.5993 24.7202 19.8457 23.5005 21.7292 22.9042C23.4742 22.3349 26.1609 22.1723 28.7923 24.7744C29.0692 25.0455 29.0692 25.5063 28.7923 25.8045C28.4876 26.0755 28.0167 26.0755 27.7397 25.8045C26.0501 24.151 24.1944 23.636 22.2001 24.2865C20.649 24.8015 19.6242 25.7773 19.5965 25.8045C19.5688 25.8316 18.3223 27.0513 16.4666 27.6476C15.8572 27.8645 15.1094 28 14.3338 28Z" fill="#7D7D7D"/>
<path fill-rule="evenodd" clip-rule="evenodd" d="M1 32.0619V35.9381C1 36.5221 1.46169 37 2.05917 37H6.02425C6.62173 37 7.11057 36.5221 7.11057 35.9381V32.0619C7.11057 31.4779 6.62173 31 6.02425 31H2.05917C1.46169 31 1 31.4779 1 32.0619ZM22.8623 32.0619V35.9381C22.8623 36.5221 23.3511 37 23.9486 37H27.9137C28.5112 37 29 36.5221 29 35.9381V32.0619C29 31.4779 28.5112 31 27.9137 31H23.9486C23.3511 31 22.8623 31.4779 22.8623 32.0619ZM15.5839 32.0619V35.9381C15.5839 36.5221 16.0456 37 16.6431 37H20.6353C21.2056 37 21.6945 36.5221 21.6945 35.9381V32.0619C21.6945 31.4779 21.2056 31 20.6353 31H16.6431C16.0456 31 15.5839 31.4779 15.5839 32.0619ZM8.27837 32.0619V35.9381C8.27837 36.5221 8.76722 37 9.36469 37H13.3298C13.9273 37 14.3889 36.5221 14.3889 35.9381V32.0619C14.3889 31.4779 13.9273 31 13.3298 31H9.36469C8.76722 31 8.27837 31.4779 8.27837 32.0619Z" fill="#7D7D7D"/>
</svg>
