<svg viewBox="0 0 32 32" fill="none" xmlns="http://www.w3.org/2000/svg">
<path fill-rule="evenodd" clip-rule="evenodd" d="M15.9864 0C24.783 0 32 7.19591 32 16V30.7462C32 31.4276 31.4281 32 30.72 32H1.25277C0.571915 32 0 31.4276 0 30.7462V16C0 7.19591 7.18979 0 15.9864 0Z" fill="#7D7D7D"/>
<path fill-rule="evenodd" clip-rule="evenodd" d="M26.6033 26.0566L22.9487 25.2L26.6033 24.288C27.6626 24.0393 28.2453 23.2103 27.901 22.4089C27.5567 21.6351 26.418 21.193 25.3851 21.4417L16.4869 23.6248L7.61508 21.4417C6.55576 21.193 5.44348 21.6351 5.0992 22.4089C4.75492 23.2103 5.33755 24.0393 6.37038 24.288L10.025 25.2L6.37038 26.0566C5.33755 26.333 4.75492 27.162 5.0992 27.9634C5.44348 28.7372 6.55576 29.1793 7.61508 28.9306L16.4869 26.7475L25.3851 28.9306C26.418 29.1793 27.5567 28.7372 27.901 27.9634C28.2453 27.162 27.6626 26.333 26.6033 26.0566ZM14.5006 17.6834C14.5006 17.6834 13.4413 19.0928 14.2623 21.0548C12.7263 21.1653 11.3757 18.7335 11.1373 17.3242C10.793 15.5279 11.3757 13.7041 12.3026 12.2671C13.5208 10.3879 14.9508 9.14438 15.5864 6.82309C15.7189 6.32568 15.7718 4.77815 16.2485 5.02686C19.1881 6.46385 21.3067 10.4156 21.6775 11.9078C21.6775 11.9078 23.9815 17.4071 19.2411 20.06C19.7443 13.8422 17.4402 12.8474 17.4402 12.8474C16.9106 12.8474 16.8311 13.5659 16.6458 14.0909C16.6458 14.0909 16.5398 15.0858 14.5006 17.6834Z" fill="#FEFEFE"/>
</svg>
