<svg viewBox="0 0 28 32" fill="none" xmlns="http://www.w3.org/2000/svg">
<path fill-rule="evenodd" clip-rule="evenodd" d="M0 26.8423V30.8908C0 31.5009 0.461688 32 1.05917 32H5.02425C5.62173 32 6.11057 31.5009 6.11057 30.8908V26.8423C6.11057 26.2322 5.62173 25.7331 5.02425 25.7331H1.05917C0.461688 25.7331 0 26.2322 0 26.8423ZM0 19.2444C0 21.0468 1.41222 22.4887 3.15034 22.4887H24.8225C26.5606 22.4887 28 21.0468 28 19.2444V7.40381H3.01455H0V19.2444ZM17.2454 15.9445C17.2454 16.4159 17.5441 16.8319 18.033 16.8319C18.4947 16.8319 18.8206 16.4437 18.8206 15.9445C18.8206 15.5009 18.549 15.0849 18.033 15.0849C17.5713 15.0849 17.2454 15.4454 17.2454 15.9445ZM3.93792 17.3865C3.93792 17.2756 3.96508 17.1924 4.0194 17.0815L6.05626 13.1161H3.96508C3.53055 13.1161 3.3676 12.8388 3.3676 12.5338C3.3676 12.2565 3.50339 11.9792 3.96508 11.9792H6.92531C7.35984 11.9792 7.52279 12.3397 7.52279 12.5615C7.52279 12.7279 7.44132 12.922 7.33269 13.1161L5.29583 17.331C5.07856 17.8024 4.96993 17.9688 4.61688 17.9688C4.15519 17.9688 3.93792 17.636 3.93792 17.3865ZM7.7129 17.5529C7.7129 17.5251 7.74006 17.4419 7.79437 17.331L9.96702 12.1733C10.0485 11.9792 10.1571 11.8683 10.4287 11.8683C10.7003 11.8683 10.9176 12.0624 10.9176 12.3397C10.9176 12.3397 10.8904 12.4506 10.8361 12.5615L8.66343 17.7192C8.58196 17.8856 8.47333 18.0243 8.20175 18.0243C7.93016 18.0243 7.7129 17.8302 7.7129 17.5529ZM11.4064 13.227C11.4064 12.5615 12.2755 11.8683 13.1988 11.8683C14.3666 11.8683 14.937 12.7556 14.937 13.3934C14.937 13.9203 14.7197 14.3917 14.258 14.669C14.8555 14.9463 15.2629 15.5009 15.2629 16.1664C15.2629 17.1924 14.3666 18.0243 13.1988 18.0243C12.0039 18.0243 11.2435 17.1092 11.2435 16.4437C11.2435 16.1386 11.5694 15.8891 11.8681 15.8891C12.4384 15.8891 12.3026 16.8596 13.226 16.8596C13.6605 16.8596 13.9864 16.5269 13.9864 16.0832C13.9864 14.9185 12.6014 15.7782 12.6014 14.8076C12.6014 13.9203 13.7692 14.5026 13.7692 13.5875C13.7692 13.2548 13.5519 13.0329 13.1717 13.0329C12.3841 13.0329 12.4927 13.8371 11.9496 13.8371C11.5965 13.8371 11.4064 13.5321 11.4064 13.227ZM18.033 18.0243C16.7565 18.0243 15.969 17.0537 15.969 15.9445C15.969 14.6967 17.2182 12.922 18.0601 12.1179C18.1145 12.0624 18.2231 11.9792 18.3317 11.9237C18.4132 11.8683 18.4947 11.8683 18.5761 11.8683C18.7934 11.8683 19.1465 12.1733 19.1465 12.4783C19.1465 12.5893 19.065 12.7002 18.9835 12.8111C18.6576 13.227 18.1145 13.7539 17.8429 14.1698H17.87C18.0058 14.1144 18.1959 14.0867 18.386 14.0867C19.3637 14.0867 20.097 14.974 20.097 15.9445C20.097 17.026 19.2551 18.0243 18.033 18.0243ZM21.129 14.5303L21.3463 12.7556C21.4006 12.1179 21.5907 11.9792 21.9709 11.9792H23.9534C24.3337 11.9792 24.5509 12.201 24.5509 12.5061C24.5509 13.0607 24.1164 13.1161 23.9806 13.1161H22.4326L22.2968 14.0035C22.5141 13.9757 22.7313 13.9203 22.9214 13.9203C23.9263 13.9203 24.6324 14.7244 24.6324 15.695C24.6324 17.1092 23.872 18.0243 22.4597 18.0243C21.8623 18.0243 20.6402 17.636 20.6402 16.9151C20.6402 16.5823 20.9117 16.3328 21.2105 16.3328C21.5364 16.3328 21.9166 16.8596 22.4597 16.8596C23.0572 16.8596 23.3288 16.305 23.3288 15.7782C23.3288 15.279 23.0572 14.9185 22.5412 14.9185C22.0795 14.9185 21.9981 15.1958 21.5907 15.1958C21.2648 15.1958 21.1018 14.9463 21.1018 14.8076C21.1018 14.6967 21.129 14.6135 21.129 14.5303ZM23.193 4.82496C22.5141 4.82496 21.9981 4.27036 21.9981 3.60485C21.9981 3.52166 21.9981 3.43847 21.9981 3.35529C22.1882 3.82669 22.6499 4.15945 23.193 4.15945C23.709 4.15945 24.1707 3.82669 24.3608 3.35529C24.3608 3.43847 24.388 3.52166 24.388 3.60485C24.388 4.27036 23.8448 4.82496 23.193 4.82496ZM4.80698 4.82496C4.15519 4.82496 3.61203 4.27036 3.61203 3.60485C3.61203 3.52166 3.63919 3.43847 3.63919 3.35529C3.82929 3.82669 4.29098 4.15945 4.80698 4.15945C5.35015 4.15945 5.78468 3.82669 5.97478 3.35529C6.00194 3.43847 6.00194 3.52166 6.00194 3.60485C6.00194 4.27036 5.45878 4.82496 4.80698 4.82496ZM24.8225 2.46794H24.3608V1.24783C24.3608 0.554593 23.8177 0 23.1659 0C22.4869 0 21.9709 0.554593 21.9709 1.24783V2.46794H6.0291V1.24783C6.0291 0.554593 5.48594 0 4.80698 0C4.15519 0 3.61203 0.554593 3.61203 1.24783V2.46794H3.15034C1.41222 2.46794 0 3.93761 0 5.71231V6.15598H28V5.71231C28 3.93761 26.5606 2.46794 24.8225 2.46794ZM21.8623 26.8423V30.8908C21.8623 31.5009 22.3511 32 22.9486 32H26.9137C27.5112 32 28 31.5009 28 30.8908V26.8423C28 26.2322 27.5112 25.7331 26.9137 25.7331H22.9486C22.3511 25.7331 21.8623 26.2322 21.8623 26.8423ZM14.5839 26.8423V30.8908C14.5839 31.5009 15.0456 32 15.6431 32H19.6081C20.2056 32 20.6945 31.5009 20.6945 30.8908V26.8423C20.6945 26.2322 20.2056 25.7331 19.6081 25.7331H15.6431C15.0456 25.7331 14.5839 26.2322 14.5839 26.8423ZM7.27837 26.8423V30.8908C7.27837 31.5009 7.76722 32 8.36469 32H12.3298C12.9273 32 13.3889 31.5009 13.3889 30.8908V26.8423C13.3889 26.2322 12.9273 25.7331 12.3298 25.7331H8.36469C7.76722 25.7331 7.27837 26.2322 7.27837 26.8423Z" fill="#7D7D7D"/>
</svg>
