<svg viewBox="0 0 41 29" fill="none" xmlns="http://www.w3.org/2000/svg">
<path d="M35.1546 20.2892C35.1546 21.2901 34.3351 22.1017 33.3245 22.1017H7.67555C6.66489 22.1017 5.84544 21.2901 5.84544 20.2892V7.60168C5.84544 6.60075 6.66489 5.78918 7.67555 5.78918H33.3245C34.3351 5.78918 35.1546 6.60075 35.1546 7.60168V20.2892ZM8.13991 9.27892C8.13991 8.73787 8.65889 8.30504 9.28714 8.30504H14.6682C15.3238 8.30504 15.8428 8.73787 15.8428 9.27892V13.7155C15.8428 14.2295 15.3238 14.6623 14.6682 14.6623H9.28714C8.65889 14.6623 8.13991 14.2295 8.13991 13.7155V9.27892ZM25.1572 9.27892C25.1572 8.73787 25.6762 8.30504 26.3045 8.30504H31.6855C32.3411 8.30504 32.8601 8.73787 32.8601 9.27892V18.4767C32.8601 18.9907 32.3411 19.4235 31.6855 19.4235H26.3045C25.6762 19.4235 25.1572 18.9907 25.1572 18.4767V9.27892ZM23.5183 9.57649H17.0993V8.30504H23.5183V9.57649ZM23.5183 11.7948H17.0993V11.1726H23.5183V11.7948ZM23.5183 14.3377H17.0993V13.7155H23.5183V14.3377ZM23.5183 16.8806H8.13991V16.2584H23.5183V16.8806ZM23.5183 19.4235H8.13991V18.7743H23.5183V19.4235ZM33.3245 0H7.67555C3.44171 0 0 3.40858 0 7.60168V21.3983C0 25.5914 3.44171 29 7.67555 29H33.3245C37.5583 29 41 25.5914 41 21.3983V7.60168C41 3.40858 37.5583 0 33.3245 0Z" fill="#7D7D7D"/>
</svg>
