<svg viewBox="0 0 30 30" fill="none" xmlns="http://www.w3.org/2000/svg">
<path d="M29.9731 16.8633H16.8666H16.8397V30H27.9857C29.0868 30 29.9731 29.1153 29.9731 28.0161V19.571V18.0965C30 17.9893 30 17.8552 30 17.748V16.8633H29.9731ZM29.9731 11.9035V10.429V2.01072C29.9731 0.911528 29.0868 0 27.9857 0H16.8397V13.1367H16.8666H29.9731H30V12.2788C30 12.1448 30 12.0375 29.9731 11.9035ZM0 12.252V12.2788V13.1367H13.1065H13.1334V0H1.98747C0.886303 0 0 0.911528 0 2.01072V12.252ZM0 16.8633V17.748V17.7748V28.0161C0 29.1153 0.886303 30 1.98747 30H13.1334V16.8633H13.1065H0Z" fill="#7D7D7D"/>
</svg>
