<svg viewBox="0 0 39 33" fill="none" xmlns="http://www.w3.org/2000/svg">
<path d="M21.7894 31.1561C17.9378 31.1561 15.7293 29.963 15.3791 29.4207C15.7293 28.8513 17.9378 27.6582 21.7894 27.6582C25.6409 27.6582 27.8225 28.8513 28.1727 29.4207C27.8225 29.963 25.6409 31.1561 21.7894 31.1561ZM5.44061 11.0904C5.44061 9.70748 7.91851 6.1553 7.91851 6.1553C7.91851 6.1553 10.3964 9.70748 10.3964 11.0904C10.3964 12.4462 9.29213 13.585 7.91851 13.585C6.57182 13.585 5.44061 12.4462 5.44061 11.0904ZM4.14779 3.7691C4.14779 3.7691 5.97928 6.37223 5.97928 7.37551C5.97928 8.3788 5.17127 9.21939 4.14779 9.21939C3.15124 9.21939 2.34323 8.3788 2.34323 7.37551C2.34323 6.37223 4.14779 3.7691 4.14779 3.7691ZM10.1809 6.96878C10.1809 6.29088 11.4199 4.50123 11.4199 4.50123C11.4199 4.50123 12.6588 6.29088 12.6588 6.96878C12.6588 7.67379 12.0932 8.24322 11.4199 8.24322C10.7196 8.24322 10.1809 7.67379 10.1809 6.96878ZM15.7831 7.94495C15.7831 3.55218 12.2548 0 7.89157 0C3.52831 0 0 3.55218 0 7.94495C0 12.3377 3.52831 15.8899 7.89157 15.8899C12.2548 15.8899 15.7831 12.3377 15.7831 7.94495ZM30.058 22.5875C30.058 20.6081 26.3412 18.9811 21.7894 18.9811C17.2106 18.9811 13.5207 20.6081 13.5207 22.5875V29.4207C13.5207 31.4002 17.2106 33 21.7894 33C26.3412 33 30.058 31.4002 30.058 29.4207V22.5875ZM11.6623 22.5875C11.6623 19.0082 16.7528 17.1372 21.7894 17.1372C26.799 17.1372 31.8895 19.0082 31.8895 22.5875V23.3739H39L35.1215 11.226H17.2645C15.9178 15.1306 12.2279 17.9236 7.89157 17.9236C7.3529 17.9236 6.84116 17.8694 6.32942 17.788L4.5518 23.3739H11.6623V22.5875Z" fill="#7D7D7D"/>
</svg>
