<svg viewBox="0 0 41 34" fill="none" xmlns="http://www.w3.org/2000/svg">
<path d="M24.6557 22.3226C23.8566 23.6221 22.3914 24.1475 21.3791 23.4562C20.3668 22.7926 20.207 21.1889 21.0061 19.8894C21.832 18.5622 23.2971 18.0645 24.3094 18.7281C25.3217 19.3917 25.4816 20.9954 24.6557 22.3226ZM27 19.2535C27 14.3594 21.5123 8.58065 21.2725 8.3318C21.0594 8.1106 20.793 8 20.5 8C20.2336 8 19.9406 8.1106 19.7275 8.3318C19.5143 8.58065 14 14.3594 14 19.2535C14 22.9862 16.9037 26 20.5 26C24.0963 26 27 22.9862 27 19.2535Z" fill="#7D7D7D"/>
<path d="M20.6335 0C15.9355 0 11.6914 1.92812 8.62175 5.05112C5.55208 8.17412 3.63021 12.5192 3.63021 17.2987V17.9776H2.96289H0H0.0266927L2.58919 20.5847L5.17839 23.2189C5.36523 23.4089 5.60547 23.4904 5.8457 23.4904C6.08594 23.4904 6.32617 23.4089 6.51302 23.2189L9.10221 20.5847L11.6914 17.9776H11.6647H8.62175H7.95443V17.2987C7.95443 13.7141 9.36914 10.5096 11.6647 8.17412C13.9603 5.83866 17.1367 4.39936 20.6335 4.39936C22.3418 4.39936 23.9701 4.72524 25.4915 5.377C26.8262 5.94728 28.054 6.73482 29.1217 7.71246L32.1647 4.58946C30.7233 3.20447 29.015 2.09105 27.1465 1.30351C25.1445 0.461661 22.929 0 20.6335 0ZM20.3665 34C25.0645 34 29.3086 32.0719 32.4049 28.9217C35.4746 25.7987 37.3698 21.4808 37.3698 16.7013V16.0224H38.0371H41L38.4108 13.3882L35.8216 10.754C35.6615 10.5911 35.3945 10.4824 35.1543 10.4824C34.9141 10.4824 34.6738 10.5639 34.487 10.754L31.8978 13.3882L29.3353 16.0224H32.3783H33.0456V16.7013C33.0456 20.2588 31.6309 23.4904 29.3353 25.8259C27.0397 28.1613 23.8633 29.6006 20.3665 29.6006C18.6582 29.6006 17.0299 29.2476 15.5352 28.623C14.1738 28.0527 12.946 27.2652 11.9049 26.2875L8.83529 29.4105C10.3034 30.7684 12.0117 31.9089 13.8802 32.6965C15.8822 33.5383 18.071 34 20.3665 34Z" fill="#7D7D7D"/>
</svg>
