<svg viewBox="0 0 30 40" fill="none" xmlns="http://www.w3.org/2000/svg">
<path d="M23.1653 27.9255C23.8936 29.5479 24.7059 31.1436 24.0056 32.7394H21.3445L23.5014 36.383L25.6583 40L27.8431 36.383L30 32.7394H27.507C28.4594 30.5053 26.5266 28.2979 25.9104 26.0638C25.07 26.7553 24.1457 27.3936 23.1653 27.9255ZM25.3221 13.3245C24.8459 13.3245 24.3978 13.2979 23.9496 13.2979C24.2297 13.0585 24.4818 12.7926 24.7339 12.5532C25.4622 11.8617 24.3417 10.8245 23.6415 11.4894C22.9972 12.1011 22.381 12.6064 21.7367 13.2181C20.7563 13.2181 18.7115 13.2181 17.0028 13.2181C18.2353 12.0745 19.6639 10.6915 20.3641 10.0532C21.2605 10.0532 22.0728 9.9734 22.9692 9.9734C24.0056 9.9734 24.0056 8.51064 22.9692 8.51064C22.605 8.51064 22.2409 8.51064 21.8487 8.51064C22.1569 8.19149 22.493 7.87234 22.8011 7.57979C23.5294 6.8883 22.409 5.82447 21.7087 6.51596C21.3725 6.83511 21.0644 7.12766 20.7563 7.44681C20.7563 7.07447 20.7563 6.70213 20.7563 6.32979C20.7563 5.37234 19.1597 5.37234 19.1597 6.32979C19.1597 7.20745 19.1597 8.08511 19.1597 8.93617C18.4874 9.62766 16.9748 11.0372 15.7423 12.2074C15.7423 10.5585 15.7423 8.48404 15.7423 7.5266C16.3585 6.91489 16.9188 6.32979 17.535 5.71809C18.2633 5.05319 17.1429 3.98936 16.4426 4.65426C16.1625 4.92021 15.9104 5.18617 15.6303 5.42553C15.6303 5 15.6303 4.54787 15.6303 4.12234C15.6303 3.16489 14.0616 3.16489 14.0616 4.12234C14.0616 4.54787 14.0616 5 14.0616 5.42553C13.7815 5.15957 13.5294 4.89362 13.2493 4.65426C12.521 3.96277 11.4286 5.0266 12.1289 5.69149C12.7731 6.30319 13.4174 6.94149 14.0896 7.55319C14.0896 8.48404 14.0896 10.5053 14.0616 12.1543C12.8291 10.9574 11.2885 9.49468 10.5882 8.82979C10.5882 7.97872 10.5322 7.18085 10.5322 6.32979C10.5322 5.37234 8.96359 5.37234 8.96359 6.32979C8.96359 6.70213 8.96359 7.04787 8.96359 7.42021C8.62745 7.10106 8.31933 6.80851 7.98319 6.48936C7.2549 5.82447 6.13445 6.8883 6.86275 7.55319C7.19888 7.84574 7.507 8.16489 7.84314 8.45745C7.45098 8.45745 7.05882 8.45745 6.69468 8.45745C5.65826 8.45745 5.65826 9.94681 6.69468 9.94681C7.59104 9.94681 8.51541 9.94681 9.43978 9.94681C10.1401 10.6117 11.6527 12.0479 12.8571 13.2181C11.1204 13.2181 8.93557 13.2181 7.92717 13.2181C7.28291 12.6064 6.66667 12.1011 6.02241 11.4894C5.32213 10.8245 4.20168 11.8617 4.92997 12.5532C5.18207 12.7926 5.46218 13.0585 5.71429 13.2979C5.26611 13.2979 4.78992 13.3245 4.34174 13.3245C3.33333 13.3245 3.33333 14.8138 4.34174 14.8138C4.78992 14.8138 5.26611 14.8138 5.71429 14.8138C5.43417 15.0532 5.15406 15.3191 4.87395 15.5851C4.17367 16.25 5.29412 17.3138 5.9944 16.6223C6.63866 16.0106 7.28291 15.3989 7.95518 14.7872C8.96359 14.7872 11.2325 14.7872 13.0252 14.7872C11.7647 15.984 10.1681 17.5 9.43978 18.1915C8.51541 18.1915 7.59104 18.1915 6.69468 18.1915C5.65826 18.1915 5.65826 19.6809 6.69468 19.6809C7.05882 19.6809 7.45098 19.6809 7.84314 19.6809C7.507 20 7.19888 20.2926 6.86275 20.6117C6.13445 21.2766 7.2549 22.3404 7.98319 21.6489C8.31933 21.3564 8.62745 21.0372 8.96359 20.7447C8.96359 21.0904 8.96359 21.4628 8.96359 21.8085C8.96359 22.766 10.5322 22.766 10.5322 21.8085C10.5322 20.9574 10.5882 20.1596 10.5882 19.3085C11.2885 18.6436 12.8291 17.1809 14.0616 16.0106C14.0896 17.6596 14.0896 19.6809 14.0896 20.6117C13.4174 21.25 12.7731 21.8617 12.1289 22.4734C11.4286 23.1383 12.521 24.2021 13.2493 23.5106C13.5294 23.2713 13.7815 23.0053 14.0616 22.7394C14.0616 23.1915 14.0616 23.617 14.0616 24.0426C14.0616 25 15.6303 25 15.6303 24.0426C15.6303 23.617 15.6303 23.1649 15.6303 22.7394C15.9104 23.0053 16.1625 23.2447 16.4426 23.5106C17.1429 24.1755 18.2633 23.1383 17.535 22.4468C16.9188 21.8351 16.3585 21.25 15.7423 20.6383C15.7423 19.6809 15.7423 17.6064 15.7423 15.9309C16.9748 17.1011 18.4874 18.5372 19.1597 19.2021C19.1597 20.0798 19.1597 20.9309 19.1597 21.8085C19.1597 22.766 20.7563 22.766 20.7563 21.8085C20.7563 21.4362 20.7563 21.0904 20.7563 20.7181C21.0644 21.0106 21.3725 21.3298 21.7087 21.6489C22.409 22.3138 23.5294 21.25 22.8011 20.5851C22.493 20.266 22.1569 19.9468 21.8487 19.6543C22.2409 19.6543 22.605 19.6543 22.9692 19.6543C24.0056 19.6543 24.0056 18.1649 22.9692 18.1649C22.0728 18.1649 21.2605 18.1117 20.3641 18.1117C19.6359 17.4202 18.0952 15.9574 16.8627 14.7872C18.5994 14.7872 20.7283 14.7872 21.7087 14.7872C22.381 15.3989 23.0252 16.0106 23.6695 16.6223C24.3697 17.3138 25.4902 16.25 24.7619 15.5851C24.5098 15.3191 24.2297 15.0532 23.9496 14.8138C24.3978 14.8138 24.8739 14.8138 25.3221 14.8138C26.3305 14.8138 26.3305 13.3245 25.3221 13.3245ZM14.8459 28.1649C6.63866 28.1649 0 21.8617 0 14.0957C0 6.30319 6.63866 0 14.8459 0C23.0252 0 29.6639 6.30319 29.6639 14.0957C29.6639 21.8617 23.0252 28.1649 14.8459 28.1649ZM2.12885 24.5213C1.79272 27.3404 5.04202 30.0266 3.86555 32.9787H1.20448L3.36134 36.4628L5.51821 40L7.70308 36.4894L9.85994 32.9787H7.36695C8.06723 31.2234 7.19888 29.5479 6.44258 27.8989C4.81793 26.9947 3.36134 25.8511 2.12885 24.5213ZM13.9216 30C14.2297 30.9309 14.3417 31.8617 13.9496 32.8191H11.2605L13.4174 36.383L15.6022 39.9468L17.7591 36.383L19.916 32.8191H17.451C17.8711 31.8085 17.7031 30.8245 17.3669 29.8404C16.5266 29.9734 15.6863 30.0266 14.8459 30.0266C14.5378 30.0266 14.2297 30.0266 13.9216 30Z" fill="#7D7D7D"/>
</svg>
