<svg viewBox="0 0 38 32" fill="none" xmlns="http://www.w3.org/2000/svg">
<path d="M13.5328 11.3084C13.2892 11.3084 13.0456 11.3084 12.802 11.3084C12.9644 11.445 13.0997 11.5815 13.235 11.7181C13.614 12.1278 13.0185 12.7014 12.6396 12.319C12.3148 11.9913 11.963 11.6908 11.6382 11.363C11.0969 11.363 10.0142 11.363 9.09402 11.363C9.74359 11.9913 10.5285 12.7834 10.8803 13.1385C11.3675 13.1385 11.8006 13.1931 12.2877 13.1931C12.8291 13.1931 12.8291 14.0399 12.2877 14.0399C12.0983 14.0399 11.8818 14.0399 11.6923 14.0399C11.8547 14.2038 12.0171 14.3677 12.2066 14.5589C12.5855 14.9413 11.99 15.5422 11.6111 15.1598C11.4217 14.9686 11.2593 14.8047 11.0969 14.6408C11.0969 14.832 11.0969 15.0505 11.0969 15.2417C11.0969 15.8153 10.2578 15.8153 10.2578 15.2417C10.2578 14.7774 10.2578 14.2584 10.2578 13.7667C9.87892 13.3843 9.06695 12.5922 8.41738 11.9093C8.41738 12.8653 8.41738 14.0399 8.41738 14.5862C8.74217 14.914 9.03989 15.269 9.39174 15.5968C9.77065 15.9792 9.17521 16.5802 8.7963 16.1978C8.66097 16.0612 8.49858 15.9246 8.36325 15.7607C8.36325 16.0066 8.36325 16.2797 8.36325 16.5255C8.36325 17.0445 7.52422 17.0445 7.52422 16.5255C7.52422 16.2797 7.52422 16.0339 7.52422 15.788C7.38889 15.9246 7.2265 16.0612 7.09117 16.2251C6.71225 16.6075 6.11681 16.0066 6.49573 15.6241C6.84758 15.269 7.19943 14.914 7.52422 14.5589C7.52422 14.0399 7.52422 12.8926 7.52422 11.9639C6.87464 12.6195 6.06268 13.4663 5.65669 13.8487C5.65669 14.313 5.62963 14.7774 5.62963 15.2417C5.62963 15.8153 4.7906 15.8153 4.7906 15.2417C4.7906 15.0505 4.7906 14.8593 4.7906 14.6408C4.62821 14.832 4.43875 14.9959 4.27635 15.1598C3.89744 15.5422 3.30199 14.9413 3.68091 14.5589C3.8433 14.395 4.03276 14.2311 4.19516 14.0399C3.97863 14.0399 3.78917 14.0399 3.57265 14.0399C3.03134 14.0399 3.03134 13.1931 3.57265 13.1931C4.05983 13.1931 4.57407 13.1931 5.06125 13.1931C5.44017 12.838 6.22507 12.0186 6.87464 11.363C5.95442 11.363 4.7906 11.363 4.24929 11.363C3.89744 11.6908 3.57265 11.9913 3.2208 12.319C2.84188 12.7014 2.24644 12.1278 2.62536 11.7181C2.78775 11.5815 2.92308 11.445 3.0584 11.3084C2.81481 11.3084 2.57122 11.3084 2.32764 11.3084C1.78632 11.2811 1.78632 10.4343 2.32764 10.4343C2.57122 10.4343 2.81481 10.4616 3.0584 10.4616C2.92308 10.2977 2.76068 10.1612 2.62536 9.99727C2.24644 9.61486 2.84188 9.01393 3.2208 9.42365C3.57265 9.75143 3.89744 10.1065 4.24929 10.4616C4.81766 10.4616 6.00855 10.4616 6.95584 10.4616C6.30627 9.77875 5.44017 8.90467 5.06125 8.52226C4.57407 8.52226 4.05983 8.52226 3.57265 8.52226C3.03134 8.52226 3.03134 7.6755 3.57265 7.6755C3.78917 7.6755 3.97863 7.6755 4.19516 7.6755C4.03276 7.51161 3.8433 7.3204 3.68091 7.15651C3.30199 6.7741 3.89744 6.17318 4.27635 6.55558C4.43875 6.71947 4.62821 6.91068 4.7906 7.07457C4.7906 6.88336 4.7906 6.66484 4.7906 6.47364C4.7906 5.92734 5.62963 5.92734 5.62963 6.47364C5.62963 6.93799 5.65669 7.40235 5.65669 7.89402C6.06268 8.27643 6.87464 9.09587 7.52422 9.75143C7.52422 8.82272 7.52422 7.6755 7.52422 7.15651C7.19943 6.80142 6.84758 6.44632 6.49573 6.09123C6.11681 5.70882 6.71225 5.10789 7.09117 5.4903C7.2265 5.65419 7.38889 5.79077 7.52422 5.92734C7.52422 5.68151 7.52422 5.43567 7.52422 5.18984C7.52422 4.64354 8.36325 4.64354 8.36325 5.18984C8.36325 5.43567 8.36325 5.68151 8.36325 5.92734C8.49858 5.79077 8.66097 5.65419 8.7963 5.51762C9.17521 5.13521 9.77065 5.73614 9.39174 6.11855C9.03989 6.44632 8.74217 6.80142 8.41738 7.1292C8.41738 7.6755 8.41738 8.85004 8.41738 9.80606C9.06695 9.1505 9.87892 8.33105 10.2578 7.94865C10.2578 7.45698 10.2578 6.96531 10.2578 6.47364C10.2578 5.92734 11.0969 5.92734 11.0969 6.47364C11.0969 6.66484 11.0969 6.88336 11.0969 7.10188C11.2593 6.91068 11.4217 6.74679 11.6111 6.55558C11.99 6.17318 12.5855 6.7741 12.2066 7.18383C12.0171 7.34772 11.8547 7.51161 11.6923 7.70281C11.8818 7.70281 12.0983 7.70281 12.2877 7.70281C12.8291 7.70281 12.8291 8.54957 12.2877 8.54957C11.8006 8.54957 11.3675 8.57689 10.8803 8.57689C10.5014 8.9593 9.68946 9.77875 9.01282 10.4616C9.93305 10.4616 11.0969 10.4616 11.6111 10.4616C11.963 10.1065 12.3148 9.75143 12.6667 9.42365C13.0456 9.01393 13.641 9.61486 13.235 9.99727C13.0997 10.1612 12.9644 10.2977 12.802 10.4616C13.0456 10.4616 13.2892 10.4343 13.5328 10.4343C14.0741 10.4343 14.0741 11.2811 13.5328 11.3084ZM10.312 25.9492C9.20228 25.9492 8.33618 26.8506 8.33618 27.9432C8.33618 29.0358 9.20228 29.9372 10.312 29.9372C11.3946 29.9372 12.2877 29.0358 12.2877 27.9432C12.2877 26.8506 11.3946 25.9492 10.312 25.9492ZM38 11.8547C38 18.383 32.7493 23.7094 26.2536 23.7094C24.4402 23.7094 22.7621 23.2996 21.2194 22.5621L12.8561 31.0025C11.4487 32.4228 9.03989 32.3136 7.49715 30.7566C5.95442 29.1997 5.84615 26.796 7.25356 25.3483L13.9387 18.6288C14.5613 18.1371 15.1296 17.5635 15.6168 16.9079C16.916 15.2417 17.7009 13.1385 17.7009 10.8713C17.7009 8.9593 17.1595 7.18383 16.2122 5.65419C18.2963 2.26714 22.0043 0 26.2536 0C27.3362 0 28.3917 0.136575 29.3932 0.409724L24.386 5.46299C22.302 7.56624 22.4373 11.1172 24.7108 13.4116C26.9573 15.6788 30.4758 15.8153 32.5598 13.7394L37.567 8.68615C37.8376 9.66949 38 10.7348 38 11.8547ZM7.9302 2.84075C3.54558 2.84075 0 6.44632 0 10.8713C0 15.269 3.54558 18.8746 7.9302 18.8746C12.3148 18.8746 15.8604 15.269 15.8604 10.8713C15.8604 6.44632 12.3148 2.84075 7.9302 2.84075Z" fill="#7D7D7D"/>
</svg>
