<svg viewBox="0 0 41 34" fill="none" xmlns="http://www.w3.org/2000/svg">
<path d="M20.6202 0C15.9459 0 11.6723 1.92812 8.60065 5.05112C5.52899 8.17412 3.63257 12.5192 3.63257 17.2987V17.9776H2.96482H0L2.59088 20.5847L5.15505 23.2189C5.34202 23.4089 5.58241 23.4904 5.8228 23.4904C6.06319 23.4904 6.33029 23.4089 6.49055 23.2189L9.08143 20.5847L11.6723 17.9776H8.62736H7.95961V17.2987C7.95961 13.7141 9.37524 10.5096 11.6723 8.17412C13.9694 5.83866 17.1212 4.39936 20.6202 4.39936C22.3564 4.39936 23.9857 4.72524 25.4814 5.377C26.8169 5.94728 28.0456 6.73482 29.114 7.71246L32.1857 4.58946C30.7166 3.20447 29.0072 2.09105 27.1375 1.30351C25.1342 0.461661 22.944 0 20.6202 0ZM20.3798 34C25.0541 34 29.3277 32.0719 32.3993 28.9217C35.471 25.7987 37.3674 21.4808 37.3674 16.7013V16.0224H38.0352H41L38.4358 13.3882L35.845 10.754C35.658 10.5911 35.4176 10.4824 35.1772 10.4824C34.9368 10.4824 34.6964 10.5639 34.5094 10.754L31.9186 13.3882L29.3277 16.0224H32.3726H33.0404V16.7013C33.0404 20.2588 31.6248 23.4904 29.3277 25.8259C27.0306 28.1613 23.8788 29.6006 20.3798 29.6006C18.6436 29.6006 17.0143 29.2476 15.5186 28.623C14.1831 28.0527 12.9544 27.2652 11.886 26.2875L8.81433 29.4105C10.2834 30.7684 11.9928 31.9089 13.8625 32.6965C15.8658 33.5383 18.056 34 20.3798 34Z" fill="#7D7D7D"/>
<path d="M28.1851 17.8066H27.7917L27.9322 17.9653H27.9603C28.2132 18.2298 28.2413 18.5207 28.1289 18.7851C28.0727 18.8909 28.0165 18.9702 27.9322 19.0496C27.8479 19.1289 27.7636 19.1818 27.6512 19.2347C27.3702 19.3405 27.0612 19.314 26.7802 19.0496C26.5273 18.838 26.3025 18.6264 26.0496 18.4149L26.0215 18.3884C25.8529 18.2562 25.7124 18.0975 25.5438 17.9388C25.4876 17.9124 25.4314 17.886 25.3471 17.886C24.8694 17.886 24.1669 17.886 23.4364 17.886H23.2116C23.1273 17.886 23.043 17.9124 23.0149 17.9917C22.9868 18.0711 23.0149 18.1504 23.0711 18.2033L23.7455 18.8645C24.1107 19.1818 24.4198 19.4992 24.6446 19.7107C24.9256 19.7107 25.2347 19.7107 25.5157 19.7372C25.8248 19.7372 26.1339 19.7372 26.4711 19.7372C26.8645 19.7372 27.1174 19.9488 27.2298 20.2132C27.2579 20.319 27.286 20.4248 27.286 20.5306C27.286 20.6364 27.2579 20.7421 27.2298 20.8215L27.2017 20.8479C27.0893 21.1124 26.8645 21.2975 26.4711 21.2975H26.2463L26.5273 21.562V21.5884C26.8083 21.8264 26.8083 22.1438 26.6959 22.4083C26.6678 22.514 26.5835 22.5934 26.4992 22.6727C26.443 22.7521 26.3306 22.805 26.2182 22.8314C25.9653 22.9636 25.6281 22.9372 25.3471 22.6727L25.0942 22.4083V22.6198C25.0942 22.9901 24.8694 23.2281 24.5884 23.3339C24.476 23.3868 24.3636 23.3868 24.2512 23.3868C24.1388 23.3868 24.0264 23.3868 23.9141 23.3339C23.6331 23.2281 23.4364 22.9901 23.4364 22.6198V20.8479C23.043 20.4777 22.4248 19.8694 21.7785 19.2876C21.6942 19.2083 21.6099 19.2083 21.5537 19.2347C21.4694 19.2612 21.4132 19.3405 21.4132 19.4198V19.6579C21.4132 20.3983 21.4132 21.086 21.4132 21.562C21.4132 21.6413 21.4413 21.6942 21.4975 21.7471C21.6661 21.9058 21.8347 22.0909 22.0033 22.2496C22.2281 22.4876 22.4529 22.6992 22.6777 22.9107C22.9306 23.1752 22.9587 23.4926 22.8463 23.7306C22.7901 23.8364 22.7339 23.9157 22.6496 23.995C22.5653 24.0744 22.481 24.1273 22.3686 24.1802C22.1157 24.286 21.7785 24.286 21.4975 24.0215L21.3289 23.8628V24.2331V24.2595C21.3289 24.6033 21.1041 24.8413 20.8231 24.9471C20.7107 24.9736 20.5983 25 20.486 25C20.3736 25 20.2612 24.9736 20.1769 24.9471C19.8959 24.8413 19.6711 24.6033 19.6711 24.2331V23.8893L19.6149 23.9421L19.5306 24.0215C19.2496 24.286 18.9124 24.3124 18.6314 24.2066C18.519 24.1537 18.4347 24.1008 18.3504 24.0215C18.2661 23.9421 18.2099 23.8628 18.1818 23.757C18.0413 23.4926 18.0694 23.1752 18.3504 22.9372L19.3058 22.038L19.6149 21.7471C19.6711 21.6942 19.6992 21.6149 19.6992 21.562C19.6992 21.0331 19.6992 20.2661 19.6992 19.4727C19.6992 19.3934 19.643 19.314 19.5587 19.2876C19.4744 19.2612 19.3901 19.2612 19.3339 19.314L19.081 19.5785C18.5471 20.0545 18.0694 20.5306 17.7322 20.8479C17.676 20.9008 17.6479 20.9537 17.6479 21.0331C17.6479 21.2446 17.6198 21.5091 17.6198 21.7471C17.6198 22.0116 17.5917 22.3025 17.5917 22.6198C17.5917 22.9901 17.3669 23.2281 17.086 23.3339C17.0017 23.3868 16.8893 23.3868 16.7769 23.3868C16.6645 23.3868 16.5521 23.3868 16.4397 23.3339C16.1587 23.2281 15.9339 22.9901 15.9339 22.6198V22.4347L15.6529 22.6992C15.3719 22.9372 15.0347 22.9636 14.7818 22.8579L14.7537 22.8314C14.6694 22.805 14.557 22.7521 14.5008 22.6727C14.4165 22.5934 14.3603 22.514 14.3041 22.4083C14.1917 22.1438 14.2198 21.8264 14.4727 21.5884L14.7537 21.324H14.5289C14.1355 21.324 13.8826 21.1124 13.7702 20.8479C13.7421 20.7686 13.714 20.6628 13.714 20.557C13.714 20.4512 13.7421 20.3455 13.7702 20.2397C13.8826 19.9752 14.1355 19.7636 14.5289 19.7636H16.3273C16.4116 19.7636 16.4678 19.7372 16.524 19.6843C16.8331 19.3934 17.2826 18.9967 17.7322 18.5471L18.0975 18.2033C18.1537 18.1504 18.1818 18.0711 18.1256 17.9917C18.0975 17.9124 18.0413 17.886 17.957 17.886H17.676C16.9174 17.886 16.1587 17.886 15.6529 17.886C15.5686 17.886 15.5124 17.9124 15.4562 17.9388C15.2876 18.0975 15.119 18.2562 14.9504 18.3884V18.4149C14.6975 18.6264 14.4727 18.8116 14.2198 19.0496V19.076C13.9388 19.314 13.6298 19.3405 13.3488 19.2347C13.2364 19.1818 13.1521 19.1289 13.0678 19.0496C12.9835 18.9702 12.9273 18.8909 12.8711 18.7851C12.7587 18.5207 12.7868 18.2033 13.0397 17.9653H13.0678L13.2083 17.8066H12.8149H12.7868C12.3934 17.7802 12.1686 17.595 12.0562 17.3306C12.0281 17.2248 12 17.119 12 17.0132C12 16.9074 12.0281 16.8017 12.0562 16.6959C12.1686 16.4314 12.4215 16.2463 12.8149 16.2463H13.2083L13.0397 16.0876C12.7587 15.8231 12.7306 15.5322 12.8711 15.2678C12.8992 15.162 12.9554 15.0826 13.0397 15.0033C13.124 14.924 13.2083 14.8711 13.3207 14.8182C13.6017 14.7124 13.9388 14.7388 14.2198 14.9769L14.9223 15.6645L15.4843 16.1934C15.5405 16.2463 15.5967 16.2727 15.681 16.2727C16.1306 16.2727 16.7769 16.2727 17.4512 16.2463H18.0413C18.1537 16.2463 18.2099 16.2198 18.238 16.1405C18.2942 16.0612 18.2661 15.9818 18.2099 15.9289L17.5074 15.2678L16.524 14.3421C16.4678 14.2893 16.4116 14.2628 16.3273 14.2628H14.5289C14.1355 14.2628 13.8826 14.0512 13.7702 13.7868C13.7421 13.681 13.714 13.5752 13.714 13.4694C13.714 13.3636 13.7421 13.2579 13.7702 13.1785C13.8826 12.914 14.1355 12.7025 14.5289 12.7025H14.7537L14.7256 12.676L14.4727 12.438C14.2198 12.1736 14.1917 11.8826 14.3041 11.6182C14.3603 11.5124 14.4165 11.4331 14.5008 11.3537C14.557 11.2744 14.6694 11.2215 14.7537 11.1686C15.0347 11.0628 15.3719 11.0893 15.6529 11.3273L15.9339 11.5917V11.3802C15.9339 11.0364 16.1587 10.7983 16.4397 10.6926C16.5521 10.6397 16.6645 10.6397 16.7769 10.6397C16.8893 10.6397 17.0017 10.6397 17.086 10.6926C17.3669 10.7983 17.5917 11.0364 17.5917 11.3802C17.5917 11.724 17.6198 12.0149 17.6198 12.2793V12.3058C17.6198 12.5438 17.6479 12.7818 17.6479 12.9934C17.6479 13.0727 17.676 13.1256 17.7322 13.1785C18.1256 13.5488 18.7157 14.1306 19.3339 14.686C19.3901 14.7653 19.4744 14.7653 19.5587 14.7388C19.643 14.7124 19.6992 14.6331 19.6992 14.5537C19.6992 13.7603 19.6992 12.9669 19.6992 12.4645C19.6992 12.3851 19.6711 12.3322 19.6149 12.2793C19.4182 12.0942 19.1934 11.8826 18.9967 11.6975L18.3504 11.0893C18.0694 10.8248 18.0413 10.5074 18.1818 10.243C18.2099 10.1636 18.2661 10.0579 18.3504 10.005L18.3785 9.97851C18.4347 9.92562 18.5471 9.84628 18.6314 9.81983C18.9124 9.71405 19.2496 9.71405 19.5306 9.97851L19.6711 10.1107V10.1372V9.76694C19.6711 9.39669 19.8959 9.18512 20.1769 9.07934C20.2612 9.02645 20.3736 9 20.486 9H20.514C20.6264 9 20.7107 9.02645 20.8231 9.07934C21.1041 9.15868 21.3289 9.39669 21.3289 9.76694V10.1372L21.4975 10.005C21.7785 9.7405 22.1157 9.71405 22.3686 9.84628C22.481 9.87273 22.5653 9.92562 22.6496 10.005C22.7339 10.0843 22.7901 10.1636 22.8463 10.2694C22.9587 10.5339 22.9306 10.8512 22.6777 11.0893C22.4529 11.3008 22.2562 11.5124 22.0314 11.724C21.8628 11.9091 21.6942 12.0678 21.4975 12.2529C21.4413 12.3058 21.4132 12.3851 21.4132 12.438C21.4132 12.914 21.4132 13.6281 21.4132 14.3686V14.6066C21.4132 14.686 21.4694 14.7653 21.5537 14.7917C21.6099 14.8182 21.6942 14.8182 21.7785 14.7388L22.5653 14.0248C22.8463 13.7339 23.1273 13.4694 23.3521 13.2579C23.4083 13.205 23.4364 13.1521 23.4364 13.0727V11.3802C23.4364 11.0364 23.6331 10.7983 23.9141 10.6926C24.0264 10.6397 24.1388 10.6397 24.2512 10.6397C24.3636 10.6397 24.476 10.6397 24.5884 10.6926C24.8694 10.7983 25.0942 11.0364 25.0942 11.3802V11.6182L25.3471 11.3537C25.6281 11.0893 25.9653 11.0628 26.2182 11.195H26.2463C26.3306 11.2215 26.443 11.3008 26.4992 11.3537C26.5835 11.4331 26.6678 11.5124 26.6959 11.6182C26.8083 11.8826 26.8083 12.2 26.5273 12.4645C26.443 12.5438 26.3306 12.6231 26.2463 12.7289H26.4711C26.8645 12.7289 27.1174 12.9405 27.2298 13.205C27.2579 13.2843 27.286 13.3901 27.286 13.4959C27.286 13.6017 27.2579 13.7074 27.2298 13.8132C27.1174 14.0777 26.8645 14.2893 26.4711 14.2893C26.1058 14.2893 25.8248 14.2893 25.5157 14.2893C25.2628 14.3157 25.0099 14.3157 24.757 14.3157C24.7008 14.3157 24.6165 14.3421 24.5603 14.395C24.195 14.7653 23.6331 15.2942 23.043 15.8231L22.9587 15.9289C22.9025 15.9818 22.8744 16.0612 22.9025 16.1405C22.9306 16.2198 23.0149 16.2463 23.0992 16.2727H23.9702C24.5041 16.2727 24.9818 16.2727 25.319 16.2727C25.4033 16.2727 25.4595 16.2463 25.5157 16.1934C25.8248 15.9025 26.1058 15.638 26.3868 15.3736L26.7802 14.9769C27.0612 14.7388 27.3983 14.7124 27.6793 14.8182L27.8198 14.924C28.0165 15.0826 28.1008 15.162 28.1289 15.2678C28.2694 15.5322 28.2413 15.8231 27.9603 16.0876L27.7917 16.2463H28.1851C28.5785 16.2463 28.8314 16.4579 28.9438 16.6959V16.7223C28.9719 16.8017 29 16.9074 29 17.0132C29 17.119 28.9719 17.2248 28.9438 17.3306C28.8314 17.595 28.5785 17.8066 28.1851 17.8066Z" fill="#7D7D7D"/>
</svg>
