<svg viewBox="0 0 43 44" fill="none" xmlns="http://www.w3.org/2000/svg">
<path fill-rule="evenodd" clip-rule="evenodd" d="M19.8174 32.7567C20.0043 33.1686 19.9509 33.3883 19.7106 33.7453C19.5503 33.9375 19.2031 34.3494 18.8559 34.1297C18.4286 33.8551 19.0161 32.5645 19.8174 32.7567ZM17.6006 23.4202L18.8559 23.887C19.0161 23.6124 18.9894 23.4202 19.7373 23.3653C20.2981 23.3378 20.7789 23.4202 20.859 23.9145C20.5919 24.3264 20.2981 24.244 19.7106 24.2715C19.7106 24.2989 19.764 24.2715 19.764 24.3264C19.764 24.3539 19.8174 24.3539 19.8174 24.3813L22.7553 25.617C24.0373 24.4362 21.954 24.4912 21.6068 24.2166C21.313 23.9694 21.0727 23.1731 20.7255 22.8161C19.8975 21.9373 18.2149 22.8435 17.6006 23.4202ZM15.9447 39.5119L18.6957 39.4845L18.6689 38.6057L14.8497 38.6332L14.9031 43.9056H18.7491L18.7758 42.9994L15.918 42.9444L15.9447 41.5714L18.5087 41.544L18.482 40.6652L15.918 40.6378L15.9447 39.5119ZM20.6186 39.7041C21.046 39.3472 21.9807 39.0451 22.3814 40.171L23.3696 40.116C23.6901 38.4135 20.5118 37.9192 19.7373 39.3197C19.2565 40.1984 19.7907 41.0222 20.4317 41.3243C21.1261 41.6264 22.1143 41.5989 22.5149 42.203C22.5149 42.8621 22.0075 43.1367 21.3665 43.0543C20.6988 42.9994 20.6186 42.5875 20.2981 42.0657L19.4168 42.203C19.4702 44.4273 22.7019 44.3998 23.3696 43.1367C23.9037 42.0932 23.3696 41.2145 22.6217 40.8849C21.3932 40.3357 20.5385 40.6652 20.6186 39.7041ZM25.5062 42.9719L25.4795 39.5119C27.0286 39.4845 27.6696 39.5394 27.6696 41.2419C27.6696 43.0543 27.0286 42.9719 25.5062 42.9719ZM24.4379 43.9056C25.4528 43.9056 26.7615 44.0703 27.6161 43.631C28.3907 43.2465 28.7646 42.4227 28.7379 41.2419C28.7379 37.9741 26.3075 38.6606 24.4379 38.6057V43.9056ZM26.895 27.4019C27.8832 27.8413 40.3559 33.1961 41.1037 33.3883C40.7298 32.6194 40.1422 31.6583 39.6348 30.8619C39.1006 30.0107 38.6199 29.1594 38.1124 28.2807L34.3199 21.9099C34.0261 21.3881 33.9193 20.9213 33.1447 21.3332C32.1832 21.855 31.6491 22.3767 31.0615 23.3378C29.1385 26.331 29.5124 25.4248 27.1888 27.1273C27.0019 27.2646 27.0019 27.2921 26.895 27.4019ZM9.66832 20.125L14.3957 22.1021C15.5174 20.3996 15.918 20.0975 16.8261 18.7794C18.2683 16.7474 18.3752 17.6261 20.8857 17.0494C23.236 16.5002 24.3845 15.4567 27.3224 14.8801C28.0435 14.7153 29.1652 14.7153 29.5925 14.221C29.5124 13.6718 23.4497 3.29183 22.3279 1.20486C21.6335 -0.113237 21.5267 -0.44276 20.8857 0.683111L17.1199 7.19119C15.0634 10.6237 12.9534 14.6329 10.9236 17.9282C10.5764 18.4774 9.85528 19.6307 9.66832 20.125ZM22.3012 31.9329C23.1559 31.5759 22.8888 32.9489 22.4081 33.1686C21.687 33.4981 21.4733 32.2624 22.3012 31.9329ZM24.3578 32.2899C23.9037 32.0976 23.7702 31.8505 24.0373 31.3288C24.2242 30.9169 24.4646 30.8619 24.9453 30.9443C25.0522 31.6034 24.8919 32.0702 24.3578 32.2899ZM42.9733 36.8208C42.9733 36.8208 42.9733 36.8208 43 36.7933C42.9199 36.4913 43.187 36.656 42.3323 36.3265C42.0652 36.2167 41.8248 36.1068 41.5311 35.9695L25.1323 29.0221C24.7584 28.9123 24.3311 29.3791 23.7435 29.8734C23.1826 30.3402 21.6335 31.6308 21.1261 31.9054C20.3248 32.3173 19.9776 32.0702 19.2298 32.3722C18.4019 32.7018 18.482 33.5256 17.841 33.251C17.2267 32.7292 19.9776 28.72 20.672 28.061C20.9658 27.7864 21.1528 27.704 21.2596 27.4019L19.9242 26.8253C19.8708 27.347 19.8174 27.8413 19.5236 28.1434C19.0429 28.5553 18.8559 28.1708 18.5087 27.8962L18.6422 26.2761L18.2416 26.1113C18.2149 26.1388 18.1882 26.1388 18.1882 26.1662C18.1882 26.1937 18.1615 26.2211 18.1348 26.2211C17.2 27.8138 18.4019 29.2967 18.4019 29.8184C18.4019 30.148 17.7342 31.5759 17.6006 31.7407C16.6124 31.8505 16.2919 30.7796 16.2919 29.8184C16.2919 29.0221 16.5323 27.9237 16.2118 27.2646C15.6242 26.0564 15.8112 26.4408 16.6124 25.4523L15.7845 25.0678C15.464 25.315 14.7963 26.1113 14.6894 26.7429C14.5826 27.4569 15.0366 27.4843 14.9031 29.2418C14.823 30.4775 14.9298 30.7246 15.3839 31.5759C15.8379 32.3997 15.7043 33.251 15.1168 33.6903C14.0217 33.8276 13.9416 32.5919 13.3807 31.9878C12.6062 31.164 12.6863 30.807 12.3925 29.434C12.2323 28.775 11.6447 25.4523 12.072 24.8481C12.3124 24.4912 12.6596 24.3264 12.9267 23.9145C12.7398 23.7223 8.97391 22.1296 8.49317 22.0197C8.38634 22.4316 6.75714 25.1227 6.40994 25.6994L1.12174 34.8711C0.908074 35.2281 0.320497 36.1892 0 36.8208H42.9733Z" fill="#7D7D7D"/>
</svg>
