<svg viewBox="0 0 37 18" fill="none" xmlns="http://www.w3.org/2000/svg">
<path d="M1.0081 0H5.88513H10.7349H11.9337H25.0663H26.2651H30.4337H35.9919C33.9757 6.57437 37 5.11635 37 9.30486C37 12.7776 34.0029 13.3608 35.8012 18H34.6024H30.4337H26.2651H25.0663H11.9337H10.7349H5.88513H2.39764H1.22607C2.99705 13.3608 0 12.7776 0 9.30486C0 5.11635 3.0243 6.57437 1.0081 0ZM24.5758 15.6937L23.0501 14.2091L21.5788 15.6672L21.606 15.6937H24.5758ZM15.394 15.6937L15.4212 15.6672L13.9499 14.2091L12.4242 15.6937H15.394ZM17.056 15.6937H19.9713V15.6672L18.5 14.2091L17.0287 15.6672L17.056 15.6937ZM12.4242 2.33284L13.9499 3.79087L15.4212 2.35935L15.394 2.33284H12.4242ZM21.606 2.33284L21.5788 2.35935L23.0501 3.79087L24.5758 2.33284H21.606ZM19.9713 2.33284H17.056L17.0287 2.35935L18.5 3.79087L19.9713 2.35935V2.33284ZM25.0663 3.39323L23.8675 4.58616L25.0663 5.75258V3.39323ZM25.0663 7.82032L23.8675 9.01326L25.0663 10.1797V7.82032ZM25.0663 12.2739L23.8675 13.4404L25.0663 14.6333V12.2739ZM11.9337 3.39323V5.75258L13.1598 4.58616L11.9337 3.39323ZM11.9337 7.82032V10.1797L13.1598 9.01326L11.9337 7.82032ZM11.9337 12.2739V14.6333L13.1598 13.4404L11.9337 12.2739ZM19.2901 9.01326L20.7887 10.4448L22.2599 9.01326L20.7887 7.55523L19.2901 9.01326ZM16.2113 3.12813L14.7401 4.58616L16.2113 6.01767L17.7099 4.58616L16.2113 3.12813ZM12.4514 6.78645L13.9499 8.24448L15.4212 6.78645L13.9499 5.35493L12.4514 6.78645ZM16.2113 7.55523L14.7401 9.01326L16.2113 10.4448L17.7099 9.01326L16.2113 7.55523ZM13.9499 9.78203L12.4514 11.2135L13.9499 12.6716L15.4212 11.2135L13.9499 9.78203ZM16.2113 12.0088L14.7401 13.4404L16.2113 14.8984L17.7099 13.4404L16.2113 12.0088ZM20.7887 3.12813L19.2901 4.58616L20.7887 6.01767L22.2599 4.58616L20.7887 3.12813ZM23.0501 5.35493L21.5788 6.78645L23.0501 8.24448L24.5486 6.78645L23.0501 5.35493ZM17.0287 6.78645L18.5 8.24448L19.9713 6.78645L18.5 5.35493L17.0287 6.78645ZM23.0501 9.78203L21.5788 11.2135L23.0501 12.6716L24.5486 11.2135L23.0501 9.78203ZM18.5 9.78203L17.0287 11.2135L18.5 12.6716L19.9713 11.2135L18.5 9.78203ZM20.7887 12.0088L19.2901 13.4404L20.7887 14.8984L22.2599 13.4404L20.7887 12.0088Z" fill="#7D7D7D"/>
</svg>
