<svg viewBox="0 0 36 32" fill="none" xmlns="http://www.w3.org/2000/svg">
<path d="M30.803 14.4164H25.606V8.30034C25.606 6.85324 24.4421 5.67918 22.9805 5.67918C21.5459 5.67918 20.382 6.85324 20.382 8.30034C20.4361 12.2048 19.8947 14.2526 19.4075 15.2901C17.9188 16.1365 16.9173 17.6382 16.9173 19.6587V24.901C16.9173 28.2867 18.785 30.1433 22.1143 30.1433H29.0707C32.4 30.1433 36 26.5392 36 23.1536V18.785C36 15.3993 34.1323 14.4164 30.803 14.4164ZM8.58045 11.686H11.6932C12.2075 11.686 12.5323 12.0137 12.5323 12.5051C12.5323 12.9966 12.2075 13.3242 11.6932 13.3242H8.58045V13.4061C8.58045 14.0887 8.14737 14.471 7.55188 14.471C6.95639 14.471 6.52331 14.0887 6.52331 13.4061V13.3242H5.87368C5.38647 13.3242 5.06165 12.9966 5.06165 12.5051C5.06165 12.0137 5.38647 11.686 5.87368 11.686H6.52331V5.35154C6.52331 4.69625 6.90226 4.28669 7.57895 4.28669H9.98797C11.991 4.28669 13.4797 5.59727 13.4797 7.56314C13.4797 9.58362 11.9368 10.8123 10.0692 10.8123H8.58045V11.686ZM9.9609 9.01024C10.8271 9.01024 11.3684 8.38225 11.3684 7.56314C11.3684 6.71672 10.8271 6.08874 9.9609 6.08874H8.58045V9.01024H9.9609ZM18.5684 9.39249C18.5684 4.20478 14.4 0 9.28421 0C4.14135 0 0 4.20478 0 9.39249C0 14.5529 4.14135 18.7577 9.28421 18.7577C14.4 18.7577 18.5684 14.5529 18.5684 9.39249ZM11.7203 26.6485C10.7729 26.6485 9.98797 27.4403 9.98797 28.3959C9.98797 29.3788 10.7729 30.1433 11.7203 30.1433C12.6947 30.1433 13.4526 29.3788 13.4526 28.3959C13.4526 27.4403 12.6947 26.6485 11.7203 26.6485ZM15.185 30.2526C15.185 31.2355 14.4271 32 13.4526 32H10.2045C9.25714 32 8.47218 31.2355 8.47218 30.2526V19.8225C8.74286 19.8498 9.01353 19.8771 9.28421 19.8771C11.4767 19.8771 13.5068 19.1672 15.185 17.9932V30.2526Z" fill="#7D7D7D"/>
</svg>
