<svg viewBox="0 0 29 28" fill="none" xmlns="http://www.w3.org/2000/svg">
<path fill-rule="evenodd" clip-rule="evenodd" d="M0 2.76152V13H14V0H13.8887H2.9503C1.30815 0 0 1.22445 0 2.76152Z" fill="#7D7D7D"/>
<path fill-rule="evenodd" clip-rule="evenodd" d="M26.2401 0H16.1032H16V13H29V2.76152C29 1.22445 27.7619 0 26.2401 0Z" fill="#7D7D7D"/>
<path fill-rule="evenodd" clip-rule="evenodd" d="M29 15V25.2385C29 26.7756 27.7619 28 26.2401 28H16.1032H16V15H29Z" fill="#7D7D7D"/>
<path fill-rule="evenodd" clip-rule="evenodd" d="M14 28H13.8887H2.9503C1.33598 28 0 26.7756 0 25.2385V15H14V28Z" fill="#7D7D7D"/>
<path fill-rule="evenodd" clip-rule="evenodd" d="M9 10H7.0915V5.51351L6.0719 6.56757L5 5.40541L7.35294 3H9V10Z" fill="#FEFEFE"/>
<path fill-rule="evenodd" clip-rule="evenodd" d="M25 10H20.225V8.42966C21.175 7.60456 21.825 7.01901 22.175 6.673C22.525 6.327 22.775 6.06084 22.9 5.87452C23.025 5.68821 23.1 5.5019 23.1 5.31559C23.1 5.15589 23.025 4.9962 22.925 4.88973C22.8 4.78327 22.625 4.73004 22.425 4.73004C21.9 4.73004 21.45 4.94297 21.05 5.39544L20 4.14449C20.625 3.37262 21.425 3 22.45 3C23.2 3 23.8 3.21293 24.275 3.63878C24.725 4.03802 24.95 4.59696 24.95 5.28897C24.95 5.74144 24.8 6.19392 24.525 6.64639C24.25 7.07224 23.725 7.63118 22.975 8.29658H25V10Z" fill="#FEFEFE"/>
<path fill-rule="evenodd" clip-rule="evenodd" d="M6.98507 25C6.35821 25 5.76119 24.9101 5.22388 24.6704C4.71642 24.4607 4.29851 24.161 4 23.8015L5.25373 22.3633C5.70149 22.8427 6.26866 23.0824 6.89552 23.0824C7.22388 23.0824 7.46269 23.0225 7.61194 22.9026C7.79104 22.7828 7.85075 22.633 7.85075 22.4831C7.85075 22.2734 7.76119 22.1536 7.61194 22.0637C7.46269 21.9738 7.19403 21.9438 6.83582 21.9438C6.38806 21.9438 6.08955 21.9438 6.02985 21.9438V19.9963C6.08955 19.9963 6.35821 19.9963 6.80597 19.9963C7.43284 19.9963 7.76119 19.8464 7.76119 19.5169C7.76119 19.1273 7.43284 18.9476 6.80597 18.9476C6.1791 18.9476 5.67164 19.1573 5.28358 19.5768L4.1194 18.2884C4.77612 17.4195 5.76119 17 6.98507 17C7.91045 17 8.62687 17.1798 9.13433 17.5693C9.64179 17.9588 9.8806 18.4682 9.8806 19.1573C9.8806 19.5468 9.76119 19.9363 9.46269 20.2659C9.16418 20.5955 8.80597 20.8052 8.35821 20.8652C8.80597 20.9551 9.19403 21.1348 9.52239 21.4944C9.85075 21.824 10 22.2135 10 22.6929C10 23.412 9.73134 23.9513 9.16418 24.3708C8.62687 24.7903 7.8806 25 6.98507 25Z" fill="#FEFEFE"/>
<path fill-rule="evenodd" clip-rule="evenodd" d="M24.4175 25H22.6214V23.8108H20V22.1892L22.1359 18H24.4175V22.0811H25V23.8108H24.4175V25ZM22.6214 22.0811V19.9459L21.5777 22.0811H22.6214Z" fill="#FEFEFE"/>
</svg>
