<svg viewBox="0 0 39 46" fill="none" xmlns="http://www.w3.org/2000/svg">
<path d="M13.5154 16.2872C13.5154 15.9128 13.2221 15.6186 12.8489 15.6186H8.79699C8.42379 15.6186 8.13055 15.9128 8.13055 16.2872C8.13055 16.6616 8.42379 16.9558 8.79699 16.9558H12.8489C13.2221 16.9558 13.5154 16.6616 13.5154 16.2872ZM39 43.3523V26.8779C39 25.407 37.8004 24.2302 36.3342 24.2302H32.0424H24.2584C22.7922 24.2302 21.6193 25.407 21.6193 26.8779V39.5279V43.3523C21.6193 44.8233 22.7922 46 24.2584 46H35.5345H36.3342C37.8004 46 39 44.8233 39 43.3523ZM26.8175 36.6663C26.8175 37.2547 26.3377 37.7093 25.7512 37.7093C25.1647 37.7093 24.7116 37.2547 24.7116 36.6663C24.7116 36.0779 25.1647 35.6233 25.7512 35.6233C26.3377 35.6233 26.8175 36.0779 26.8175 36.6663ZM24.8448 39.3407H35.7744V42.8174H24.8448V39.3407ZM29.9631 35.6233H34.7081C35.2946 35.6233 35.7744 36.0779 35.7744 36.6663C35.7744 37.2547 35.2946 37.7093 34.7081 37.7093H29.9631C29.3766 37.7093 28.8968 37.2547 28.8968 36.6663C28.8968 36.0779 29.3766 35.6233 29.9631 35.6233ZM23.6453 8.98605C23.6453 8.42442 24.0984 7.96977 24.6582 7.96977H25.3247C25.8845 7.96977 26.3377 8.42442 26.3377 8.98605V9.65465C26.3377 10.2163 25.8845 10.6709 25.3247 10.6709H24.6582C24.0984 10.6709 23.6453 10.2163 23.6453 9.65465V8.98605ZM29.0567 8.98605C29.0567 8.42442 29.5099 7.96977 30.0697 7.96977H30.7362C31.296 7.96977 31.7491 8.42442 31.7491 8.98605V9.65465C31.7491 10.2163 31.296 10.6709 30.7362 10.6709H30.0697C29.5099 10.6709 29.0567 10.2163 29.0567 9.65465V8.98605ZM34.4416 8.98605C34.4416 8.42442 34.8947 7.96977 35.4545 7.96977H36.1476C36.6808 7.96977 37.134 8.42442 37.134 8.98605V9.65465C37.134 10.2163 36.6808 10.6709 36.1476 10.6709H35.4545C34.8947 10.6709 34.4416 10.2163 34.4416 9.65465V8.98605ZM34.4416 19.8174C34.4416 19.2558 34.8947 18.8012 35.4545 18.8012H36.1476C36.6808 18.8012 37.134 19.2558 37.134 19.8174V20.5128C37.134 21.0744 36.6808 21.5291 36.1476 21.5291H35.4545C34.8947 21.5291 34.4416 21.0744 34.4416 20.5128V19.8174ZM34.4416 14.4151C34.4416 13.8535 34.8947 13.3988 35.4545 13.3988H36.1476C36.6808 13.3988 37.134 13.8535 37.134 14.4151V15.0837C37.134 15.6453 36.6808 16.1 36.1476 16.1H35.4545C34.8947 16.1 34.4416 15.6453 34.4416 15.0837V14.4151ZM18.9269 34.2058C18.9269 34.7674 18.4737 35.2488 17.9139 35.2488H17.2208C16.661 35.2488 16.2078 34.7674 16.2078 34.2058V33.5372C16.2078 32.9756 16.661 32.5209 17.2208 32.5209H17.9139C18.4737 32.5209 18.9269 32.9756 18.9269 33.5372V34.2058ZM13.5154 34.2058C13.5154 34.7674 13.0622 35.2488 12.5024 35.2488H11.836C11.2495 35.2488 10.7963 34.7674 10.7963 34.2058V33.5372C10.7963 32.9756 11.2495 32.5209 11.836 32.5209H12.5024C13.0622 32.5209 13.5154 32.9756 13.5154 33.5372V34.2058ZM8.1039 34.2058C8.1039 34.7674 7.65072 35.2488 7.09091 35.2488H6.42447C5.86466 35.2488 5.41148 34.7674 5.41148 34.2058V33.5372C5.41148 32.9756 5.86466 32.5209 6.42447 32.5209H7.09091C7.65072 32.5209 8.1039 32.9756 8.1039 33.5372V34.2058ZM8.1039 23.3744C8.1039 23.936 7.65072 24.3907 7.09091 24.3907H6.42447C5.86466 24.3907 5.41148 23.936 5.41148 23.3744V22.7058C5.41148 22.1442 5.86466 21.6895 6.42447 21.6895H7.09091C7.65072 21.6895 8.1039 22.1442 8.1039 22.7058V23.3744ZM8.1039 28.8035C8.1039 29.3651 7.65072 29.8198 7.09091 29.8198H6.42447C5.86466 29.8198 5.41148 29.3651 5.41148 28.8035V28.1349C5.41148 27.5465 5.86466 27.0919 6.42447 27.0919H7.09091C7.65072 27.0919 8.1039 27.5465 8.1039 28.1349V28.8035ZM17.594 10.0023C17.594 10.4837 17.1941 10.8581 16.7409 10.8581H4.90499C4.45181 10.8581 4.05195 10.4837 4.05195 10.0023V3.55698C4.05195 3.10233 4.45181 2.72791 4.90499 2.72791H16.7409C17.1941 2.72791 17.594 3.10233 17.594 3.55698V10.0023ZM16.7409 0H4.90499C2.95899 0 1.35954 1.60465 1.35954 3.55698V10.0023C1.35954 11.9814 2.95899 13.5593 4.90499 13.5593H16.7409C18.6869 13.5593 20.2864 11.9814 20.2864 10.0023V3.55698C20.2864 1.60465 18.6869 0 16.7409 0ZM21.6459 16.2872C21.6459 17.036 21.0328 17.6512 20.2864 17.6512H1.35954C0.613124 17.6512 0 17.036 0 16.2872C0 15.5384 0.613124 14.9233 1.35954 14.9233H20.2864C21.0328 14.9233 21.6459 15.5384 21.6459 16.2872Z" fill="#7D7D7D"/>
</svg>
