<svg viewBox="0 0 20 34" fill="none" xmlns="http://www.w3.org/2000/svg">
<path d="M16.5123 0H3.48774C1.55313 0 0 1.60848 0 3.54976V30.4502C0 32.3915 1.55313 34 3.48774 34H16.5123C18.4469 34 20 32.3915 20 30.4502V3.54976C20 1.60848 18.4469 0 16.5123 0ZM16.703 32.7243H3.32425C2.17984 32.7243 1.28065 31.7814 1.28065 30.6444V3.35563C1.28065 2.2186 2.17984 1.27569 3.32425 1.27569H16.703C17.8202 1.27569 18.7193 2.2186 18.7193 3.35563V30.6444C18.7193 31.7814 17.8202 32.7243 16.703 32.7243Z" fill="#7D7D7D"/>
<path d="M17 19.8707H7.38685V19.5603H17V19.8707ZM3 17.4655C3 17.2069 3.24371 17 3.56867 17H6.19536C6.52031 17 6.76402 17.2069 6.76402 17.4655V19.5603C6.76402 19.819 6.52031 20 6.19536 20H3.56867C3.24371 20 3 19.819 3 19.5603V17.4655ZM17 17.5948H7.38685V17H17V17.5948ZM17 18.6552H7.38685V18.3707H17V18.6552Z" fill="#7D7D7D"/>
<path d="M17 24.8448H7.38685V24.5603H17V24.8448ZM3 22.4397C3 22.2069 3.24371 22 3.56867 22H6.19536C6.52031 22 6.76402 22.2069 6.76402 22.4397V24.5603C6.76402 24.7931 6.52031 25 6.19536 25H3.56867C3.24371 25 3 24.7931 3 24.5603V22.4397ZM17 22.5948H7.38685V22H17V22.5948ZM17 23.6552H7.38685V23.3448H17V23.6552Z" fill="#7D7D7D"/>
<path d="M3 26.4435C3 26.1826 3.25899 26 3.60432 26H6.39568C6.74101 26 7 26.1826 7 26.4435V28.5565C7 28.8174 6.74101 29 6.39568 29H3.60432C3.25899 29 3 28.8174 3 28.5565V26.4435Z" fill="#7D7D7D"/>
<path d="M10.4909 30C10.7636 30 11 30.2182 11 30.5091C11 30.7818 10.7636 31 10.4909 31C10.2182 31 10 30.7818 10 30.5091C10 30.2182 10.2182 30 10.4909 30Z" fill="#7D7D7D"/>
<path d="M13 30C13.5357 30 14 30.2182 14 30.5091C14 30.7818 13.5357 31 13 31C12.4643 31 12 30.7818 12 30.5091C12 30.2182 12.4643 30 13 30Z" fill="#7D7D7D"/>
<path d="M7.98182 30C8.56364 30 9 30.2182 9 30.5091C9 30.7818 8.56364 31 7.98182 31C7.43636 31 7 30.7818 7 30.5091C7 30.2182 7.43636 30 7.98182 30Z" fill="#7D7D7D"/>
<path d="M17 29H7V28H17V29Z" fill="#7D7D7D"/>
<path d="M17 8H3V7H17V8Z" fill="#7D7D7D"/>
<path d="M17 6H3V3H17V6Z" fill="#7D7D7D"/>
<path d="M3 10.9045C3 10.392 3.46862 10 4.05439 10H8.94561C9.53138 10 10 10.392 10 10.9045V15.1256C10 15.608 9.53138 16 8.94561 16H4.05439C3.46862 16 3 15.608 3 15.1256V10.9045Z" fill="#7D7D7D"/>
<path d="M17 9H3V8H17V9Z" fill="#7D7D7D"/>
<path d="M11 10.9045C11 10.392 11.4 10 11.9 10H16.1C16.6 10 17 10.392 17 10.9045V15.1256C17 15.608 16.6 16 16.1 16H11.9C11.4 16 11 15.608 11 15.1256V10.9045Z" fill="#7D7D7D"/>
</svg>
