<svg viewBox="0 0 41 34" fill="none" xmlns="http://www.w3.org/2000/svg">
<path d="M20.6202 0C15.9192 0 11.6723 1.92812 8.60065 5.05112C5.52899 8.20128 3.63257 12.5192 3.63257 17.2987V17.9776H2.96482H0L2.56417 20.6118L5.15505 23.246C5.34202 23.4089 5.58241 23.5176 5.8228 23.5176C6.06319 23.5176 6.30358 23.4089 6.49055 23.246L9.08143 20.6118L11.6723 17.9776H8.62736H7.95961V17.2987C7.95961 13.7412 9.37524 10.5096 11.6723 8.17412C13.9694 5.83866 17.1212 4.39936 20.6202 4.39936C22.3296 4.39936 23.9857 4.7524 25.4814 5.377C26.8169 5.94728 28.0456 6.73482 29.114 7.71246L32.1857 4.58946C30.7166 3.20447 29.0072 2.09105 27.1375 1.30351C25.1342 0.461661 22.944 0 20.6202 0ZM20.3531 34C25.0541 34 29.3277 32.0719 32.3993 28.9489C35.471 25.7987 37.3674 21.4808 37.3674 16.7013V16.0224H38.0352H41L38.4091 13.3882L35.845 10.7812C35.658 10.5911 35.4176 10.4824 35.1772 10.4824C34.9368 10.4824 34.6697 10.5911 34.5094 10.754L31.9186 13.3882L29.3277 16.0224H32.3726H33.0404V16.7013C33.0404 20.2588 31.6248 23.4904 29.3277 25.8259C27.0306 28.1613 23.8788 29.6006 20.3531 29.6006C18.6436 29.6006 17.0143 29.2476 15.5186 28.623C14.1831 28.0527 12.9544 27.2652 11.886 26.2875L8.81433 29.4105C10.2834 30.7955 11.9928 31.9089 13.8625 32.6965C15.8658 33.5383 18.056 34 20.3531 34Z" fill="#7D7D7D"/>
<path d="M18.5295 23.6036C18.0978 23.6036 17.774 22.8956 17.774 22.0514C17.774 21.2073 18.0978 20.5265 18.5295 20.5265C18.9342 20.5265 19.285 21.2073 19.285 22.0514C19.285 22.8956 18.9342 23.6036 18.5295 23.6036ZM25.0051 13.7458C24.7892 13.7458 24.6273 13.4191 24.6273 12.9834C24.6273 12.5477 24.7892 12.1936 25.0051 12.1936C25.1939 12.1936 25.3828 12.5477 25.3828 12.9834C25.3828 13.4191 25.1939 13.7458 25.0051 13.7458ZM26.0573 9.14372C26.0573 9.14372 24.1417 11.9213 24.1417 13.0106C24.1417 14.0726 25.0051 14.944 26.0573 14.944C27.1366 14.944 28 14.0726 28 13.0106C28 11.9213 26.0573 9.14372 26.0573 9.14372ZM13.2411 14.7262C12.9444 14.7262 12.7015 14.2088 12.7015 13.5825C12.7015 12.9561 12.9444 12.466 13.2411 12.466C13.5379 12.466 13.8078 12.9561 13.8078 13.5825C13.8078 14.2088 13.5379 14.7262 13.2411 14.7262ZM14.8061 8C14.8061 8 12 12.0575 12 13.6369C12 15.1891 13.2681 16.469 14.8061 16.469C16.371 16.469 17.6391 15.1891 17.6391 13.6369C17.6391 12.0575 14.8061 8 14.8061 8ZM20.661 14.4266C20.661 14.4266 16.8297 19.9546 16.8297 22.1059C16.8297 24.2572 18.5295 26 20.661 26C22.7926 26 24.5194 24.2572 24.5194 22.1059C24.5194 19.9546 20.661 14.4266 20.661 14.4266Z" fill="#7D7D7D"/>
</svg>
