<svg viewBox="0 0 35 20" fill="none" xmlns="http://www.w3.org/2000/svg">
<path d="M5.57352 16.9272V3.04582H0.415119C-0.152035 4.5283 -0.395101 6.87332 1.41439 9.94609C3.25089 13.0458 2.8998 15.4447 2.27863 16.9272H5.57352ZM24.8838 7.70889H22.9933V5.84906H24.8838V7.70889ZM24.8838 10.9164H22.9933V9.0566H24.8838V10.9164ZM24.8838 14.124H22.9933V12.2642H24.8838V14.124ZM24.8838 17.3315H22.9933V15.4717H24.8838V17.3315ZM22.9933 2.64151H24.8838V4.50135H22.9933V2.64151ZM21.6699 7.70889H19.7794V5.84906H21.6699V7.70889ZM21.6699 10.9164H19.7794V9.0566H21.6699V10.9164ZM21.6699 14.124H19.7794V12.2642H21.6699V14.124ZM21.6699 17.3315H19.7794V15.4717H21.6699V17.3315ZM19.7794 2.64151H21.6699V4.50135H19.7794V2.64151ZM18.456 4.50135H16.5655V2.64151H18.456V4.50135ZM18.456 7.70889H16.5655V5.84906H18.456V7.70889ZM18.456 10.9164H16.5655V9.0566H18.456V10.9164ZM18.456 14.124H16.5655V12.2642H18.456V14.124ZM18.456 17.3315H16.5655V15.4717H18.456V17.3315ZM15.2151 4.50135H13.3516V2.64151H15.2151V4.50135ZM15.2151 7.70889H13.3516V5.84906H15.2151V7.70889ZM15.2151 10.9164H13.3516V9.0566H15.2151V10.9164ZM15.2151 14.124H13.3516V12.2642H15.2151V14.124ZM15.2151 17.3315H13.3516V15.4717H15.2151V17.3315ZM12.0013 4.50135H10.1378V2.64151H12.0013V4.50135ZM12.0013 7.70889H10.1378V5.84906H12.0013V7.70889ZM12.0013 10.9164H10.1378V9.0566H12.0013V10.9164ZM12.0013 14.124H10.1378V12.2642H12.0013V14.124ZM12.0013 17.3315H10.1378V15.4717H12.0013V17.3315ZM7.49104 0V20H27.5305V0H7.49104ZM29.448 3.04582V16.9272H34.6064C35.1466 15.4717 35.3896 13.0997 33.5801 10.0539C31.7707 6.95418 32.1217 4.55526 32.7429 3.04582H29.448Z" fill="#7D7D7D"/>
</svg>
