<svg viewBox="0 0 40 33" fill="none" xmlns="http://www.w3.org/2000/svg">
<path d="M22.5137 31.137C18.6005 31.137 16.3565 29.9315 16.0008 29.3836C16.3565 28.8082 18.6005 27.6027 22.5137 27.6027C26.4269 27.6027 28.6435 28.8082 28.9992 29.3836C28.6435 29.9315 26.4269 31.137 22.5137 31.137ZM30.8874 22.4795C30.8874 20.4795 27.1384 18.8356 22.5137 18.8356C17.8616 18.8356 14.1126 20.4795 14.1126 22.4795V29.3836C14.1126 31.3836 17.8616 33 22.5137 33C27.1384 33 30.8874 31.3836 30.8874 29.3836V22.4795ZM12.2244 22.4795C12.2244 18.863 17.3964 16.9726 22.5137 16.9726C27.6036 16.9726 32.7756 18.863 32.7756 22.4795V23.274H40L36.0594 11H17.9163C16.5481 14.9452 12.7991 17.7671 8.39328 17.7671C7.84597 17.7671 7.32604 17.7123 6.8061 17.6301L5 23.274H12.2244V22.4795Z" fill="#7D7D7D"/>
<path d="M13.6519 8.43686C13.4061 8.43686 13.1604 8.43686 12.9147 8.43686C13.0512 8.57338 13.215 8.7372 13.3515 8.87372C13.7338 9.25597 13.1331 9.85666 12.7509 9.4744C12.3959 9.11945 12.0683 8.81911 11.7133 8.49147C11.1945 8.49147 10.1024 8.49147 9.17406 8.49147C9.82935 9.14676 10.6212 9.91126 10.9761 10.2935C11.4676 10.2935 11.9044 10.3208 12.3959 10.3208C12.942 10.3208 12.942 11.1672 12.3959 11.1672C12.1775 11.1672 11.9863 11.1672 11.7952 11.1672C11.959 11.3584 12.1229 11.5222 12.314 11.686C12.6962 12.0956 12.0956 12.6962 11.7133 12.2867C11.5222 12.1229 11.3584 11.959 11.1945 11.7679C11.1945 11.9863 11.1945 12.1775 11.1945 12.3959C11.1945 12.942 10.3481 12.942 10.3481 12.3959C10.3481 11.9044 10.3481 11.413 10.3481 10.9215C9.96587 10.5392 9.14676 9.72014 8.49147 9.06485C8.49147 10.0205 8.49147 11.1672 8.49147 11.7133C8.81911 12.0683 9.11945 12.3959 9.4744 12.7509C9.85666 13.1331 9.25597 13.7338 8.87372 13.3515C8.7372 13.1877 8.57338 13.0512 8.43686 12.9147C8.43686 13.1604 8.43686 13.4061 8.43686 13.6519C8.43686 14.198 7.59044 14.198 7.59044 13.6519C7.59044 13.4061 7.59044 13.1604 7.59044 12.9147C7.42662 13.0512 7.2901 13.215 7.15358 13.3515C6.77133 13.7338 6.17065 13.1331 6.5529 12.7509C6.90785 12.4232 7.23549 12.0683 7.59044 11.7133C7.59044 11.1672 7.59044 10.0478 7.59044 9.09215C6.93515 9.77474 6.08874 10.5939 5.70648 10.9761C5.70648 11.4676 5.67918 11.9044 5.67918 12.3959C5.67918 12.942 4.83276 12.942 4.83276 12.3959C4.83276 12.2048 4.83276 11.9863 4.83276 11.7952C4.66894 11.959 4.47782 12.1229 4.31399 12.314C3.93174 12.6962 3.33106 12.0956 3.71331 11.7133C3.87713 11.5495 4.06826 11.3584 4.23208 11.1945C4.01365 11.1945 3.82253 11.1945 3.6041 11.1945C3.05802 11.1945 3.05802 10.3481 3.6041 10.3481C4.09556 10.3481 4.58703 10.3481 5.1058 10.3481C5.46075 9.96587 6.27986 9.14676 6.93515 8.49147C6.00683 8.49147 4.83276 8.49147 4.28669 8.49147C3.93174 8.81911 3.6041 9.11945 3.24915 9.4744C2.86689 9.85666 2.26621 9.25597 2.64846 8.87372C2.81229 8.7372 2.94881 8.57338 3.08532 8.43686C2.83959 8.43686 2.59386 8.43686 2.34812 8.43686C1.80205 8.43686 1.80205 7.59044 2.34812 7.59044C2.59386 7.59044 2.83959 7.59044 3.08532 7.59044C2.94881 7.45392 2.78498 7.2901 2.64846 7.15358C2.26621 6.77133 2.86689 6.17065 3.24915 6.5529C3.57679 6.90785 3.93174 7.2628 4.28669 7.59044C4.83276 7.59044 6.06143 7.59044 7.01706 7.59044C6.33447 6.93515 5.48805 6.06143 5.1058 5.65188C4.58703 5.65188 4.09556 5.65188 3.6041 5.65188C3.05802 5.65188 3.05802 4.80546 3.6041 4.80546C3.82253 4.80546 4.01365 4.80546 4.23208 4.80546C4.06826 4.64164 3.87713 4.47782 3.71331 4.28669C3.33106 3.90444 3.93174 3.33106 4.31399 3.68601C4.47782 3.87713 4.66894 4.04096 4.83276 4.20478C4.83276 4.01365 4.83276 3.82253 4.83276 3.6041C4.83276 3.05802 5.67918 3.05802 5.67918 3.6041C5.67918 4.09556 5.70648 4.53242 5.70648 5.02389C6.08874 5.40614 6.93515 6.22526 7.59044 6.90785C7.59044 5.97952 7.59044 4.83276 7.59044 4.28669C7.23549 3.93174 6.90785 3.57679 6.5529 3.24915C6.17065 2.86689 6.77133 2.23891 7.15358 2.64846C7.2901 2.78498 7.42662 2.9215 7.59044 3.08532C7.59044 2.83959 7.59044 2.59386 7.59044 2.34812C7.59044 1.80205 8.43686 1.80205 8.43686 2.34812C8.43686 2.59386 8.43686 2.83959 8.43686 3.08532C8.57338 2.94881 8.7372 2.78498 8.87372 2.64846C9.25597 2.26621 9.85666 2.86689 9.4744 3.24915C9.11945 3.6041 8.81911 3.93174 8.49147 4.25939C8.49147 4.83276 8.49147 6.00683 8.49147 6.93515C9.14676 6.27986 9.96587 5.46075 10.3481 5.1058C10.3481 4.58703 10.3481 4.09556 10.3481 3.6041C10.3481 3.05802 11.1945 3.05802 11.1945 3.6041C11.1945 3.82253 11.1945 4.04096 11.1945 4.23208C11.3584 4.06826 11.5222 3.87713 11.7133 3.71331C12.0956 3.33106 12.6962 3.93174 12.314 4.31399C12.1229 4.47782 11.959 4.66894 11.7952 4.83276C11.9863 4.83276 12.1775 4.83276 12.3959 4.83276C12.942 4.83276 12.942 5.67918 12.3959 5.67918C11.9044 5.67918 11.4676 5.70648 10.9761 5.70648C10.5939 6.11604 9.77474 6.93515 9.09215 7.59044C10.0205 7.59044 11.1672 7.59044 11.7133 7.59044C12.0683 7.2628 12.4232 6.90785 12.7509 6.5529C13.1604 6.17065 13.7338 6.77133 13.3515 7.15358C13.215 7.2901 13.0785 7.45392 12.9147 7.59044C13.1604 7.59044 13.4061 7.59044 13.6519 7.59044C14.198 7.59044 14.198 8.43686 13.6519 8.43686ZM8 0C3.57679 0 0 3.57679 0 8C0 12.4232 3.57679 16 8 16C12.4232 16 16 12.4232 16 8C16 3.57679 12.4232 0 8 0Z" fill="#7D7D7D"/>
</svg>
