<svg viewBox="0 0 35 33" fill="none" xmlns="http://www.w3.org/2000/svg">
<path d="M15.5556 21.1178C14.9923 21.1178 14.5364 20.1805 14.5364 19.0226C14.5364 17.8922 14.9923 16.9549 15.5556 16.9549C16.092 16.9549 16.5479 17.8922 16.5479 19.0226C16.5479 20.1805 16.092 21.1178 15.5556 21.1178ZM35 21.7794C35 20.5388 34.0345 19.5188 32.8276 19.5188H32.2375C31.0307 19.5188 30.0651 20.5388 30.0651 21.7794V27.9273H4.96169V21.7794C4.96169 20.5388 3.96935 19.5188 2.76245 19.5188H2.19923C0.992337 19.5188 0 20.5388 0 21.7794V30.7669C0 32.0075 0.992337 33 2.19923 33H32.8008C34.0077 33 35 32.0075 35 30.7669V30.3534V21.7794ZM24.1379 7.802C23.8697 7.802 23.6552 7.33333 23.6552 6.75439C23.6552 6.17544 23.8697 5.70677 24.1379 5.70677C24.433 5.70677 24.6475 6.17544 24.6475 6.75439C24.6475 7.33333 24.433 7.802 24.1379 7.802ZM25.5862 1.57143C25.5862 1.57143 23.0115 5.3208 23.0115 6.78195C23.0115 8.24311 24.1648 9.42857 25.5862 9.42857C26.9808 9.42857 28.1341 8.24311 28.1341 6.78195C28.1341 5.3208 25.5862 1.57143 25.5862 1.57143ZM8.52874 9.09774C8.12644 9.09774 7.8046 8.43609 7.8046 7.58145C7.8046 6.72682 8.12644 6.06516 8.52874 6.06516C8.93104 6.06516 9.27969 6.72682 9.27969 7.58145C9.27969 8.43609 8.93104 9.09774 8.52874 9.09774ZM10.6207 0C10.6207 0 6.8659 5.51378 6.8659 7.63659C6.8659 9.7594 8.55556 11.4962 10.6207 11.4962C12.6858 11.4962 14.3755 9.7594 14.3755 7.63659C14.3755 5.51378 10.6207 0 10.6207 0ZM18.3985 8.71178C18.3985 8.71178 13.2759 16.2105 13.2759 19.1053C13.2759 22 15.5824 24.3434 18.3985 24.3434C21.2146 24.3434 23.4943 22 23.4943 19.1053C23.4943 16.2105 18.3985 8.71178 18.3985 8.71178Z" fill="#7D7D7D"/>
</svg>
