<svg viewBox="0 0 42 35" fill="none" xmlns="http://www.w3.org/2000/svg">
<path d="M24.5625 0C34.1786 0 42 7.82258 42 17.5C42 27.1774 34.1786 35 24.5625 35C16.875 35 10.3661 30.0269 8.03571 23.0914C13.3929 23.0108 17.7054 18.6021 17.7054 13.2258C17.7054 9.54301 15.6964 6.3172 12.75 4.62366C15.8571 1.74731 20.0089 0 24.5625 0ZM7.84821 5.32258C12.1875 5.32258 15.6964 8.87097 15.6964 13.2258C15.6964 17.5538 12.1875 21.1021 7.84821 21.1021C3.50893 21.1021 0 17.5538 0 13.2258C0 8.87097 3.50893 5.32258 7.84821 5.32258ZM3.61607 8.97849C3.26786 9.32796 3.26786 9.89247 3.61607 10.2419L6.58929 13.1989L3.61607 16.1828C3.26786 16.5323 3.26786 17.0968 3.61607 17.4462C3.96429 17.7957 4.52679 17.7957 4.875 17.4462L7.84821 14.4624L10.8214 17.4462C11.1696 17.7957 11.7321 17.7957 12.0804 17.4462C12.4286 17.0968 12.4286 16.5323 12.0804 16.1828L9.10714 13.1989L12.0804 10.2419C12.4286 9.89247 12.4286 9.32796 12.0804 8.97849C11.7321 8.62903 11.1696 8.62903 10.8214 8.97849L7.84821 11.9624L4.875 8.97849C4.52679 8.62903 3.96429 8.62903 3.61607 8.97849ZM31.4464 13.0645C31.4464 8.87097 26.5982 3.95161 26.4107 3.76344C26.2232 3.57527 25.9554 3.46774 25.7143 3.46774C25.4732 3.46774 25.2321 3.57527 25.0446 3.76344C24.8304 3.95161 19.9821 8.87097 19.9821 13.0645C19.9821 16.2366 22.5536 18.8172 25.7143 18.8172C28.875 18.8172 31.4464 16.2366 31.4464 13.0645ZM35.5179 24.6237C35.5179 22.5269 33.0804 20.0806 33 19.9731C32.8929 19.8925 32.7589 19.8387 32.6518 19.8387C32.5179 19.8387 32.4107 19.8925 32.3036 19.9731C32.1964 20.0806 29.7857 22.5269 29.7857 24.6237C29.7857 26.2097 31.0714 27.5 32.6518 27.5C34.2321 27.5 35.5179 26.2097 35.5179 24.6237ZM22.2054 25.8871C22.2054 23.0914 18.9643 19.8118 18.8304 19.6774C18.6964 19.543 18.5357 19.4892 18.375 19.4892C18.2143 19.4892 18.0536 19.543 17.9196 19.6774C17.7857 19.8118 14.5446 23.0914 14.5446 25.8871C14.5446 28.0108 16.2589 29.7312 18.375 29.7312C20.4911 29.7312 22.2054 28.0108 22.2054 25.8871Z" fill="#7D7D7D"/>
</svg>
