<svg viewBox="0 0 37 38" fill="none" xmlns="http://www.w3.org/2000/svg">
<path d="M7.9016 0C12.2704 0 15.8032 3.59942 15.8032 8.05061C15.8032 12.5018 12.2704 16.1012 7.9016 16.1012C3.5328 16.1012 0 12.5018 0 8.05061C0 3.59942 3.5328 0 7.9016 0ZM31.8491 21.102C31.3098 21.102 30.7704 21.102 30.231 21.102C30.5547 21.4317 30.8513 21.7339 31.1749 22.0636C32.0109 22.9154 30.6895 24.2617 29.8535 23.41C29.0984 22.6406 28.3703 21.9812 27.6152 21.2119C26.4555 21.2119 24.0284 21.2119 22.0058 21.2119C23.4621 22.6681 25.1611 24.4266 25.9701 25.2234C27.0219 25.2234 28.0197 25.3059 29.0714 25.3059C30.285 25.3059 30.285 27.2017 29.0714 27.2017C28.6399 27.2017 28.1815 27.2017 27.75 27.2017C28.1276 27.5864 28.5051 27.9986 28.8827 28.3832C29.7187 29.2625 28.3972 30.5813 27.5612 29.7296C27.1837 29.3174 26.8061 28.9328 26.4286 28.5481C26.4286 29.0152 26.4286 29.4823 26.4286 29.9494C26.4286 31.1584 24.5678 31.1584 24.5678 29.9494C24.5678 28.8503 24.5678 27.7238 24.5678 26.6247C23.7587 25.773 21.9519 23.9595 20.4956 22.4758C20.4956 24.5915 20.4956 27.2292 20.4956 28.4382C21.2507 29.2075 21.898 29.9494 22.6531 30.7187C23.4891 31.598 22.1946 32.9168 21.3316 32.0651C21.035 31.7354 20.7114 31.4331 20.3878 31.1034C20.3878 31.6529 20.3878 32.2025 20.3878 32.752C20.3608 33.961 18.5 33.961 18.527 32.752C18.527 32.2025 18.527 31.6529 18.527 31.1034C18.2034 31.4331 17.8797 31.7628 17.5561 32.0926C16.7201 32.9718 15.3987 31.6255 16.2347 30.7462C17.0168 29.9769 17.7719 29.18 18.5539 28.4107C18.5539 27.2292 18.5539 24.6739 18.5539 22.5857C17.0707 24.0694 15.2638 25.9378 14.4009 26.7896C14.4009 27.8612 14.3469 28.8503 14.3469 29.9494C14.3469 31.1584 12.4862 31.1584 12.4862 29.9494C12.4862 29.4823 12.4862 29.0427 12.4862 28.5756C12.1086 28.9602 11.731 29.3449 11.3265 29.7296C10.4636 30.6088 9.1691 29.2625 10.0051 28.4107C10.4096 28.026 10.7872 27.6414 11.1647 27.2567C10.7063 27.2567 10.2478 27.2567 9.78936 27.2567C8.60277 27.2567 8.60277 25.3608 9.78936 25.3608C10.895 25.3608 11.9738 25.3608 13.0525 25.3608C13.8885 24.509 15.6684 22.6956 17.1246 21.2119C15.0481 21.2119 12.4592 21.2119 11.2726 21.2119C10.5175 21.9812 9.76239 22.6406 9.03426 23.41C8.17128 24.2617 6.84985 22.9154 7.71283 22.0636C8.00947 21.7339 8.33309 21.4317 8.65671 21.102C8.11735 21.102 7.57799 21.102 7.03863 21.102C5.82507 21.0745 5.82507 19.1786 7.03863 19.1786C7.57799 19.1786 8.11735 19.2061 8.65671 19.2061C8.33309 18.8764 8.00947 18.5466 7.65889 18.2169C7.44315 17.9696 7.36224 17.7223 7.41618 17.4476C5.55539 17.3651 3.82945 16.7057 2.42711 15.6341C2.07653 17.0629 1.88776 18.5741 1.88776 20.1128C1.88776 30.0043 9.73542 38 19.4439 38C29.1254 38 37 30.0043 37 20.1128C37 10.2213 29.1254 2.2256 19.4439 2.2256C18.0955 2.2256 16.7741 2.36298 15.5066 2.66522C16.5044 4.14895 17.1246 5.93492 17.1516 7.88576C17.2864 7.91323 17.4213 7.99566 17.5561 8.13304C17.8797 8.46276 18.2034 8.79248 18.527 9.1222C18.527 8.57267 18.527 8.02314 18.527 7.47361C18.5 6.23717 20.3608 6.23717 20.3878 7.47361C20.3878 8.02314 20.3878 8.57267 20.3878 9.1222C20.7114 8.79248 21.035 8.49024 21.3316 8.16052C22.1946 7.28127 23.4891 8.62762 22.6531 9.50687C21.898 10.2762 21.2507 11.0181 20.4956 11.7874C20.4956 12.9964 20.4956 15.6341 20.4956 17.7498C21.9519 16.2661 23.7587 14.4526 24.5678 13.6009C24.5678 12.5018 24.5678 11.4027 24.5678 10.3037C24.5678 9.06725 26.4286 9.06725 26.4286 10.3037C26.4286 10.7708 26.4286 11.2379 26.4286 11.705C26.8061 11.2928 27.1837 10.9082 27.5612 10.5235C28.3972 9.64425 29.7187 10.9906 28.8827 11.8698C28.5051 12.2545 28.1276 12.6667 27.75 13.0513C28.1815 13.0513 28.6399 13.0513 29.0714 13.0513C30.285 13.0513 30.285 14.9472 29.0714 14.9472C28.0197 14.9472 27.0219 15.0022 25.9701 15.0022C25.1341 15.8814 23.3003 17.7223 21.844 19.2061C23.8936 19.2336 26.4016 19.2336 27.5882 19.2336C28.3433 18.4367 29.1254 17.6674 29.8805 16.8706C30.7434 16.0188 32.0379 17.3651 31.2019 18.2169C30.8783 18.5466 30.5547 18.8764 30.231 19.2061C30.7704 19.2061 31.3098 19.1786 31.8491 19.1786C33.0357 19.1786 33.0357 21.0745 31.8491 21.102ZM9.43878 17.3377C10.059 17.9696 10.6793 18.6016 11.2996 19.2336C12.5131 19.2336 15.1829 19.2061 17.2864 19.2061C16.0729 17.9696 14.5897 16.4584 13.6188 15.4693C12.4322 16.4035 11.0029 17.0629 9.43878 17.3377ZM15.0211 14.068C15.965 15.0296 17.3673 16.4584 18.5539 17.6674C18.5539 15.5792 18.5539 12.9964 18.5539 11.8149C18.0146 11.2654 17.4752 10.7158 16.9089 10.1663C16.5853 11.6226 15.938 12.9689 15.0211 14.068ZM3.64067 3.70933C3.31706 4.06652 3.31706 4.64353 3.64067 5.00072L6.63411 8.05061L3.64067 11.1005C3.31706 11.4577 3.31706 12.0347 3.64067 12.3919C3.99125 12.7216 4.55758 12.7216 4.90816 12.3919L7.9016 9.34201L10.895 12.3919C11.2456 12.7216 11.812 12.7216 12.1625 12.3919C12.5131 12.0347 12.5131 11.4577 12.1625 11.1005L9.1691 8.05061L12.1625 5.00072C12.5131 4.64353 12.5131 4.06652 12.1625 3.70933C11.812 3.35213 11.2456 3.35213 10.895 3.70933L7.9016 6.75922L4.90816 3.70933C4.55758 3.35213 3.99125 3.35213 3.64067 3.70933Z" fill="#7D7D7D"/>
</svg>
