<svg width="76" height="76" viewBox="0 0 76 76" fill="none" xmlns="http://www.w3.org/2000/svg"><path d="M74.887 7.376H40.19V1.113A1.11 1.11 0 0 0 39.078 0h-6.946c-.614 0-1.113.498-1.113 1.113v6.263H17.395c-.615 0-1.113.499-1.113 1.113v9.572a8.475 8.475 0 0 0-2.018 1.499v-3.272c0-2.018-2.007-3.676-4.994-4.226V9.645c0-.615-.498-1.113-1.113-1.113-1.971 0-3.975.758-5.498 2.08A7.583 7.583 0 0 0 0 16.423v4.664c0 1.44 2.227 1.44 2.227 0v-4.664c0-2.437 1.813-5.047 4.817-5.57v42.705c-1.748.219-3.532.918-4.813 2.149-.002-1.516-.004-28.704-.004-28.704 0-1.44-2.227-1.44-2.227 0v34.58c0 .063.006.124.016.184.11 3.265 3.13 5.706 7.116 5.706 1.93 0 3.656-.55 4.928-1.455v4.093C12.061 73.874 15.823 76 19.194 76c3.577 0 7.13-2.015 7.13-5.89l-.002-15.74h31.705L34.926 74.04c-.773.657-.293 1.96.721 1.96h33.527c.615 0 1.114-.499 1.114-1.113v-5.4c0-1.44-2.227-1.44-2.227 0v4.286H38.672l29.39-25.021v14.592c0 1.44 2.226 1.44 2.226 0V54.37h4.599c.615 0 1.113-.498 1.113-1.113V8.489c0-.614-.498-1.113-1.113-1.113zm-1.114 2.227v27.002H47.7V9.603h26.073zM37.965 2.227v28.491h-4.72v-2.845h.81c1.438 0 1.438-2.226 0-2.226h-.81V22.73h1.848c1.44 0 1.44-2.227 0-2.227h-1.847v-2.917h.808a1.113 1.113 0 0 0 0-2.227h-.808v-2.917h1.847c1.44 0 1.44-2.227 0-2.227h-1.847V7.298h.808c1.44 0 1.44-2.226 0-2.226h-.808V2.227h4.719zM17.584 19.858c.48-.227.985-.387 1.512-.478l.007 42.706c-1.24.155-3.245.642-4.812 2.149l-.005-2.684-.006-36.6c0-1.995 1.215-4.105 3.304-5.093zm6.514 47.003a7.19 7.19 0 0 0-.114-.063c-1.277-.701-2.944-1.092-4.703-1.105V64.31c.533-.073.891-.068.9-.068.697-.046 1.08-.417 1.148-1.113l-.006-40.256c1.476.365 2.768 1.113 2.768 1.941l.007 42.048zm-12.06-50.573V58.32c-1.24-.712-2.917-1.141-4.817-1.154v-1.384c.534-.074.892-.068.9-.068.698-.047 1.08-.417 1.15-1.113V14.34c1.695.406 2.767 1.248 2.767 1.949zm0 45.824c0 1.7-2.247 3.135-4.906 3.135-2.79 0-4.894-1.574-4.894-3.662 0-2.114.766-4.117 2.756-5.128v1.871c.08.729.486 1.098 1.218 1.109 1.547-.146 3.257.027 4.64.787.799.438 1.251.995 1.186 1.888zm7.155 11.661c-2.79 0-4.895-1.574-4.895-3.66 0-2.115.766-4.118 2.756-5.13v1.872c.08.728.486 1.098 1.218 1.108 1.889-.177 5.917.126 5.827 2.675 0 1.699-2.247 3.135-4.906 3.135zm7.125-48.96c0-2.004-2.015-3.671-4.995-4.224V18.17c-.065-.678-.436-1.05-1.114-1.113a8.06 8.06 0 0 0-1.7.187V9.603h12.51v22.229c0 .614.499 1.113 1.113 1.113h6.946c.615 0 1.113-.499 1.113-1.114V9.603h5.282v42.541h-19.15l-.005-27.331zM69.64 45.33a1.113 1.113 0 0 0-1.188.163l-7.81 6.65H47.7V38.83h26.073v13.313h-3.485V46.34c0-.434-.252-.828-.647-1.01z" fill="#fff"/><path d="M53.043 31.902H63.3c.293 0 .581-.12.788-.328l5.129-5.124c.209-.21.326-.493.326-.788l-.001-10.243a1.13 1.13 0 0 0-1.114-1.113H58.17c-.295 0-.578.118-.787.327l-5.126 5.122a1.126 1.126 0 0 0-.328.789v10.244c0 .615.499 1.114 1.114 1.114zm1.113-10.245h8.031v8.018h-8.03v-8.018zm10.258 6.445v-7.097l2.903-2.9.001 7.096-2.904 2.901zm-5.782-11.569h7.108l-2.9 2.897h-7.108l2.9-2.897zm-.324 30.09H54.62c-1.44 0-1.44 2.226 0 2.226h3.688c1.44 0 1.44-2.226 0-2.226zm5.764-4.431H54.62c-1.44 0-1.44 2.227 0 2.227h9.452c1.439 0 1.439-2.227 0-2.227zm-1.027 15.002L49.603 68.64c-.772.657-.292 1.96.722 1.96h13.442c.615 0 1.113-.498 1.113-1.113V58.042c0-.846-1.069-1.5-1.835-.848zm-.391 11.18H53.35l9.304-7.922v7.921z" fill="#fff"/></svg>