<svg width="42" height="42" viewBox="0 0 42 42" fill="none" xmlns="http://www.w3.org/2000/svg"><path d="M39.37 3.948c.7 0 1.271-.57 1.271-1.271V1.27c0-.7-.57-1.271-1.271-1.271H2.63C1.93 0 1.36.57 1.36 1.271v1.406c0 .701.57 1.271 1.271 1.271h.088v3.59a.615.615 0 1 0 1.23 0v-3.59h34.103v24.59H3.948V10a.615.615 0 1 0-1.23 0v18.539H2.63c-.7 0-1.271.57-1.271 1.271v1.406c0 .7.57 1.271 1.271 1.271H6.6l-2.25 7.862c-.113.394-.036.808.21 1.136.247.327.624.515 1.034.515h2.664a1.3 1.3 0 0 0 1.245-.938l.509-1.78h8.335v1.423c0 .714.581 1.295 1.295 1.295h2.718c.714 0 1.295-.58 1.295-1.295v-1.423h8.335l.51 1.78a1.3 1.3 0 0 0 1.244.938h2.663c.41 0 .787-.188 1.034-.515.247-.328.324-.742.211-1.136l-2.25-7.862h3.968c.702 0 1.272-.57 1.272-1.271V29.81c0-.701-.57-1.271-1.272-1.271h-.087V3.949h.088zM8.257 40.77H5.593c-.008 0-.032 0-.05-.026a.06.06 0 0 1-.011-.056l2.342-8.185h2.797l-2.352 8.22a.065.065 0 0 1-.062.047zm14.166-.065a.064.064 0 0 1-.064.065h-2.718a.064.064 0 0 1-.064-.065v-1.423h2.846v1.423zm-12.06-2.653l.426-1.488H31.21l.426 1.488H10.363zm12.06-5.55v2.832h-2.846v-2.831h2.846zm14.035 8.242c-.02.026-.044.026-.051.026h-2.664a.064.064 0 0 1-.062-.047l-2.352-8.22h2.797l2.342 8.185a.06.06 0 0 1-.01.056zm-5.599-5.41h-7.205v-2.847h6.39l.815 2.847zm8.552-5.524v1.406a.041.041 0 0 1-.041.04H15.61a.615.615 0 1 0 0 1.231h2.736v2.847h-7.205l.815-2.847h1.194a.615.615 0 0 0 0-1.23H2.63a.041.041 0 0 1-.04-.041V29.81a.04.04 0 0 1 .04-.04h36.74a.04.04 0 0 1 .04.04zM2.63 2.718a.041.041 0 0 1-.042-.041V1.27c0-.022.019-.04.041-.04h36.74a.04.04 0 0 1 .04.04v1.406a.041.041 0 0 1-.04.04H2.63z" fill="#0088CE"/><path d="M9.513 25.077c0 1.089.886 1.974 1.974 1.974a1.976 1.976 0 0 0 1.974-1.974 1.977 1.977 0 0 0-1.974-1.974 1.977 1.977 0 0 0-1.974 1.974zm1.974-.744a.745.745 0 1 1-.002 1.49.745.745 0 0 1 .002-1.49zM30.513 9.432a1.976 1.976 0 0 0 1.974-1.974 1.976 1.976 0 0 0-1.974-1.974 1.976 1.976 0 0 0-1.974 1.974c0 1.089.885 1.974 1.974 1.974zm0-2.718a.745.745 0 1 1-.002 1.49.745.745 0 0 1 .002-1.49zM10.872 21a.615.615 0 1 0 1.23 0v-1.359a.615.615 0 1 0-1.23 0v1.36zm.615-3.461c.34 0 .615-.276.615-.616v-1.358a.615.615 0 1 0-1.23 0v1.358c0 .34.275.616.615.616zm-1.794-4.258a.614.614 0 0 0 .87 0l.924-.924.924.924a.613.613 0 0 0 .87 0c.24-.24.24-.63 0-.87l-.924-.924.924-.924a.615.615 0 1 0-.87-.87l-.924.924-.924-.924a.615.615 0 1 0-.87.87l.924.924-.924.924c-.24.24-.24.63 0 .87zm11.742 5.245a.615.615 0 0 0-.87 0l-.924.924-.924-.924a.615.615 0 0 0-.87.87l.924.924-.924.924a.615.615 0 1 0 .87.87l.924-.924.924.924a.613.613 0 0 0 .87 0c.24-.24.24-.63 0-.87l-.924-.924.924-.924c.24-.24.24-.63 0-.87zm10.872 0a.615.615 0 0 0-.87 0l-.924.924-.924-.924a.615.615 0 0 0-.87.87l.924.924-.924.924a.615.615 0 1 0 .87.87l.924-.924.924.924a.613.613 0 0 0 .87 0c.24-.24.24-.63 0-.87l-.924-.924.924-.924c.24-.24.24-.63 0-.87zm-18.102-3.577a.615.615 0 1 0 0 1.23h16.308c.34 0 .615-.275.615-.615V12.94l.309.309a.614.614 0 0 0 .87 0c.24-.24.24-.63 0-.87l-1.359-1.36a.615.615 0 0 0-.87 0l-1.36 1.36a.615.615 0 1 0 .871.87l.309-.31v2.01H14.205z" fill="#0088CE"/></svg>