<svg width="42" height="42" viewBox="0 0 42 42" fill="none" xmlns="http://www.w3.org/2000/svg"><path d="M37.571 2.04H10.412c-2.357 0-4.274 1.9-4.274 4.228l-.175 23.914h-5.3c-.376 0-.663.332-.663.708v3.291c0 3.081 2.466 5.6 5.441 5.739v.04h22.87v-.045c.17.007.274.045.39.045h.017a5.75 5.75 0 0 0 5.715-5.78V13.264h6.904c.376 0 .663-.34.663-.715v-6.04a4.46 4.46 0 0 0-4.429-4.468zM5.739 38.6h-.005c-2.42 0-4.374-2-4.374-4.42v-2.637h21.595v2.626a5.756 5.756 0 0 0 1.68 4.085c.116.116.236.175.359.345H5.739zm27.334-4.42c0 2.42-1.936 4.42-4.356 4.42h-.014a4.42 4.42 0 0 1-4.387-4.43v-3.28a.705.705 0 0 0-.68-.708H7.323l.175-23.91c0-1.582 1.307-2.871 2.914-2.871H34.36c-.775.85-1.287 1.926-1.287 3.126V34.18zM40.64 6.52v5.382h-6.207V6.526c0-1.702 1.416-3.125 3.118-3.125h.019a3.1 3.1 0 0 1 3.07 3.115v.005z" fill="#0088CE"/><path d="M15.971 18.782l3.507 2.398a.67.67 0 0 0 .76 0l3.497-2.397c1.214-.829 2.111-2.561 2.111-4.03V9.902a.665.665 0 0 0-.363-.61l-5.339-2.627a.668.668 0 0 0-.594 0l-5.33 2.619a.664.664 0 0 0-.362.61v4.859c0 1.469.9 3.201 2.113 4.029zm-.752-8.463l4.633-2.286 4.634 2.293v4.427c0 1.024-.672 2.328-1.519 2.905l-3.123 2.136-3.11-2.136c-.848-.578-1.516-1.88-1.516-2.905v-4.434z" fill="#0088CE"/><path d="M18.702 15.78c.127.13.3.203.481.204h.002a.68.68 0 0 0 .48-.201l2.707-2.707a.68.68 0 0 0-.962-.963l-2.223 2.222-.888-.897a.68.68 0 1 0-.967.958l1.37 1.384zm9.61 7.345H11.988a.68.68 0 0 0 0 1.36h16.324a.68.68 0 0 0 0-1.36zm0 3.146H11.988a.68.68 0 1 0 0 1.36h16.324a.68.68 0 0 0 0-1.36z" fill="#0088CE"/></svg>