<svg width="26" height="27" viewBox="0 0 26 27" fill="none" xmlns="http://www.w3.org/2000/svg"><path d="M13 0C5.831 0 0 6.056 0 13.5S5.831 27 13 27s13-6.056 13-13.5S20.169 0 13 0zm5.757 15.776l-.706-.193.223.386-1.077.655-.854-1.504-1.04-.309c-.223.425-.557.81-1.003 1.042l.297 1.08 1.449.887-.632 1.119-.371-.232.186.733-1.226.347-.186-.733-.223.386-1.077-.656.854-1.504-.297-1.08c-.483 0-.965-.116-1.374-.386l-.78.81v1.736H9.657v-.424l-.52.54-.483-.502-.483-.501.52-.54h-.408V15.62h1.671l.78-.81a2.951 2.951 0 0 1-.297-.694c-.074-.231-.074-.501-.074-.733l-1.04-.308-1.449.887-.631-1.119.371-.231-.705-.193.334-1.273.706.193-.223-.386 1.077-.655.854 1.504 1.04.308c.223-.424.557-.81 1.003-1.041l-.297-1.08-1.449-.887.632-1.119.371.232-.186-.733 1.226-.347.186.733.223-.386 1.077.656-.854 1.504.297 1.08c.483 0 .965.116 1.374.386l.78-.81V8.563h1.263v.424l.52-.54.483.502.483.501-.558.579h.409v1.311h-1.671l-.78.81c.111.193.222.424.297.694.074.232.074.502.074.733l1.04.309 1.449-.887.631 1.118-.371.232.705.192-.297 1.235z" fill="#919191"/><path d="M13.929 12.536a1.352 1.352 0 0 0-1.3-.386c-.706.193-1.115.964-.929 1.697.074.27.186.463.371.617.335.347.818.502 1.3.386.706-.193 1.115-.964.929-1.697-.074-.232-.186-.463-.371-.617z" fill="#919191"/></svg>