<svg width="31" height="31" viewBox="0 0 31 31" fill="none" xmlns="http://www.w3.org/2000/svg"><path fill-rule="evenodd" clip-rule="evenodd" d="M15.5 30.084c8.054 0 14.583-6.53 14.583-14.584C30.083 7.446 23.554.917 15.5.917S.917 7.447.917 15.5c0 8.055 6.529 14.584 14.583 14.584zm4.713-12.598l2.252 2.257c.447.45.434 1.195-.03 1.66l-.643.632-.014-.012a3.798 3.798 0 0 1-1.858.758c-.147.015-3.553.335-7.779-3.9-3.057-3.065-4.184-5.323-3.887-7.794a3.84 3.84 0 0 1 .233-.938 3.68 3.68 0 0 1 .523-.924l-.017-.018.635-.64c.464-.466 1.208-.48 1.655-.03l2.252 2.257c.448.45.435 1.193-.03 1.66l-.374.375-.762.762.104.187.018.033.003.004c.398.718.942 1.7 1.975 2.736 1.032 1.035 2.013 1.58 2.73 1.978l.223.125 1.135-1.137c.464-.465 1.207-.479 1.656-.031z" fill="#BCBCBC"/></svg>