<svg width="26" height="27" viewBox="0 0 26 27" fill="none" xmlns="http://www.w3.org/2000/svg"><g clip-path="url(#a)" fill="#0DB8A3"><path d="M17.629 8.948c-.19 0-.349.33-.349.74 0 .403.159.74.349.74.19 0 .348-.328.348-.74.008-.41-.15-.74-.348-.74zm-5.995 10.856c.385 0 .697-.66.697-1.473 0-.813-.312-1.472-.697-1.472-.385 0-.697.66-.697 1.472 0 .814.312 1.473.697 1.473zm-4.887-8.463c.285 0 .515-.482.515-1.077s-.23-1.077-.515-1.077c-.284 0-.514.482-.514 1.077s.23 1.077.514 1.077z"/><path d="M13.004 0C5.821 0 0 6.045 0 13.504c0 7.46 5.82 13.504 13.004 13.504 7.183 0 13.004-6.045 13.004-13.504C26.008 6.044 20.179 0 13.004 0zm-4.8 13.01c-1.44 0-2.613-1.216-2.613-2.713s2.614-5.37 2.614-5.37 2.613 3.873 2.613 5.37c0 1.505-1.172 2.714-2.613 2.714zm5.418 9.072c-1.964 0-3.564-1.653-3.564-3.7 0-2.04 3.564-7.32 3.564-7.32s3.564 5.28 3.564 7.32c-.008 2.039-1.6 3.7-3.564 3.7zm5.005-10.519c-.99 0-1.79-.83-1.79-1.858s1.79-3.677 1.79-3.677 1.79 2.649 1.79 3.677-.8 1.858-1.79 1.858z"/></g><defs><clipPath id="a"><path fill="#fff" d="M0 0h26v27H0z"/></clipPath></defs></svg>