<svg width="27" height="27" viewBox="0 0 27 27" fill="none" xmlns="http://www.w3.org/2000/svg"><path d="M13.22 0C5.918 0 0 5.918 0 13.22c0 7.301 5.918 13.22 13.22 13.22 7.301 0 13.22-5.919 13.22-13.22C26.44 5.918 20.52 0 13.22 0zm8.67 17.356c-.159.2-.438.2-.65 0-1.012-1.024-2.142-1.344-3.352-.945-.931.333-1.53.945-1.53.945a5.34 5.34 0 0 1-1.941 1.183c-.36.12-.812.2-1.25.2-.931 0-1.982-.333-2.993-1.383-2.42-2.407-4.814-.08-4.934 0-.16.2-.439.2-.652 0a.45.45 0 0 1 0-.612c.04-.04.812-.771 1.942-1.184 1.05-.372 2.66-.452 4.243 1.184 2.42 2.407 4.854.08 4.934 0 .04-.04.771-.771 1.901-1.184 1.091-.372 2.713-.452 4.283 1.184a.45.45 0 0 1 0 .612zm0-2.74c-.159.16-.438.16-.65 0-1.012-1.024-2.142-1.343-3.352-.944-.931.332-1.53.944-1.53.944a5.55 5.55 0 0 1-1.941 1.144c-.36.16-.812.24-1.25.24-.931 0-1.982-.333-2.993-1.384-2.42-2.447-4.814-.08-4.934 0-.16.16-.439.16-.652 0-.16-.16-.16-.452 0-.652.04 0 .812-.771 1.942-1.143 1.05-.373 2.66-.453 4.243 1.143 2.42 2.447 4.854.12 4.934 0 .04 0 .771-.771 1.901-1.143 1.091-.373 2.713-.453 4.283 1.143.16.2.16.492 0 .652zm0-2.7c-.159.2-.438.2-.65 0-1.012-1.024-2.142-1.343-3.352-.944a4.443 4.443 0 0 0-1.53.944c-.04.04-.811.812-1.941 1.184-.36.12-.812.2-1.25.2-.931 0-1.982-.333-2.993-1.384-2.42-2.407-4.814-.08-4.934 0-.16.2-.439.2-.652 0a.45.45 0 0 1 0-.611c.04-.04.812-.772 1.942-1.184 1.05-.373 2.66-.452 4.243 1.184 2.42 2.407 4.854.08 4.934 0 .04-.04.771-.772 1.901-1.184 1.091-.373 2.713-.452 4.283 1.184a.45.45 0 0 1 0 .611zm0-2.726c-.159.16-.438.16-.65 0-1.012-1.024-2.142-1.343-3.352-.944-.931.332-1.53.944-1.53.944a5.55 5.55 0 0 1-1.941 1.144c-.36.16-.812.239-1.25.239-.931 0-1.982-.332-2.993-1.383-2.42-2.447-4.814-.08-4.934 0-.16.16-.439.16-.652 0-.16-.16-.16-.452 0-.652.04 0 .812-.771 1.942-1.144 1.05-.372 2.66-.452 4.243 1.144 2.42 2.447 4.854.12 4.934 0 .04 0 .771-.771 1.901-1.144 1.091-.372 2.713-.452 4.283 1.144.16.2.16.479 0 .652z" fill="#919191"/></svg>