<svg width="34" height="30" viewBox="0 0 34 30" fill="none" xmlns="http://www.w3.org/2000/svg"><path fill-rule="evenodd" clip-rule="evenodd" d="M2.73 17.81h-.585V4.874H0V0h4.875v2.145h7.28v.585h-7.28v2.145H2.73v12.934zM3.9.91H.91V3.9H3.9V.91zm9.62 23.464h2.144V13.129L29.12 4.355V0h4.874v4.875H29.38l-13.13 8.58v10.919h2.145v4.875H13.52v-4.875zM33.019.91h-2.99V3.9h2.99V.91zm-15.6 24.374h-1.17v2.015h-.585v-2.015H14.43v2.99h2.99v-2.99zM6.695 6.629l2.21-2.21 1.495 1.43a9.577 9.577 0 0 1 3.64-1.495v-2.08h3.12v2.08a7.89 7.89 0 0 1 3.639 1.495l1.43-1.43 1.885 1.885-3.315 2.145c-1.3-1.43-3.12-2.275-5.2-2.275a7.13 7.13 0 0 0-7.15 7.15c0 3.314 2.275 6.044 5.33 6.89v1.949c-1.235-.26-2.405-.715-3.38-1.43l-1.494 1.495-2.21-2.21 1.495-1.495a9.578 9.578 0 0 1-1.495-3.64h-2.08v-3.12h2.08a7.889 7.889 0 0 1 1.495-3.64L6.695 6.63zm14.104 11.57h2.405a.897.897 0 0 1-.195.26l1.495 1.496-2.21 2.21L20.8 20.67a7.833 7.833 0 0 1-2.665 1.3v-2.015c1.04-.39 1.95-.975 2.665-1.755zm3.575-2.73c.065-.196.13-.39.13-.65h2.08v-3.12h-2.08c-.13-.585-.26-1.17-.52-1.755l-1.625 1.105c.26.715.39 1.495.39 2.274 0 .78-.13 1.495-.325 2.21h1.95v-.065zm7.475 1.105h-14.04v.585h13.454v7.215H29.12v4.874h4.874v-4.874h-2.145v-7.8zm1.17 11.764h-2.99v-2.99h2.99v2.99z" fill="#919191"/></svg>