<svg width="26" height="26" viewBox="0 0 26 26" fill="none" xmlns="http://www.w3.org/2000/svg"><path d="M13 0C5.845 0 0 5.84 0 13s5.845 13 13 13 13-5.845 13-13S20.16 0 13 0zM5.674 14.441c.096.35.254.704.45 1.014.136.214.236.41.31.625.057.157.332 1.131.197 1.227-.04.018-.096.018-.118-.017-.546-.49-.996-.957-1.406-1.621a6.434 6.434 0 0 1-.782-1.93 6.542 6.542 0 0 1-.079-2.46 6.344 6.344 0 0 1 .821-2.302 6.537 6.537 0 0 1 1.267-1.56c.507-.45 1.092-.8 1.7-1.074a6.898 6.898 0 0 1 1.97-.49 6.642 6.642 0 0 1 2.03.136l.411.118c.136.04.275.078.41.135.311.118.625.254.918.428.293.175.568.411.782.704.214.292.31.624.332.956a2.01 2.01 0 0 1-.214.996c-.079.158-.197.31-.31.45a1.496 1.496 0 0 1-.428.332 2.348 2.348 0 0 1-.507.214 2.43 2.43 0 0 1-.546.057c-.175 0-.35-.04-.528-.096a1.62 1.62 0 0 1-.468-.236c-.41-.31-.878-.507-1.345-.642a4.28 4.28 0 0 0-1.486-.118 3.934 3.934 0 0 0-2.56 1.345 4.13 4.13 0 0 0-.995 2.713c.017.376.056.747.174 1.096zm13.175 4.57a6.144 6.144 0 0 1-1.267 1.638 6.62 6.62 0 0 1-2.07 1.306 6.035 6.035 0 0 1-2.381.428 6.477 6.477 0 0 1-1.97-.35 5.913 5.913 0 0 1-1.756-.956A6.628 6.628 0 0 1 6.906 16.9a6.121 6.121 0 0 1-.096-1.014c0-.349.057-.703.214-1.035.079-.135.157-.275.254-.41.096-.118.214-.236.349-.332.157-.097.31-.197.49-.236.174-.057.349-.096.528-.096.179 0 .371.017.528.056.175.04.35.118.507.197.157.096.31.214.428.332.136.135.236.275.31.45.096.157.158.332.175.507.04.174.04.349.04.528-.057.507 0 1.014.117 1.503.136.49.35.935.643 1.345.292.41.642.743 1.074 1.014a4.01 4.01 0 0 0 2.83.563c.49-.078.957-.253 1.368-.506.31-.197.607-.429.86-.682a3.72 3.72 0 0 0 .643-.9c.118-.214.236-.41.371-.585.118-.136.821-.878.957-.782.039.017.056.057.056.118-.157.769-.336 1.372-.703 2.075zm2.516-6.5a6.856 6.856 0 0 1-1.716 3.69 1.734 1.734 0 0 1-.254.254 3.067 3.067 0 0 1-.253.236l-.018.018-.017.017v.018h-.035a5.821 5.821 0 0 1-.878.642c-.157.096-.31.157-.49.214a1.497 1.497 0 0 1-.489.096c-.157.017-.31.017-.489-.018a3.383 3.383 0 0 1-.45-.135 1.507 1.507 0 0 1-.45-.31 1.833 1.833 0 0 1-.563-.9 1.686 1.686 0 0 1-.079-.529c0-.196.018-.37.079-.546.057-.174.118-.35.214-.506.096-.158.214-.293.35-.41a1.75 1.75 0 0 1 .45-.294 3.855 3.855 0 0 0 1.21-.86 4.59 4.59 0 0 0 .838-1.25c.197-.45.31-.934.332-1.445a4.25 4.25 0 0 0-.214-1.464 4.167 4.167 0 0 0-.72-1.288 3.843 3.843 0 0 0-1.115-.935 4.784 4.784 0 0 0-1.013-.41 3.51 3.51 0 0 0-1.092-.119 2.69 2.69 0 0 1-.682-.04c-.175-.038-1.153-.274-1.153-.449 0-.057.04-.079.079-.096.703-.236 1.306-.389 2.088-.41a6.593 6.593 0 0 1 2.048.274 6.162 6.162 0 0 1 2.145 1.154 6.274 6.274 0 0 1 1.56 1.874c.332.607.568 1.249.703 1.891.131.668.153 1.354.074 2.036z" fill="#0DB8A3"/></svg>