<svg width="27" height="25" viewBox="0 0 27 25" fill="none" xmlns="http://www.w3.org/2000/svg"><path d="M5.063 4.694H3.49v.227h1.573v-.227zm0 1.019H3.49v.226h1.573v-.226zm0 1.046H3.49v.226h1.573v-.226zm0 1.018H3.49v.227h1.573v-.227zm0 1.018H3.49v.226h1.573v-.226zm0 1.018H3.49v.227h1.573v-.227zm0 1.047H3.49v.226h1.573v-.227zm0 1.018H3.49v.226h1.573v-.226zm0 1.102H3.49v.227h1.573v-.227zm0 1.019H3.49v.226h1.573V14zm0 1.046H3.49v.226h1.573v-.226zm0 1.019H3.49v.226h1.573v-.226zm0 1.017H3.49v.226h1.573v-.226zm0 1.019H3.49v.226h1.573V18.1zm0 1.045H3.49v.227h1.573v-.227zm0 1.019H3.49v.226h1.573v-.226zm0 1.018H3.49v.254h1.573v-.254zm0-17.477H3.49v.255h1.573v-.255zm11.326 2.857H8.323v3.987l8.066-3.082v-.905z" fill="#919191"/><path d="M8.237 5.43h10.869l-.172-.707C18.534 3.083 16.846 0 13.3 0H0v5.43h2.002v18.524H3.69V25h2.745v-1.046h1.116V1.329H2.002V4.27h-.858V1.131H13.3c2.631 0 3.804 2.036 4.261 3.168H8.237v1.13zm-5.09-2.941h3.26v20.333h-3.26V2.49zM27 5.713V1.527h-4.233v4.214h1.773v13.377h-1.773v1.753H11.126v.679h11.64v1.753h4.263v-4.185h-1.774V5.713H27zm-1.144 14.536v1.923H23.91V20.25h1.945zM23.91 4.582V2.659h1.945v1.923H23.91z" fill="#919191"/><path d="M15.674 9.983l-2.202 2.178 1.458 1.442a8.778 8.778 0 0 0-1.487 3.564h-2.06v3.082h4.005a6.49 6.49 0 0 1-.172-1.074c-.257-4.243 3.26-7.721 7.551-7.466.372.028.744.084 1.087.17v-3.96h-3.118v2.036a8.987 8.987 0 0 0-3.604 1.47l-1.458-1.442z" fill="#919191"/></svg>