<svg width="27" height="27" viewBox="0 0 27 27" fill="none" xmlns="http://www.w3.org/2000/svg"><path fill-rule="evenodd" clip-rule="evenodd" d="M6.978 22.123a10.9 10.9 0 0 0 4.368 1.81v2.506h3.747v-2.507a10.9 10.9 0 0 0 4.368-1.809l1.784 1.758 2.636-2.61-1.758-1.784a10.9 10.9 0 0 0 1.81-4.368h2.506v-3.773h-2.507a10.9 10.9 0 0 0-1.809-4.368l1.81-1.757-2.663-2.662-1.783 1.757a10.899 10.899 0 0 0-4.368-1.809V0h-3.773v2.481a10.9 10.9 0 0 0-4.368 1.81L5.195 2.532 2.559 5.195l1.757 1.783a10.899 10.899 0 0 0-1.809 4.368H0v3.773h2.481a10.899 10.899 0 0 0 1.81 4.368l-1.758 1.758 2.688 2.662 1.757-1.784zm6.229-.336a8.576 8.576 0 0 1-8.58-8.58c0-4.73 3.85-8.58 8.58-8.58s8.58 3.824 8.58 8.58c0 4.73-3.85 8.58-8.58 8.58zM11.165 18.3a2.198 2.198 0 0 0 .336-2.662l4.11-4.11c.852.492 1.938.388 2.661-.335a2.189 2.189 0 0 0 .543-2.197l-1.758 1.757-1.421-1.421 1.758-1.758a2.189 2.189 0 0 0-2.197.543 2.198 2.198 0 0 0-.336 2.662l-4.11 4.11a2.193 2.193 0 0 0-2.662.335 2.189 2.189 0 0 0-.542 2.197l1.757-1.757 1.421 1.421-1.757 1.758c.75.232 1.602.051 2.197-.543zm5.556.594l-3.773-3.774.801-.8-.232-.234.646-.646.258.233.801-.801 3.774 3.773-.13.104a.434.434 0 0 1-.077.49l-1.473 1.474c-.13.129-.31.155-.491.077l-.104.104zM13 12.276l-2.016-2.015.465-.466L8.71 7.96l-.671.672 1.835 2.74.465-.465 2.016 2.016.646-.646z" fill="#0DB8A3"/></svg>