<svg width="32" height="32" viewBox="0 0 32 32" fill="none" xmlns="http://www.w3.org/2000/svg"><path fill-rule="evenodd" clip-rule="evenodd" d="M26.34 20.357l4.943 4.954c.981.986.952 2.62-.066 3.643l-1.411 1.385-.03-.027a8.025 8.025 0 0 1-2.018 1.145 8.338 8.338 0 0 1-2.059.518c-.322.035-7.796.737-17.07-8.557C1.921 16.693-.55 11.738.101 6.316a8.46 8.46 0 0 1 .51-2.058 8.09 8.09 0 0 1 1.148-2.029l-.038-.038L3.114.787C4.134-.235 5.765-.265 6.747.72l4.942 4.954c.982.985.954 2.619-.066 3.642l-.822.824-1.67 1.672c.074.131.15.268.228.41l.039.071.005.01c.873 1.575 2.068 3.732 4.335 6.003 2.265 2.271 4.416 3.468 5.989 4.341.17.097.334.187.49.274l2.49-2.495c1.02-1.02 2.65-1.05 3.634-.068z" fill="#fff" fill-opacity=".5"/></svg>