<svg width="26" height="27" viewBox="0 0 26 27" fill="none" xmlns="http://www.w3.org/2000/svg"><g clip-path="url(#a)" fill="#0DB8A3"><path d="M14.991 8.889l-.47 1.053c1.262.617 2.078 1.927 2.078 3.391a3.72 3.72 0 0 1-1.335 2.877v-1.053l-2.598 1.85 2.598 1.85v-1.26c1.484-.847 2.449-2.491 2.449-4.29 0-1.875-1.064-3.622-2.722-4.418z"/><path d="M23.55 11.586a11.183 11.183 0 0 0-1.78-4.47l1.73-1.798-2.597-2.723-1.732 1.798a10.337 10.337 0 0 0-4.304-1.85V0h-3.711v2.569a10.338 10.338 0 0 0-4.304 1.85L5.12 2.62 2.499 5.318 4.23 7.116a11.184 11.184 0 0 0-1.78 4.47H0v3.854h2.474c.272 1.644.89 3.16 1.781 4.47l-1.732 1.798 2.598 2.697 1.732-1.798a10.337 10.337 0 0 0 4.304 1.85v2.569h3.71v-2.57a10.337 10.337 0 0 0 4.305-1.849l1.732 1.798 2.597-2.723-1.731-1.798a11.174 11.174 0 0 0 1.78-4.47h2.475V11.56H23.55v.026zM12.444 22.273c-4.205-.282-7.619-3.828-7.866-8.195-.322-5.292 3.884-9.66 8.98-9.325 4.205.282 7.619 3.827 7.891 8.195.322 5.292-3.884 9.659-9.005 9.325z"/><path d="M13.31 10.02l-2.598-1.85v.9c-1.485.847-2.425 2.491-2.425 4.264 0 1.9 1.064 3.622 2.722 4.418l.47-1.053c-1.262-.617-2.078-1.927-2.078-3.391a3.82 3.82 0 0 1 1.31-2.877v1.413l2.598-1.824z"/></g><defs><clipPath id="a"><path fill="#fff" d="M0 0h26v27H0z"/></clipPath></defs></svg>