<svg width="42" height="43" viewBox="0 0 42 43" fill="none" xmlns="http://www.w3.org/2000/svg"><path d="M4.941 16.895V6.135h1.235V20.92H4.941v-2.56l-3.13 1.993 13.051 7.47h3.009v-1.866h-2.677l2.817-3.384.776-2.795h4.475l.813 2.812 2.467 3.367h-2.413v1.867h3.077l12.986-7.47-3.163-2.025v2.67h-1.235V1.235H6.176V2.43H4.941V0h32.088v16.862L42 20.042v21.96H0v-21.96l4.941-3.147zm14.785 4.118l-.343 1.235h3.307l-.356-1.235h-2.608zm3.473 2.47h-4.34l-1.03 1.238h6.276l-.907-1.238zm-4.093 2.473v2.286l1.017 1.42h1.824l.947-1.41v-2.296h-3.788zm4.735 3.102l-1.236 1.84h-3.117l-1.317-1.84h-1.66l2.893 3.856 1.637.982 1.63-.978 2.745-3.86h-1.575zm16.924 11.708V21.448l-14.25 8.198-2.987 4.199-2.487 1.492-2.48-1.488-3.266-4.355-14.06-8.048v19.32h39.53z" fill="#0088CE"/><path d="M6.176 3.665H4.942v1.234h1.234V3.665zM18.53 2.47h16.058v3.707H18.53V2.47zm1.235 2.471h13.588V3.706H19.765v1.235zM34.63 9.882h-2.471v1.236h2.47V9.882zm-3.706 0h-16.06v1.236h16.06V9.882zm-.042 2.47h-2.47v1.235h2.47v-1.235zm-3.706 0h-16.06v1.235h16.06v-1.235zm3.706 4.941h-2.47v1.235h2.47v-1.235zm-3.706 0h-16.06v1.235h16.06v-1.235zm-.001-2.47h-2.47v1.235h2.47v-1.235zm-3.705 0H7.41v1.235h16.06v-1.235zM39.53 25.9h-1.235v1.235h1.234V25.9zm0 2.47h-1.236v6.177h1.235V28.37z" fill="#0088CE"/></svg>